<svg width="39" height="39" viewBox="0 0 39 39" fill="none" xmlns="http://www.w3.org/2000/svg">
<g clip-path="url(#clip0_2312_1106)">
<path d="M12.5593 19.3501C12.3507 19.3501 12.1653 19.2579 12.0263 19.0964L9.3614 15.7753C9.12967 15.4985 9.17601 15.0603 9.47726 14.8297C9.75534 14.5991 10.1956 14.6452 10.4273 14.945L12.5824 17.6204L17.9585 10.7475C18.1903 10.4477 18.6074 10.4016 18.9086 10.6322C19.2099 10.8628 19.2562 11.278 19.0245 11.5778L13.1154 19.1195C12.9995 19.2809 12.791 19.3732 12.5824 19.3732L12.5593 19.3501Z" fill="#231F20"/>
<path d="M12.9537 34.5949C12.9537 34.5949 12.7683 34.5949 12.6756 34.5257C2.43317 29.9823 -0.834204 22.4175 0.185403 5.67357C0.185403 5.37374 0.417133 5.12005 0.71838 5.05086C6.30305 3.89769 9.15332 3.18273 12.4902 0.161443C12.6293 0.0461266 12.7915 0 12.9537 0C13.1159 0 13.2781 0.0461266 13.4171 0.161443C16.754 3.18273 19.6043 3.87463 25.2121 5.05086C25.5134 5.12005 25.7219 5.37374 25.7451 5.67357C26.1159 11.8776 25.9073 16.5364 25.0731 20.3418C24.9341 20.9876 24.7719 21.6103 24.5865 22.1869C24.4706 22.5328 24.0998 22.7404 23.7523 22.6481C23.4047 22.5328 23.1961 22.1638 23.2888 21.8179C23.451 21.2643 23.6132 20.6647 23.7291 20.0651C24.517 16.4902 24.7255 12.1082 24.4011 6.27321C19.1177 5.16617 16.2442 4.38202 12.9305 1.54524C9.61678 4.38202 6.74334 5.14311 1.45991 6.27321C0.579343 21.8179 3.61499 28.9444 12.9305 33.1881C13.3476 32.9805 14.1587 32.6115 14.5758 32.3808C14.9002 32.1963 15.3173 32.3347 15.4795 32.6576C15.6649 32.9805 15.5259 33.3956 15.2014 33.5571C14.5758 33.903 13.2549 34.5027 13.2086 34.5257C13.1159 34.5718 13.0232 34.5949 12.9305 34.5949H12.9537Z" fill="#231F20"/>
<path d="M14.9231 33.6493C14.6914 33.6493 14.4596 33.534 14.3438 33.3034C14.1584 32.9805 14.2974 32.5654 14.6219 32.4039C16.3135 31.5045 17.727 30.4897 18.9088 29.3365C19.1869 29.0828 19.604 29.0828 19.8589 29.3365C20.1138 29.6133 20.1138 30.0284 19.8589 30.2821C18.5612 31.5275 17.0782 32.5884 15.2707 33.5571C15.178 33.6032 15.0621 33.6263 14.9463 33.6263L14.9231 33.6493Z" fill="#231F20"/>
<path d="M29.8235 38.9999C29.5918 38.9999 29.3601 38.9769 29.1515 38.9307L21.8521 37.1088C19.5348 36.3938 19.0018 35.0792 19.2567 34.0875C19.5116 33.0727 20.5775 32.4038 21.574 32.5884L24.2157 32.8882L17.3102 24.2164C16.9162 23.7321 16.754 23.0863 16.8467 22.4636C16.9394 21.8409 17.3102 21.2873 17.8431 20.9414C18.7932 20.3187 20.1373 20.5724 20.8556 21.4949L23.451 24.7468C23.6364 24.4009 23.8913 24.1241 24.2157 23.9166C24.9109 23.4553 25.8146 23.4784 26.5562 23.8704C26.7415 23.363 27.066 22.9479 27.5062 22.6481C28.2246 22.1868 29.1747 22.2099 29.8931 22.6481C30.1016 22.2791 30.4492 21.9331 30.8663 21.6564C31.8164 21.0337 33.1604 21.2873 33.8788 22.2099L37.5865 26.8687C39.1159 28.806 39.6488 32.0579 37.8182 33.9491C37.8182 33.9491 37.795 33.9721 37.7718 33.9952C33.6471 37.6623 31.5383 39.023 29.7772 39.023L29.8235 38.9999ZM21.2264 33.8799C20.9483 33.8799 20.6471 34.1105 20.5544 34.4103C20.4153 34.9177 21.0642 35.4713 22.2228 35.8172L29.4528 37.6161C30.5651 37.8468 32.2103 37.1549 36.8913 32.9804C38.1658 31.6428 37.7487 29.1519 36.5668 27.6759L32.8592 23.0171C32.5579 22.625 32.0018 22.5097 31.6079 22.7634C31.2603 22.994 31.0285 23.2708 30.9822 23.5245C30.9822 23.5937 30.9822 23.709 31.0749 23.8474C31.3066 24.1241 31.2603 24.5623 30.959 24.793C30.6809 25.0236 30.2406 24.9775 30.0089 24.7007L29.4528 24.0319C29.1283 23.6398 28.5954 23.5245 28.2014 23.7782C27.9465 23.9396 27.7843 24.2164 27.738 24.5162C27.7148 24.6546 27.6916 24.9544 27.877 25.185C28.1087 25.4618 28.0624 25.8769 27.7843 26.1076C27.5062 26.3382 27.1123 26.3151 26.8574 26.0614L26.1854 25.3465C26.1854 25.3465 26.1622 25.3234 26.139 25.3004C25.8378 24.9083 25.2816 24.793 24.8877 25.0467C24.6792 25.185 24.5169 25.4157 24.4938 25.6694C24.4474 25.9231 24.5169 26.1768 24.6791 26.3843C24.9109 26.6842 24.8645 27.0993 24.5633 27.3299C24.262 27.5606 23.8449 27.5144 23.6132 27.2146L19.7433 22.3483C19.4421 21.9562 18.8859 21.8409 18.492 22.0946C18.2834 22.2329 18.1212 22.4636 18.098 22.7173C18.0517 22.971 18.1212 23.2247 18.2834 23.4322L26.2086 33.3725C26.3708 33.5801 26.3939 33.8799 26.2781 34.1105C26.139 34.3412 25.8841 34.4795 25.6061 34.4565L21.3191 33.9721C21.3191 33.9721 21.2727 33.9721 21.2496 33.9721C21.2264 33.9721 21.18 33.9721 21.1569 33.9721L21.2264 33.8799Z" fill="#231F20"/>
</g>
<defs>
<clipPath id="clip0_2312_1106">
<rect width="39" height="39" fill="white"/>
</clipPath>
</defs>
</svg>
