<svg width="39" height="48" viewBox="0 0 39 48" fill="none" xmlns="http://www.w3.org/2000/svg">
<g clip-path="url(#clip0_2312_1000)">
<path d="M12.0068 45.4243C13.8438 45.4243 15.3361 43.9519 15.3361 42.1403V37.3206" stroke="#2F3542" stroke-width="1.5" stroke-miterlimit="10"/>
<path d="M4.74609 19.9984V5.06201" stroke="#2F3542" stroke-width="1.5" stroke-miterlimit="10"/>
<path d="M17.665 19.3014V5.06201" stroke="#2F3542" stroke-width="1.5" stroke-miterlimit="10"/>
<path d="M4.74609 34.1147V42.1402C4.74609 45.2229 7.27994 47.7167 10.4122 47.7167H12.0068C15.1314 47.7167 17.6653 45.2229 17.6653 42.1402V25.0791" stroke="#2F3542" stroke-width="1.5" stroke-miterlimit="10"/>
<path d="M12.3398 24.33C12.3777 24.33 12.408 24.3225 12.4573 24.3225H12.4648" stroke="#2F3542" stroke-width="1.5" stroke-miterlimit="10"/>
<path d="M12.1505 5.05457H2.71197C1.3712 5.05457 0.28418 3.98475 0.28418 2.66519C0.28418 1.34936 1.3712 0.279541 2.71197 0.279541H19.699C21.0397 0.279541 22.1268 1.34936 22.1268 2.66892C22.1268 3.98848 21.0397 5.05829 19.699 5.05829H18.1612" stroke="#2F3542" stroke-width="1.5" stroke-miterlimit="10"/>
<path d="M33.4474 20.8968C31.8566 24.4045 27.679 25.9775 24.115 24.4119C20.5509 22.8463 18.9526 18.7348 20.5433 15.2272C22.1341 11.7195 26.3117 10.1465 29.8758 11.7121C33.4398 13.2776 35.0381 17.3892 33.4474 20.8968Z" stroke="#2F3542" stroke-width="1.5" stroke-miterlimit="10"/>
<path d="M38.2543 40.1423C37.0613 42.774 33.929 43.9519 31.255 42.7777C28.581 41.6035 27.3842 38.5208 28.5772 35.8892C29.7703 33.2575 32.9026 32.0796 35.5766 33.2538C38.2505 34.428 39.4474 37.5107 38.2543 40.1423Z" stroke="#2F3542" stroke-width="1.5" stroke-miterlimit="10"/>
<path d="M12.4496 28.803C11.2566 31.4346 8.12431 32.6126 5.45033 31.4384C2.77634 30.2642 1.57949 27.1815 2.77256 24.5498C3.96562 21.9181 7.09789 20.7402 9.77188 21.9144C12.4459 23.0886 13.6427 26.1713 12.4496 28.803Z" stroke="#2F3542" stroke-width="1.5" stroke-miterlimit="10"/>
<path d="M20.7061 21.2173L12.3584 24.3559" stroke="#2F3542" stroke-width="1.5" stroke-miterlimit="10"/>
<path d="M28.8115 24.781L32.0385 33.0078" stroke="#2F3542" stroke-width="1.5" stroke-miterlimit="10"/>
<path d="M6.29883 13.3931C8.4615 13.6838 9.24551 13.8366 11.6771 13.8366C13.7602 13.8366 13.4421 13.7211 15.332 13.5086" stroke="#2F3542" stroke-width="1.5" stroke-miterlimit="10"/>
<path d="M14.5099 17.3593C14.5099 17.7731 14.169 18.1086 13.7486 18.1086C13.3282 18.1086 12.9873 17.7731 12.9873 17.3593C12.9873 16.9456 13.3282 16.6101 13.7486 16.6101C14.169 16.6101 14.5099 16.9456 14.5099 17.3593Z" stroke="#2F3542" stroke-width="1.5" stroke-miterlimit="10"/>
<path d="M9.0675 35.7251C9.0675 36.1388 8.72663 36.4743 8.30621 36.4743C7.8858 36.4743 7.54492 36.1388 7.54492 35.7251C7.54492 35.3113 7.8858 34.9758 8.30621 34.9758C8.72663 34.9758 9.0675 35.3113 9.0675 35.7251Z" stroke="#2F3542" stroke-width="1.5" stroke-miterlimit="10"/>
<path d="M12.0714 42.1515C12.0714 42.7852 11.5487 43.2996 10.9048 43.2996C10.261 43.2996 9.73828 42.7852 9.73828 42.1515C9.73828 41.5178 10.261 41.0034 10.9048 41.0034C11.5487 41.0034 12.0714 41.5178 12.0714 42.1515Z" stroke="#2F3542" stroke-width="1.5" stroke-miterlimit="10"/>
</g>
<defs>
<clipPath id="clip0_2312_1000">
<rect width="39" height="48" fill="white"/>
</clipPath>
</defs>
</svg>
