<svg width="42" height="40" viewBox="0 0 42 40" fill="none" xmlns="http://www.w3.org/2000/svg">
<path d="M14.1916 39.0499H8.18498L7.10492 36.6496C6.66048 36.4424 6.23245 36.202 5.82448 35.9306L3.19852 36.2591L0.0754738 31.1506L1.58234 28.9857C1.54422 28.6421 1.52511 28.2967 1.52509 27.951C1.52509 27.6769 1.52509 27.4027 1.56152 27.1259L0 24.9972L3.00073 19.8241L5.63449 20.0827C6.09787 19.7593 6.58905 19.4772 7.10232 19.2395L8.18498 16.8418H14.1942L15.2743 19.2421C15.7189 19.4481 16.147 19.6876 16.5547 19.9586L19.1833 19.6327L22.3063 24.7385L20.7995 26.9061C20.8381 27.2496 20.8581 27.595 20.8593 27.9407C20.8593 28.1994 20.8593 28.4865 20.8229 28.7632L22.3844 30.892L19.3863 36.0651L16.7525 35.8064C16.2897 36.1292 15.7994 36.4114 15.2873 36.6496L14.1916 39.0499ZM8.94232 37.886H13.4317L14.3868 35.7702L14.5924 35.6797C15.1705 35.4267 15.7186 35.111 16.2268 34.7382L16.409 34.6037L18.7331 34.839L20.9738 30.9592L19.6023 29.0814L19.6257 28.8589C19.7006 28.181 19.6918 27.4965 19.5997 26.8207L19.5711 26.5983L20.901 24.6868L18.5587 20.8716L16.2528 21.1691L16.0681 21.0398C15.6062 20.7162 15.1127 20.4397 14.595 20.2147L14.3868 20.1241L13.4317 18.0057H8.94232L7.98718 20.1241L7.77898 20.2147C7.20056 20.4659 6.65233 20.7808 6.14459 21.1536L5.96241 21.2881L3.63835 21.0501L1.39756 24.9299L2.7691 26.8078L2.74568 27.0302C2.71245 27.3378 2.69594 27.6469 2.69623 27.9562C2.6969 28.3282 2.72211 28.6997 2.7717 29.0684L2.80033 29.2909L1.47043 31.1998L3.81272 35.0175L6.13158 34.7278L6.31636 34.8571C6.77944 35.1809 7.27375 35.4582 7.79199 35.6848L7.99759 35.7754L8.94232 37.886ZM11.1883 33.1526C10.152 33.1526 9.13904 32.8472 8.27745 32.2749C7.41586 31.7027 6.74438 30.8894 6.34794 29.9378C5.95149 28.9862 5.8479 27.9392 6.05025 26.9291C6.25261 25.9191 6.75182 24.9913 7.48476 24.2632C8.21769 23.5352 9.15142 23.0395 10.1678 22.8389C11.1843 22.6383 12.2377 22.7417 13.195 23.1362C14.1522 23.5307 14.9702 24.1985 15.5456 25.055C16.1209 25.9116 16.4277 26.9186 16.4272 27.9485C16.4251 29.3285 15.8724 30.6514 14.8903 31.627C13.9082 32.6026 12.5769 33.1512 11.1883 33.1526ZM11.1883 23.9031C10.3838 23.9031 9.59732 24.1402 8.92838 24.5844C8.25943 25.0286 7.73806 25.66 7.43018 26.3988C7.1223 27.1375 7.04175 27.9504 7.1987 28.7346C7.35566 29.5188 7.74307 30.2392 8.31196 30.8046C8.88085 31.3699 9.60565 31.755 10.3947 31.911C11.1838 32.067 12.0017 31.9869 12.745 31.6809C13.4883 31.3749 14.1236 30.8568 14.5705 30.1919C15.0175 29.5271 15.2561 28.7455 15.2561 27.9459C15.2568 26.8727 14.8287 25.8432 14.0659 25.0837C13.3031 24.3241 12.2681 23.8967 11.1883 23.8953V23.9031Z" fill="#1D384D"/>
<path d="M26.9995 19.1101H23.0488L22.3566 17.5737C22.1084 17.4551 21.8684 17.3203 21.6383 17.1702L19.957 17.3797L17.9062 14.0172L18.8718 12.6308C18.8509 12.4187 18.8405 12.2195 18.8405 12.0204C18.8405 11.8678 18.8405 11.7151 18.8587 11.5522L17.8594 10.1865L19.8321 6.78259L21.5185 6.9533C21.7849 6.77164 22.0651 6.61079 22.3566 6.4722L23.0488 4.93579H26.9995L27.6892 6.4722C27.9384 6.59033 28.1792 6.72514 28.4101 6.87571L30.0913 6.6662L32.1395 10.0287L31.1766 11.4125C31.1975 11.6153 31.208 11.8191 31.2078 12.0229C31.2078 12.1781 31.2078 12.3359 31.1896 12.4937L32.1863 13.8568L30.2136 17.2581L28.5272 17.0874C28.2609 17.2701 27.9807 17.4318 27.6892 17.5711L26.9995 19.1101ZM23.7229 18.0755H26.3254L26.9032 16.7822L27.088 16.702C27.4387 16.5485 27.7713 16.3568 28.0795 16.1304L28.2409 16.0114L29.6515 16.1537L30.9527 13.9137L30.1199 12.773L30.1433 12.5739C30.164 12.3884 30.1745 12.2018 30.1746 12.0152C30.1743 11.7894 30.1587 11.5638 30.1277 11.3401L30.1017 11.1409L30.9085 9.98216L29.5526 7.781L28.1472 7.95689L27.9832 7.84308C27.7027 7.64603 27.4028 7.4779 27.088 7.34129L26.9032 7.2611L26.3254 5.96783H23.7229L23.1425 7.2611L22.9577 7.34129C22.6116 7.49475 22.2834 7.68558 21.9792 7.91033L21.8178 8.02931L20.4073 7.88705L19.106 10.1296L19.9388 11.2677L19.918 11.4643C19.8979 11.6507 19.8875 11.838 19.8868 12.0255C19.8879 12.253 19.9035 12.4803 19.9336 12.7058L19.9596 12.9024L19.145 14.0663L20.4957 16.2778L21.9037 16.1019L22.0677 16.2158C22.3479 16.4118 22.6469 16.5799 22.9603 16.7175L23.1451 16.7977L23.7229 18.0755ZM25.0242 15.4294C24.3468 15.4294 23.6846 15.2298 23.1214 14.8558C22.5581 14.4818 22.1192 13.9501 21.8599 13.3282C21.6007 12.7062 21.5329 12.0218 21.665 11.3615C21.7972 10.7012 22.1234 10.0947 22.6024 9.61861C23.0813 9.14257 23.6916 8.81838 24.356 8.68704C25.0204 8.5557 25.709 8.6231 26.3348 8.88074C26.9607 9.13837 27.4956 9.57466 27.8719 10.1344C28.2482 10.6942 28.4491 11.3523 28.4491 12.0255C28.4484 12.9281 28.0873 13.7935 27.4452 14.4317C26.803 15.0699 25.9323 15.4288 25.0242 15.4294ZM25.0242 9.65625C24.5526 9.65625 24.0915 9.79527 23.6995 10.0557C23.3074 10.3162 23.0018 10.6864 22.8215 11.1194C22.6411 11.5525 22.594 12.029 22.6862 12.4887C22.7784 12.9484 23.0057 13.3705 23.3394 13.7018C23.673 14.033 24.0981 14.2585 24.5607 14.3496C25.0233 14.4407 25.5027 14.3934 25.9382 14.2137C26.3738 14.034 26.7459 13.7299 27.0076 13.34C27.2692 12.95 27.4086 12.4917 27.4081 12.0229C27.404 11.3973 27.151 10.7986 26.7043 10.3576C26.2577 9.91666 25.6537 9.66917 25.0242 9.66918V9.65625Z" fill="#1D384D"/>
<path d="M16.12 3.72009L15.3392 4.73661L15.2455 4.86076L12.9162 7.88703L12.0886 7.26109L13.9963 4.77282C11.3535 4.72729 8.76086 5.49293 6.57188 6.96535C4.38291 8.43777 2.70411 10.5453 1.76436 13.0006L0.791016 12.6308C1.83423 9.90757 3.71743 7.58212 6.17113 5.98718C8.62484 4.39224 11.5233 3.60956 14.4517 3.75113L11.2012 1.28615L11.8284 0.463623L16.12 3.72009Z" fill="#1D384D"/>
<path d="M33.9493 35.2763C33.558 35.2765 33.1673 35.2462 32.7808 35.1858C30.9319 34.9037 29.2586 33.9375 28.0963 32.4809C26.934 31.0243 26.3686 29.1849 26.5135 27.3314C26.6583 25.4779 27.5027 23.7474 28.8774 22.4866C30.252 21.2258 32.0553 20.528 33.9259 20.533C34.3172 20.5329 34.7079 20.5631 35.0944 20.6235C36.9433 20.9056 38.6166 21.8718 39.7789 23.3284C40.9412 24.785 41.5065 26.6244 41.3617 28.4779C41.2168 30.3314 40.3725 32.062 38.9978 33.3228C37.6232 34.5835 35.8198 35.2814 33.9493 35.2763ZM33.9337 21.5676C32.3301 21.569 30.786 22.1711 29.6093 23.2538C28.4326 24.3365 27.7098 25.8202 27.585 27.4091C27.4602 28.998 27.9426 30.5752 28.936 31.8263C29.9294 33.0773 31.3608 33.9103 32.9447 34.1589C33.277 34.2108 33.6129 34.2367 33.9493 34.2365C35.5529 34.2351 37.097 33.6331 38.2737 32.5504C39.4504 31.4677 40.1732 29.9839 40.298 28.3951C40.4228 26.8062 39.9404 25.2289 38.947 23.9779C37.9536 22.7268 36.5222 21.8939 34.9383 21.6452C34.6034 21.593 34.2649 21.567 33.9259 21.5676H33.9337Z" fill="#1D384D"/>
<path d="M36.2731 29.4327C36.2731 30.4544 35.5496 31.1709 34.3264 31.2692V32.4797H33.6524V31.2588C32.8751 31.1684 32.1506 30.8224 31.5938 30.2759L32.1143 29.65C32.6312 30.1628 33.3257 30.4598 34.0558 30.4803C34.7975 30.4803 35.357 30.113 35.357 29.4845C35.357 28.7654 34.7767 28.5274 33.8475 28.2377C32.7467 27.886 31.7447 27.5445 31.7447 26.3521C31.7447 25.3796 32.4292 24.6424 33.6576 24.5829V23.3181H34.3316V24.6269C34.9517 24.7357 35.5384 24.9843 36.0467 25.3537L35.5418 25.9745C35.0469 25.616 34.4568 25.41 33.8449 25.3822C33.1423 25.3822 32.6504 25.7107 32.6504 26.2952C32.6504 26.9212 33.2594 27.1514 34.1 27.423C35.3388 27.8135 36.2783 28.142 36.2783 29.425L36.2731 29.4327Z" fill="#1D384D"/>
</svg>
