<svg width="38" height="40" viewBox="0 0 38 40" fill="none" xmlns="http://www.w3.org/2000/svg">
<g clip-path="url(#clip0_2312_1040)">
<path d="M19.096 40.0001C19.096 40.0001 18.8567 39.9761 18.761 39.9042L11.1275 35.5663C10.9121 35.4465 10.7686 35.2068 10.7686 34.9671L10.7207 26.1715C10.7207 25.9318 10.8404 25.6921 11.0557 25.5723C11.2711 25.4525 11.5343 25.4525 11.7497 25.5723L19.3832 29.9102C19.5985 30.0301 19.7421 30.2697 19.7421 30.5094L19.79 39.3051C19.79 39.5447 19.6703 39.7844 19.455 39.9042C19.3353 39.9761 19.2157 40.0001 19.096 40.0001ZM12.1565 34.5357L18.4021 38.0828L18.3542 30.8928L12.1086 27.3458L12.1565 34.5357Z" fill="#231F20"/>
<path d="M19.0963 40C19.0963 40 18.857 39.976 18.7613 39.9041C18.5459 39.7843 18.4024 39.5447 18.4024 39.305L18.3545 30.5093C18.3545 30.2696 18.4741 30.03 18.6895 29.9101L26.2751 25.4763C26.4905 25.3565 26.7537 25.3565 26.9691 25.4763C27.1845 25.5962 27.328 25.8358 27.328 26.0755L27.3759 34.8712C27.3759 35.1109 27.2563 35.3505 27.0409 35.4704L19.4552 39.9041C19.4552 39.9041 19.216 40 19.0963 40ZM19.7424 30.9167L19.7903 38.1067L25.988 34.4638L25.9401 27.2738L19.7424 30.9167Z" fill="#231F20"/>
<path d="M29.7205 33.7686C29.7205 33.7686 29.4812 33.7446 29.3855 33.6727L26.3225 31.9232C26.1072 31.8034 25.9636 31.5637 25.9636 31.324V26.4828L21.7281 24.0862C21.5127 23.9663 21.3691 23.7267 21.3691 23.487V19.94C21.3691 19.7003 21.4888 19.4606 21.7042 19.3408L29.2659 14.907C29.4812 14.7872 29.7445 14.7872 29.9598 14.907L37.5933 19.2689C37.8087 19.3887 37.9523 19.6284 37.9523 19.8681L38.0001 28.6638C38.0001 28.9034 37.8805 29.1431 37.6651 29.2629L30.0795 33.6967C30.0795 33.6967 29.8402 33.7926 29.7205 33.7926V33.7686ZM27.3515 30.9166L29.7205 32.2827L36.6122 28.2563L36.5644 20.2755L29.6248 16.321L22.7331 20.3474V23.0796L26.9447 25.4762C27.1601 25.596 27.3036 25.8357 27.3036 26.0754V30.9166H27.3515Z" fill="#231F20"/>
<path d="M29.6727 24.9729C29.6727 24.9729 29.4334 24.949 29.3377 24.8771L21.7042 20.5152C21.3692 20.3234 21.2495 19.892 21.441 19.5805C21.6324 19.2449 22.0631 19.1251 22.3742 19.3168L30.0077 23.6548C30.3427 23.8465 30.4624 24.2779 30.2709 24.5895C30.1513 24.8052 29.912 24.949 29.6727 24.949V24.9729Z" fill="#231F20"/>
<path d="M29.6729 24.9729C29.4336 24.9729 29.1943 24.8531 29.0746 24.6374C28.8832 24.3018 29.0028 23.8704 29.3139 23.6787L36.8996 19.2449C37.2346 19.0532 37.6414 19.173 37.8567 19.4846C38.0482 19.8201 37.9285 20.2515 37.6174 20.4432L30.0318 24.877C30.0318 24.877 29.7925 24.9729 29.6729 24.9729Z" fill="#231F20"/>
<path d="M29.7203 33.7685C29.3375 33.7685 29.0264 33.4569 29.0264 33.0735L28.9785 24.2778C28.9785 23.8943 29.2896 23.5828 29.6725 23.5828C30.0553 23.5828 30.3664 23.8943 30.3664 24.2778L30.4143 33.0735C30.4143 33.4569 30.1032 33.7685 29.7203 33.7685Z" fill="#231F20"/>
<path d="M19.0482 31.2044C19.0482 31.2044 18.8089 31.1804 18.7131 31.1085L11.0796 26.7706C10.8643 26.6507 10.7207 26.4111 10.7207 26.1714C10.7207 25.9317 10.8404 25.6921 11.0557 25.5723L18.6414 21.1385C18.8567 21.0186 19.1199 21.0186 19.3353 21.1385L26.9688 25.4764C27.1842 25.5962 27.3278 25.8359 27.3278 26.0755C27.3278 26.3152 27.2081 26.5549 26.9927 26.6747L19.4071 31.1085C19.4071 31.1085 19.1678 31.2044 19.0482 31.2044ZM12.8026 26.1474L19.0482 29.6945L25.2459 26.0516L19.0003 22.5045L12.8026 26.1474Z" fill="#231F20"/>
<path d="M8.2796 33.7687C8.15995 33.7687 8.0403 33.7447 7.92065 33.6728L0.335013 29.239C0.119647 29.0952 0 28.8795 0 28.6159L0.0478589 19.8202C0.0478589 19.5806 0.191436 19.3409 0.406801 19.2211L8.0403 14.8592C8.25567 14.7393 8.51889 14.7393 8.73426 14.8592L16.3199 19.293C16.5353 19.4128 16.6549 19.6525 16.6549 19.8921V23.4871C16.6549 23.7267 16.5113 23.9664 16.296 24.0862L12.1322 26.5308V31.2282C12.1562 31.4679 12.0365 31.7076 11.7972 31.8274L8.61461 33.6489C8.61461 33.6489 8.39924 33.7447 8.2796 33.7447V33.7687ZM1.38791 28.2324L8.2796 32.2588L10.7683 30.8448V26.1474C10.7443 25.9077 10.864 25.668 11.0793 25.5482L15.2431 23.1036V20.2995L8.37531 16.2732L1.43577 20.2276L1.38791 28.2085V28.2324Z" fill="#231F20"/>
<path d="M8.32729 24.9729C8.088 24.9729 7.84871 24.8531 7.72906 24.6134C7.53762 24.2779 7.65727 23.8465 7.99228 23.6787L15.6258 19.3408C15.9608 19.149 16.3915 19.2689 16.559 19.6044C16.7265 19.9399 16.6308 20.3713 16.2958 20.5391L8.66231 24.901C8.66231 24.901 8.44694 24.9969 8.32729 24.9969V24.9729Z" fill="#231F20"/>
<path d="M8.32735 24.9729C8.32735 24.9729 8.08805 24.949 7.9684 24.8771L0.382762 20.4433C0.0477492 20.2515 -0.0479686 19.8201 0.143467 19.4846C0.334903 19.1491 0.765633 19.0532 1.10065 19.2449L8.68629 23.6787C9.0213 23.8705 9.11702 24.3019 8.92558 24.6374C8.80593 24.8531 8.56664 24.9729 8.32735 24.9729Z" fill="#231F20"/>
<path d="M8.25548 33.7687C7.87261 33.7687 7.56152 33.4572 7.56152 33.0737L7.60938 24.278C7.60938 23.8946 7.92047 23.559 8.30334 23.583C8.68621 23.583 8.99729 23.8946 8.99729 24.278L8.94943 33.0737C8.94943 33.4572 8.63835 33.7687 8.25548 33.7687Z" fill="#231F20"/>
<path d="M19.1195 18.9576C19.1195 18.9576 18.8802 18.9336 18.7844 18.8617L11.1509 14.5238C10.9356 14.4039 10.792 14.1643 10.792 13.9246L10.7441 5.12893C10.7441 4.88927 10.8638 4.6496 11.0792 4.52977L18.6648 0.0959777C18.8802 -0.0238545 19.1434 -0.0238545 19.3588 0.0959777L26.9923 4.45787C27.2076 4.5777 27.3512 4.81737 27.3512 5.05703L27.3991 13.8527C27.3991 14.0924 27.2794 14.332 27.064 14.4519L19.4784 18.8857C19.4784 18.8857 19.2391 18.9815 19.1195 18.9815V18.9576ZM12.1799 13.5172L19.1195 17.4717L26.0111 13.4453L25.9633 5.46446L19.0237 1.51L12.1321 5.53636L12.1799 13.5172Z" fill="#231F20"/>
<path d="M19.0711 10.1858C19.0711 10.1858 18.8319 10.1618 18.7361 10.0899L11.1026 5.75198C10.7676 5.56025 10.648 5.12886 10.8394 4.81729C11.0308 4.48176 11.4616 4.36193 11.7727 4.55366L19.4062 8.91556C19.7412 9.10729 19.8608 9.53868 19.6694 9.85025C19.5497 10.0659 19.3104 10.2097 19.0711 10.2097V10.1858Z" fill="#231F20"/>
<path d="M19.0713 10.1858C18.832 10.1858 18.5927 10.066 18.4731 9.85026C18.2816 9.51473 18.4013 9.08334 18.7123 8.89161L26.298 4.45781C26.633 4.26608 27.0398 4.38591 27.2552 4.69748C27.4466 5.03301 27.327 5.4644 27.0159 5.65614L19.4302 10.0899C19.4302 10.0899 19.1909 10.1858 19.0713 10.1858Z" fill="#231F20"/>
<path d="M19.1197 18.9575C18.7369 18.9575 18.4258 18.6459 18.4258 18.2624L18.3779 9.46676C18.3779 9.08329 18.689 8.77173 19.0719 8.77173C19.4548 8.77173 19.7658 9.08329 19.7658 9.46676L19.8137 18.2624C19.8137 18.6459 19.5026 18.9575 19.1197 18.9575Z" fill="#231F20"/>
</g>
<defs>
<clipPath id="clip0_2312_1040">
<rect width="38" height="40" fill="white"/>
</clipPath>
</defs>
</svg>
