<svg width="400" height="400" viewBox="0 0 400 400" fill="none" xmlns="http://www.w3.org/2000/svg">
<rect width="400" height="400" fill="#1B1B1B"/>
<path d="M63 199.5C63 278.201 124.337 342 200 342C275.663 342 337 278.201 337 199.5C337 120.799 275.663 57 200 57C124.337 57 63 120.799 63 199.5Z" fill="url(#paint0_linear_2154_3310)"/>
<path d="M288 258.5C288 264.851 282.851 270 276.5 270C270.149 270 265 264.851 265 258.5C265 252.149 270.149 247 276.5 247C282.851 247 288 252.149 288 258.5Z" fill="url(#paint1_linear_2154_3310)"/>
<path d="M200.376 270C186.036 270 173.665 267.1 163.266 261.298C152.93 255.438 144.953 247.27 139.333 236.792C133.778 226.256 131 214.003 131 200.033C131 186.063 133.778 173.751 139.333 163.096C144.953 152.382 152.769 144.035 162.781 138.057C172.858 132.019 184.614 129 198.05 129C205.802 129 213.456 130.184 221.014 132.552C228.572 134.919 235.451 138.767 241.652 144.094C247.854 149.363 252.795 156.348 256.477 165.049C260.159 173.751 262 184.465 262 197.191V206.071H147.278V187.957H238.746C238.746 180.262 237.066 173.395 233.707 167.358C230.413 161.32 225.697 156.555 219.561 153.062C213.489 149.57 206.319 147.824 198.05 147.824C188.942 147.824 181.062 149.895 174.408 154.039C167.82 158.123 162.749 163.451 159.196 170.021C155.643 176.592 153.867 183.636 153.867 191.154V203.229C153.867 213.529 155.805 222.26 159.68 229.423C163.621 236.526 169.079 241.942 176.055 245.671C183.032 249.341 191.139 251.176 200.376 251.176C206.383 251.176 211.809 250.407 216.654 248.868C221.563 247.27 225.794 244.902 229.347 241.764C232.9 238.568 235.645 234.602 237.583 229.867L259.675 235.549C257.349 242.416 253.441 248.453 247.95 253.662C242.46 258.812 235.677 262.838 227.603 265.738C219.528 268.579 210.453 270 200.376 270Z" fill="white"/>
<defs>
<linearGradient id="paint0_linear_2154_3310" x1="62.4942" y1="187.23" x2="328.979" y2="248.442" gradientUnits="userSpaceOnUse">
<stop stop-color="#5118B6"/>
<stop offset="0.5" stop-color="#1B1B1B"/>
<stop offset="1" stop-color="#181491"/>
</linearGradient>
<linearGradient id="paint1_linear_2154_3310" x1="394.448" y1="265.474" x2="394.448" y2="288.474" gradientUnits="userSpaceOnUse">
<stop stop-color="white"/>
</linearGradient>
</defs>
</svg>
