<svg width="30" height="43" viewBox="0 0 30 43" fill="none" xmlns="http://www.w3.org/2000/svg">
<g clip-path="url(#clip0_2312_1080)">
<path d="M15.0003 32.9949C8.63045 32.9949 3.46777 27.7852 3.46777 21.3572C3.46777 14.9292 8.63045 9.71948 15.0003 9.71948C21.3702 9.71948 26.5328 14.9292 26.5328 21.3572C26.5328 27.7852 21.3702 32.9949 15.0003 32.9949ZM15.0003 11.2228C9.45236 11.2228 4.9575 15.7587 4.9575 21.3572C4.9575 26.9558 9.45236 31.4916 15.0003 31.4916C20.5483 31.4916 25.0431 26.9558 25.0431 21.3572C25.0431 15.7587 20.5483 11.2228 15.0003 11.2228Z" fill="#231F20"/>
<path d="M14.9997 11.223C14.5888 11.223 14.2549 10.8861 14.2549 10.4714V0.751658C14.2549 0.33695 14.5888 0 14.9997 0C15.4107 0 15.7446 0.33695 15.7446 0.751658V10.4714C15.7446 10.8861 15.4107 11.223 14.9997 11.223Z" fill="#231F20"/>
<path d="M7.243 14.5407C7.06321 14.5407 6.85773 14.4629 6.70362 14.3333L3.05636 10.6528C2.92794 10.5232 2.8252 10.3159 2.8252 10.1085V0.751658C2.8252 0.33695 3.1591 0 3.57006 0C3.98102 0 4.31492 0.33695 4.31492 0.751658V9.82339L7.73102 13.2706C8.01355 13.5558 8.01355 14.0482 7.73102 14.3333C7.57691 14.4888 7.39711 14.5407 7.19163 14.5407H7.243Z" fill="#231F20"/>
<path d="M22.7571 14.5407C22.5773 14.5407 22.3719 14.4629 22.2178 14.3333C21.9352 14.0482 21.9352 13.5558 22.2178 13.2706L25.6339 9.82339V0.751658C25.6339 0.33695 25.9678 0 26.3787 0C26.7897 0 27.1236 0.33695 27.1236 0.751658V10.1344C27.1236 10.3418 27.0465 10.5232 26.9181 10.6787L23.2708 14.3593C23.1167 14.5148 22.9369 14.5666 22.7315 14.5666L22.7571 14.5407Z" fill="#231F20"/>
<path d="M14.9997 37.2198C14.5888 37.2198 14.2549 36.8829 14.2549 36.4682V32.2434C14.2549 31.8286 14.5888 31.4917 14.9997 31.4917C15.4107 31.4917 15.7446 31.8286 15.7446 32.2434V36.4682C15.7446 36.8829 15.4107 37.2198 14.9997 37.2198Z" fill="#231F20"/>
<path d="M3.59545 37.22C3.18449 37.22 2.85059 36.8831 2.85059 36.4684V32.6064C2.85059 32.399 2.92764 32.2176 3.08175 32.0621L6.72901 28.3816C7.01154 28.0964 7.49956 28.0964 7.78209 28.3816C8.06463 28.6667 8.06463 29.1591 7.78209 29.4442L4.366 32.8915V36.4424C4.366 36.8571 4.03209 37.1941 3.62113 37.1941L3.59545 37.22Z" fill="#231F20"/>
<path d="M26.3787 37.22C25.9678 37.22 25.6339 36.883 25.6339 36.4683V32.9174L22.2178 29.4701C21.9352 29.185 21.9352 28.6925 22.2178 28.4074C22.5003 28.1223 22.9883 28.1223 23.2708 28.4074L26.9181 32.088C27.0465 32.2176 27.1236 32.4249 27.1236 32.6323V36.4942C27.1236 36.9089 26.7897 37.2459 26.3787 37.2459V37.22Z" fill="#231F20"/>
<path d="M6.42123 42.9998H0.744863C0.333904 42.9998 0 42.6628 0 42.2481V36.52C0 36.1053 0.333904 35.7683 0.744863 35.7683H6.42123C6.83219 35.7683 7.1661 36.1053 7.1661 36.52V42.2481C7.1661 42.6628 6.83219 42.9998 6.42123 42.9998ZM1.48973 41.4965H5.67637V37.2716H1.48973V41.4965Z" fill="#231F20"/>
<path d="M17.8509 42.9998H12.1746C11.7636 42.9998 11.4297 42.6628 11.4297 42.2481V36.52C11.4297 36.1053 11.7636 35.7683 12.1746 35.7683H17.8509C18.2619 35.7683 18.5958 36.1053 18.5958 36.52V42.2481C18.5958 42.6628 18.2619 42.9998 17.8509 42.9998ZM12.8937 41.4965H17.0804V37.2716H12.8937V41.4965Z" fill="#231F20"/>
<path d="M29.2552 42.9998H23.5788C23.1679 42.9998 22.834 42.6628 22.834 42.2481V36.52C22.834 36.1053 23.1679 35.7683 23.5788 35.7683H29.2552C29.6662 35.7683 30.0001 36.1053 30.0001 36.52V42.2481C30.0001 42.6628 29.6662 42.9998 29.2552 42.9998ZM24.298 41.4965H28.4847V37.2716H24.298V41.4965Z" fill="#231F20"/>
<path d="M1.23273 3.91369C1.05294 3.91369 0.847456 3.83593 0.693346 3.70634C0.410812 3.42123 0.410812 2.92876 0.693346 2.64365L3.08204 0.207242C3.36458 -0.0778697 3.85259 -0.0778697 4.13513 0.207242C4.41766 0.492353 4.41766 0.984819 4.13513 1.26993L1.74643 3.68042C1.59232 3.83593 1.41252 3.88777 1.20704 3.88777L1.23273 3.91369Z" fill="#231F20"/>
<path d="M5.98471 3.91365C5.80491 3.91365 5.59943 3.83589 5.44533 3.7063L3.05663 1.29581C2.77409 1.0107 2.77409 0.518232 3.05663 0.233121C3.33916 -0.0519908 3.82718 -0.0519908 4.10971 0.233121L6.49841 2.64361C6.78094 2.92872 6.78094 3.42119 6.49841 3.7063C6.3443 3.86181 6.1645 3.91365 5.95902 3.91365H5.98471Z" fill="#231F20"/>
<path d="M12.6116 3.91365C12.4318 3.91365 12.2264 3.83589 12.0723 3.7063C11.7897 3.42119 11.7897 2.92872 12.0723 2.64361L14.461 0.233121C14.7435 -0.0519908 15.2315 -0.0519908 15.514 0.233121C15.7966 0.518232 15.7966 1.0107 15.514 1.29581L13.1253 3.7063C12.9712 3.86181 12.7914 3.91365 12.586 3.91365H12.6116Z" fill="#231F20"/>
<path d="M17.3636 3.91365C17.1838 3.91365 16.9783 3.83589 16.8242 3.7063L14.4355 1.29581C14.153 1.0107 14.153 0.518232 14.4355 0.233121C14.7181 -0.0519908 15.2061 -0.0519908 15.4886 0.233121L17.8773 2.64361C18.1598 2.92872 18.1598 3.42119 17.8773 3.7063C17.7232 3.86181 17.5434 3.91365 17.3379 3.91365H17.3636Z" fill="#231F20"/>
<path d="M24.015 3.91365C23.8352 3.91365 23.6297 3.83589 23.4756 3.7063C23.193 3.42119 23.193 2.92872 23.4756 2.64361L25.8643 0.233121C26.1468 -0.0519908 26.6348 -0.0519908 26.9174 0.233121C27.1999 0.518232 27.1999 1.0107 26.9174 1.29581L24.5287 3.7063C24.3745 3.86181 24.1948 3.91365 23.9893 3.91365H24.015Z" fill="#231F20"/>
<path d="M28.7669 3.91365C28.5871 3.91365 28.3817 3.83589 28.2276 3.7063L25.8389 1.29581C25.5563 1.0107 25.5563 0.518232 25.8389 0.233121C26.1214 -0.0519908 26.6094 -0.0519908 26.8919 0.233121L29.2806 2.64361C29.5632 2.92872 29.5632 3.42119 29.2806 3.7063C29.1265 3.86181 28.9467 3.91365 28.7412 3.91365H28.7669Z" fill="#231F20"/>
<path d="M15.0249 28.6926C15.0249 28.6926 14.768 28.6667 14.6653 28.5889L8.98892 25.3231C8.75776 25.1935 8.60365 24.9343 8.60365 24.6751V18.0916C8.55228 17.8325 8.70639 17.5733 8.93755 17.4437L14.5626 14.126C14.7937 13.9964 15.0763 13.9964 15.3074 14.126L20.9838 17.3918C21.215 17.5214 21.3691 17.7806 21.3691 18.0398L21.4204 24.6233C21.4204 24.8825 21.292 25.1417 21.0608 25.2713L15.4358 28.5889C15.4358 28.5889 15.179 28.6926 15.0506 28.6926H15.0249ZM10.0934 24.2604L15.0249 27.0856L19.905 24.2086V18.5064L14.9478 15.6812L10.0677 18.5582V24.2604H10.0934Z" fill="#231F20"/>
<path d="M14.9996 22.1092C14.9996 22.1092 14.7427 22.0833 14.64 22.0055L8.96361 18.7397C8.60402 18.5323 8.47559 18.0658 8.68107 17.7029C8.88655 17.34 9.34888 17.2105 9.70847 17.4178L15.3848 20.6836C15.7444 20.891 15.8729 21.3575 15.6674 21.7204C15.5389 21.9537 15.2821 22.1092 15.0252 22.1092H14.9996Z" fill="#231F20"/>
<path d="M14.9999 22.1091C14.743 22.1091 14.4862 21.9796 14.3577 21.7463C14.1523 21.3834 14.2807 20.9169 14.6146 20.7095L20.2396 17.3919C20.5992 17.1845 21.0615 17.3141 21.267 17.651C21.4725 18.0139 21.344 18.4805 21.0101 18.6878L15.3851 22.0055C15.3851 22.0055 15.1283 22.1091 14.9999 22.1091Z" fill="#231F20"/>
<path d="M15.0255 28.6925C14.6145 28.6925 14.2806 28.3556 14.2806 27.9409V21.3574C14.2293 20.9427 14.5632 20.6057 14.9741 20.6057C15.3594 20.6057 15.719 20.9427 15.719 21.3574L15.7703 27.9409C15.7703 28.3556 15.4364 28.6925 15.0255 28.6925Z" fill="#231F20"/>
</g>
<defs>
<clipPath id="clip0_2312_1080">
<rect width="30" height="43" fill="white"/>
</clipPath>
</defs>
</svg>
