<svg width="1000" height="721" xmlns="http://www.w3.org/2000/svg" xmlns:xlink="http://www.w3.org/1999/xlink" xml:space="preserve" overflow="hidden"><defs><clipPath id="clip0"><rect x="0" y="-1" width="1000" height="721"/></clipPath><clipPath id="clip1"><rect x="0" y="-1" width="1000" height="721"/></clipPath><clipPath id="clip2"><rect x="-5" y="-3" width="1007" height="722"/></clipPath><linearGradient x1="521.618" y1="259.431" x2="521.618" y2="1302.66" gradientUnits="userSpaceOnUse" spreadMethod="pad" id="fill3"><stop offset="0" stop-color="#F4E6E5" stop-opacity="1"/><stop offset="0.5" stop-color="#695493" stop-opacity="1"/><stop offset="1" stop-color="#232886" stop-opacity="1"/></linearGradient><linearGradient x1="504.816" y1="259.162" x2="544.442" y2="1290.67" gradientUnits="userSpaceOnUse" spreadMethod="pad" id="fill4"><stop offset="0" stop-color="#EBDDDD" stop-opacity="1"/><stop offset="0.5" stop-color="#65518E" stop-opacity="1"/><stop offset="1" stop-color="#222781" stop-opacity="1"/></linearGradient><linearGradient x1="479.62" y1="261.309" x2="561.912" y2="1288.59" gradientUnits="userSpaceOnUse" spreadMethod="pad" id="fill5"><stop offset="0" stop-color="#E2D5D4" stop-opacity="1"/><stop offset="0.5" stop-color="#614E88" stop-opacity="1"/><stop offset="1" stop-color="#20257C" stop-opacity="1"/></linearGradient><linearGradient x1="454.726" y1="264.084" x2="582.04" y2="1283.32" gradientUnits="userSpaceOnUse" spreadMethod="pad" id="fill6"><stop offset="0" stop-color="#D9CCCC" stop-opacity="1"/><stop offset="0.5" stop-color="#5D4B83" stop-opacity="1"/><stop offset="1" stop-color="#1F2477" stop-opacity="1"/></linearGradient><linearGradient x1="438.535" y1="265.823" x2="611.483" y2="1260.86" gradientUnits="userSpaceOnUse" spreadMethod="pad" id="fill7"><stop offset="0" stop-color="#D0C4C3" stop-opacity="1"/><stop offset="0.5" stop-color="#59487D" stop-opacity="1"/><stop offset="1" stop-color="#1E2272" stop-opacity="1"/></linearGradient><linearGradient x1="406.2" y1="272.922" x2="630.99" y2="1261.54" gradientUnits="userSpaceOnUse" spreadMethod="pad" id="fill8"><stop offset="0" stop-color="#C7BBBB" stop-opacity="1"/><stop offset="0.5" stop-color="#564478" stop-opacity="1"/><stop offset="1" stop-color="#1D216D" stop-opacity="1"/></linearGradient><linearGradient x1="383.15" y1="278.785" x2="658.579" y2="1243.13" gradientUnits="userSpaceOnUse" spreadMethod="pad" id="fill9"><stop offset="0" stop-color="#BEB3B2" stop-opacity="1"/><stop offset="0.5" stop-color="#524172" stop-opacity="1"/><stop offset="1" stop-color="#1B1F68" stop-opacity="1"/></linearGradient><linearGradient x1="361.224" y1="285.861" x2="687.787" y2="1218.9" gradientUnits="userSpaceOnUse" spreadMethod="pad" id="fill10"><stop offset="0" stop-color="#B5AAAA" stop-opacity="1"/><stop offset="0.5" stop-color="#4E3E6D" stop-opacity="1"/><stop offset="1" stop-color="#1A1E63" stop-opacity="1"/></linearGradient><linearGradient x1="332.862" y1="296.882" x2="714.268" y2="1202.88" gradientUnits="userSpaceOnUse" spreadMethod="pad" id="fill11"><stop offset="0" stop-color="#ACA2A1" stop-opacity="1"/><stop offset="0.5" stop-color="#4A3B67" stop-opacity="1"/><stop offset="1" stop-color="#191C5E" stop-opacity="1"/></linearGradient><linearGradient x1="298.649" y1="312.562" x2="739.813" y2="1195.09" gradientUnits="userSpaceOnUse" spreadMethod="pad" id="fill12"><stop offset="0" stop-color="#A39999" stop-opacity="1"/><stop offset="0.5" stop-color="#463862" stop-opacity="1"/><stop offset="1" stop-color="#171B59" stop-opacity="1"/></linearGradient><linearGradient x1="275.176" y1="326.392" x2="768.515" y2="1164.92" gradientUnits="userSpaceOnUse" spreadMethod="pad" id="fill13"><stop offset="0" stop-color="#9A9190" stop-opacity="1"/><stop offset="0.5" stop-color="#42355D" stop-opacity="1"/><stop offset="1" stop-color="#161954" stop-opacity="1"/></linearGradient><linearGradient x1="247.197" y1="344.752" x2="795.412" y2="1142.11" gradientUnits="userSpaceOnUse" spreadMethod="pad" id="fill14"><stop offset="0" stop-color="#918888" stop-opacity="1"/><stop offset="0.5" stop-color="#3E3257" stop-opacity="1"/><stop offset="1" stop-color="#15184F" stop-opacity="1"/></linearGradient><linearGradient x1="223.047" y1="363.804" x2="821.026" y2="1111.54" gradientUnits="userSpaceOnUse" spreadMethod="pad" id="fill15"><stop offset="0" stop-color="#88807F" stop-opacity="1"/><stop offset="0.5" stop-color="#3A2F52" stop-opacity="1"/><stop offset="1" stop-color="#13164A" stop-opacity="1"/></linearGradient><linearGradient x1="195.866" y1="387.812" x2="846.124" y2="1088.06" gradientUnits="userSpaceOnUse" spreadMethod="pad" id="fill16"><stop offset="0" stop-color="#7F7777" stop-opacity="1"/><stop offset="0.5" stop-color="#362C4C" stop-opacity="1"/><stop offset="1" stop-color="#121545" stop-opacity="1"/></linearGradient><linearGradient x1="173.633" y1="411.705" x2="868.745" y2="1057.19" gradientUnits="userSpaceOnUse" spreadMethod="pad" id="fill17"><stop offset="0" stop-color="#756F6E" stop-opacity="1"/><stop offset="0.5" stop-color="#332847" stop-opacity="1"/><stop offset="1" stop-color="#111341" stop-opacity="1"/></linearGradient><linearGradient x1="156.145" y1="434.759" x2="887.541" y2="1019.67" gradientUnits="userSpaceOnUse" spreadMethod="pad" id="fill18"><stop offset="0" stop-color="#6C6666" stop-opacity="1"/><stop offset="0.5" stop-color="#2F2541" stop-opacity="1"/><stop offset="1" stop-color="#10123C" stop-opacity="1"/></linearGradient><linearGradient x1="137.287" y1="461.753" x2="905.821" y2="990.149" gradientUnits="userSpaceOnUse" spreadMethod="pad" id="fill19"><stop offset="0" stop-color="#635E5D" stop-opacity="1"/><stop offset="0.5" stop-color="#2B223C" stop-opacity="1"/><stop offset="1" stop-color="#0E1037" stop-opacity="1"/></linearGradient><linearGradient x1="123.391" y1="486.912" x2="919.784" y2="955.462" gradientUnits="userSpaceOnUse" spreadMethod="pad" id="fill20"><stop offset="0" stop-color="#5A5555" stop-opacity="1"/><stop offset="0.5" stop-color="#271F36" stop-opacity="1"/><stop offset="1" stop-color="#0D0F32" stop-opacity="1"/></linearGradient><linearGradient x1="109.119" y1="515.959" x2="935.022" y2="928.819" gradientUnits="userSpaceOnUse" spreadMethod="pad" id="fill21"><stop offset="0" stop-color="#514D4C" stop-opacity="1"/><stop offset="0.5" stop-color="#231C31" stop-opacity="1"/><stop offset="1" stop-color="#0C0D2D" stop-opacity="1"/></linearGradient><linearGradient x1="103.377" y1="535.598" x2="938.833" y2="887.307" gradientUnits="userSpaceOnUse" spreadMethod="pad" id="fill22"><stop offset="0" stop-color="#484444" stop-opacity="1"/><stop offset="0.5" stop-color="#1F192C" stop-opacity="1"/><stop offset="1" stop-color="#0A0C28" stop-opacity="1"/></linearGradient><linearGradient x1="96.7232" y1="558.593" x2="944.516" y2="855.32" gradientUnits="userSpaceOnUse" spreadMethod="pad" id="fill23"><stop offset="0" stop-color="#3F3C3B" stop-opacity="1"/><stop offset="0.5" stop-color="#1B1626" stop-opacity="1"/><stop offset="1" stop-color="#090A23" stop-opacity="1"/></linearGradient><linearGradient x1="90.2476" y1="585.252" x2="953.652" y2="831.851" gradientUnits="userSpaceOnUse" spreadMethod="pad" id="fill24"><stop offset="0" stop-color="#363333" stop-opacity="1"/><stop offset="0.5" stop-color="#171321" stop-opacity="1"/><stop offset="1" stop-color="#08091E" stop-opacity="1"/></linearGradient><linearGradient x1="86.9207" y1="608.646" x2="959.074" y2="806.955" gradientUnits="userSpaceOnUse" spreadMethod="pad" id="fill25"><stop offset="0" stop-color="#2D2B2A" stop-opacity="1"/><stop offset="0.5" stop-color="#13101B" stop-opacity="1"/><stop offset="1" stop-color="#060719" stop-opacity="1"/></linearGradient><linearGradient x1="87.4464" y1="621.766" x2="952.367" y2="772.097" gradientUnits="userSpaceOnUse" spreadMethod="pad" id="fill26"><stop offset="0" stop-color="#242222" stop-opacity="1"/><stop offset="0.5" stop-color="#100C16" stop-opacity="1"/><stop offset="1" stop-color="#050614" stop-opacity="1"/></linearGradient><linearGradient x1="86.9476" y1="645.82" x2="959.854" y2="754.856" gradientUnits="userSpaceOnUse" spreadMethod="pad" id="fill27"><stop offset="0" stop-color="#1B1A19" stop-opacity="1"/><stop offset="0.5" stop-color="#0C0910" stop-opacity="1"/><stop offset="1" stop-color="#04040F" stop-opacity="1"/></linearGradient><linearGradient x1="88.6645" y1="659.82" x2="955.497" y2="729.26" gradientUnits="userSpaceOnUse" spreadMethod="pad" id="fill28"><stop offset="0" stop-color="#121111" stop-opacity="1"/><stop offset="0.5" stop-color="#08060B" stop-opacity="1"/><stop offset="1" stop-color="#03030A" stop-opacity="1"/></linearGradient><linearGradient x1="91.0338" y1="671.049" x2="948.582" y2="703.992" gradientUnits="userSpaceOnUse" spreadMethod="pad" id="fill29"><stop offset="0" stop-color="#090908" stop-opacity="1"/><stop offset="0.5" stop-color="#040305" stop-opacity="1"/><stop offset="1" stop-color="#010105" stop-opacity="1"/></linearGradient><linearGradient x1="521.618" y1="0" x2="521.618" y2="1043.24" gradientUnits="userSpaceOnUse" spreadMethod="pad" id="fill30"><stop offset="0" stop-color="#F4E6E5" stop-opacity="1"/><stop offset="0.5" stop-color="#695493" stop-opacity="1"/><stop offset="1" stop-color="#232886" stop-opacity="1"/></linearGradient><linearGradient x1="504.816" y1="0.728719" x2="544.443" y2="1032.24" gradientUnits="userSpaceOnUse" spreadMethod="pad" id="fill31"><stop offset="0" stop-color="#EBDDDD" stop-opacity="1"/><stop offset="0.5" stop-color="#65518E" stop-opacity="1"/><stop offset="1" stop-color="#222781" stop-opacity="1"/></linearGradient><linearGradient x1="479.605" y1="1.56325" x2="561.897" y2="1028.84" gradientUnits="userSpaceOnUse" spreadMethod="pad" id="fill32"><stop offset="0" stop-color="#E2D5D4" stop-opacity="1"/><stop offset="0.5" stop-color="#614E88" stop-opacity="1"/><stop offset="1" stop-color="#20257C" stop-opacity="1"/></linearGradient><linearGradient x1="454.748" y1="3.44765" x2="582.06" y2="1022.67" gradientUnits="userSpaceOnUse" spreadMethod="pad" id="fill33"><stop offset="0" stop-color="#D9CCCC" stop-opacity="1"/><stop offset="0.5" stop-color="#5D4B83" stop-opacity="1"/><stop offset="1" stop-color="#1F2477" stop-opacity="1"/></linearGradient><linearGradient x1="438.544" y1="7.79648" x2="611.492" y2="1002.84" gradientUnits="userSpaceOnUse" spreadMethod="pad" id="fill34"><stop offset="0" stop-color="#D0C4C3" stop-opacity="1"/><stop offset="0.5" stop-color="#59487D" stop-opacity="1"/><stop offset="1" stop-color="#1E2272" stop-opacity="1"/></linearGradient><linearGradient x1="406.183" y1="12.118" x2="630.974" y2="1000.74" gradientUnits="userSpaceOnUse" spreadMethod="pad" id="fill35"><stop offset="0" stop-color="#C7BBBB" stop-opacity="1"/><stop offset="0.5" stop-color="#564478" stop-opacity="1"/><stop offset="1" stop-color="#1D216D" stop-opacity="1"/></linearGradient><linearGradient x1="383.165" y1="19.0085" x2="658.595" y2="983.356" gradientUnits="userSpaceOnUse" spreadMethod="pad" id="fill36"><stop offset="0" stop-color="#BEB3B2" stop-opacity="1"/><stop offset="0.5" stop-color="#524172" stop-opacity="1"/><stop offset="1" stop-color="#1B1F68" stop-opacity="1"/></linearGradient><linearGradient x1="361.242" y1="28.0095" x2="687.805" y2="961.048" gradientUnits="userSpaceOnUse" spreadMethod="pad" id="fill37"><stop offset="0" stop-color="#B5AAAA" stop-opacity="1"/><stop offset="0.5" stop-color="#4E3E6D" stop-opacity="1"/><stop offset="1" stop-color="#1A1E63" stop-opacity="1"/></linearGradient><linearGradient x1="332.88" y1="38.6547" x2="714.286" y2="944.655" gradientUnits="userSpaceOnUse" spreadMethod="pad" id="fill38"><stop offset="0" stop-color="#ACA2A1" stop-opacity="1"/><stop offset="0.5" stop-color="#4A3B67" stop-opacity="1"/><stop offset="1" stop-color="#191C5E" stop-opacity="1"/></linearGradient><linearGradient x1="298.659" y1="51.5236" x2="739.823" y2="934.047" gradientUnits="userSpaceOnUse" spreadMethod="pad" id="fill39"><stop offset="0" stop-color="#A39999" stop-opacity="1"/><stop offset="0.5" stop-color="#463862" stop-opacity="1"/><stop offset="1" stop-color="#171B59" stop-opacity="1"/></linearGradient><linearGradient x1="275.171" y1="67.1304" x2="768.509" y2="905.655" gradientUnits="userSpaceOnUse" spreadMethod="pad" id="fill40"><stop offset="0" stop-color="#9A9190" stop-opacity="1"/><stop offset="0.5" stop-color="#42355D" stop-opacity="1"/><stop offset="1" stop-color="#161954" stop-opacity="1"/></linearGradient><linearGradient x1="247.183" y1="85.0128" x2="795.398" y2="882.373" gradientUnits="userSpaceOnUse" spreadMethod="pad" id="fill41"><stop offset="0" stop-color="#918888" stop-opacity="1"/><stop offset="0.5" stop-color="#3E3257" stop-opacity="1"/><stop offset="1" stop-color="#15184F" stop-opacity="1"/></linearGradient><linearGradient x1="223.068" y1="104.912" x2="821.044" y2="852.643" gradientUnits="userSpaceOnUse" spreadMethod="pad" id="fill42"><stop offset="0" stop-color="#88807F" stop-opacity="1"/><stop offset="0.5" stop-color="#3A2F52" stop-opacity="1"/><stop offset="1" stop-color="#13164A" stop-opacity="1"/></linearGradient><linearGradient x1="195.867" y1="127.499" x2="846.126" y2="827.751" gradientUnits="userSpaceOnUse" spreadMethod="pad" id="fill43"><stop offset="0" stop-color="#7F7777" stop-opacity="1"/><stop offset="0.5" stop-color="#362C4C" stop-opacity="1"/><stop offset="1" stop-color="#121545" stop-opacity="1"/></linearGradient><linearGradient x1="173.628" y1="151.394" x2="868.74" y2="796.88" gradientUnits="userSpaceOnUse" spreadMethod="pad" id="fill44"><stop offset="0" stop-color="#756F6E" stop-opacity="1"/><stop offset="0.5" stop-color="#332847" stop-opacity="1"/><stop offset="1" stop-color="#111341" stop-opacity="1"/></linearGradient><linearGradient x1="156.124" y1="175.867" x2="887.516" y2="760.776" gradientUnits="userSpaceOnUse" spreadMethod="pad" id="fill45"><stop offset="0" stop-color="#6C6666" stop-opacity="1"/><stop offset="0.5" stop-color="#2F2541" stop-opacity="1"/><stop offset="1" stop-color="#10123C" stop-opacity="1"/></linearGradient><linearGradient x1="137.296" y1="202.01" x2="905.831" y2="730.406" gradientUnits="userSpaceOnUse" spreadMethod="pad" id="fill46"><stop offset="0" stop-color="#635E5D" stop-opacity="1"/><stop offset="0.5" stop-color="#2B223C" stop-opacity="1"/><stop offset="1" stop-color="#0E1037" stop-opacity="1"/></linearGradient><linearGradient x1="123.396" y1="227.651" x2="919.79" y2="696.201" gradientUnits="userSpaceOnUse" spreadMethod="pad" id="fill47"><stop offset="0" stop-color="#5A5555" stop-opacity="1"/><stop offset="0.5" stop-color="#271F36" stop-opacity="1"/><stop offset="1" stop-color="#0D0F32" stop-opacity="1"/></linearGradient><linearGradient x1="109.111" y1="254.916" x2="935.015" y2="667.776" gradientUnits="userSpaceOnUse" spreadMethod="pad" id="fill48"><stop offset="0" stop-color="#514D4C" stop-opacity="1"/><stop offset="0.5" stop-color="#231C31" stop-opacity="1"/><stop offset="1" stop-color="#0C0D2D" stop-opacity="1"/></linearGradient><linearGradient x1="103.359" y1="277.371" x2="938.815" y2="629.08" gradientUnits="userSpaceOnUse" spreadMethod="pad" id="fill49"><stop offset="0" stop-color="#484444" stop-opacity="1"/><stop offset="0.5" stop-color="#1F192C" stop-opacity="1"/><stop offset="1" stop-color="#0A0C28" stop-opacity="1"/></linearGradient><linearGradient x1="96.7038" y1="300.747" x2="944.497" y2="597.474" gradientUnits="userSpaceOnUse" spreadMethod="pad" id="fill50"><stop offset="0" stop-color="#3F3C3B" stop-opacity="1"/><stop offset="0.5" stop-color="#1B1626" stop-opacity="1"/><stop offset="1" stop-color="#090A23" stop-opacity="1"/></linearGradient><linearGradient x1="90.2327" y1="325.475" x2="953.637" y2="572.075" gradientUnits="userSpaceOnUse" spreadMethod="pad" id="fill51"><stop offset="0" stop-color="#363333" stop-opacity="1"/><stop offset="0.5" stop-color="#171321" stop-opacity="1"/><stop offset="1" stop-color="#08091E" stop-opacity="1"/></linearGradient><linearGradient x1="86.9432" y1="347.843" x2="959.096" y2="546.152" gradientUnits="userSpaceOnUse" spreadMethod="pad" id="fill52"><stop offset="0" stop-color="#2D2B2A" stop-opacity="1"/><stop offset="0.5" stop-color="#13101B" stop-opacity="1"/><stop offset="1" stop-color="#060719" stop-opacity="1"/></linearGradient><linearGradient x1="87.4372" y1="363.74" x2="952.358" y2="514.071" gradientUnits="userSpaceOnUse" spreadMethod="pad" id="fill53"><stop offset="0" stop-color="#242222" stop-opacity="1"/><stop offset="0.5" stop-color="#100C16" stop-opacity="1"/><stop offset="1" stop-color="#050614" stop-opacity="1"/></linearGradient><linearGradient x1="86.9328" y1="385.179" x2="959.839" y2="494.214" gradientUnits="userSpaceOnUse" spreadMethod="pad" id="fill54"><stop offset="0" stop-color="#1B1A19" stop-opacity="1"/><stop offset="0.5" stop-color="#0C0910" stop-opacity="1"/><stop offset="1" stop-color="#04040F" stop-opacity="1"/></linearGradient><linearGradient x1="88.6855" y1="400.075" x2="955.518" y2="469.514" gradientUnits="userSpaceOnUse" spreadMethod="pad" id="fill55"><stop offset="0" stop-color="#121111" stop-opacity="1"/><stop offset="0.5" stop-color="#08060B" stop-opacity="1"/><stop offset="1" stop-color="#03030A" stop-opacity="1"/></linearGradient><linearGradient x1="91.0327" y1="412.621" x2="948.581" y2="445.565" gradientUnits="userSpaceOnUse" spreadMethod="pad" id="fill56"><stop offset="0" stop-color="#090908" stop-opacity="1"/><stop offset="0.5" stop-color="#040305" stop-opacity="1"/><stop offset="1" stop-color="#010105" stop-opacity="1"/></linearGradient><linearGradient x1="521.618" y1="235.972" x2="521.618" y2="750.747" gradientUnits="userSpaceOnUse" spreadMethod="pad" id="fill57"><stop offset="0" stop-color="#F4E6E5" stop-opacity="1"/><stop offset="0.5" stop-color="#695493" stop-opacity="1"/><stop offset="1" stop-color="#232886" stop-opacity="1"/></linearGradient><linearGradient x1="514.854" y1="235.601" x2="534.407" y2="744.592" gradientUnits="userSpaceOnUse" spreadMethod="pad" id="fill58"><stop offset="0" stop-color="#EBDDDD" stop-opacity="1"/><stop offset="0.5" stop-color="#65518E" stop-opacity="1"/><stop offset="1" stop-color="#222781" stop-opacity="1"/></linearGradient><linearGradient x1="500.441" y1="237.001" x2="541.047" y2="743.904" gradientUnits="userSpaceOnUse" spreadMethod="pad" id="fill59"><stop offset="0" stop-color="#E2D5D4" stop-opacity="1"/><stop offset="0.5" stop-color="#614E88" stop-opacity="1"/><stop offset="1" stop-color="#20257C" stop-opacity="1"/></linearGradient><linearGradient x1="486.992" y1="238.54" x2="549.813" y2="741.47" gradientUnits="userSpaceOnUse" spreadMethod="pad" id="fill60"><stop offset="0" stop-color="#D9CCCC" stop-opacity="1"/><stop offset="0.5" stop-color="#5D4B83" stop-opacity="1"/><stop offset="1" stop-color="#1F2477" stop-opacity="1"/></linearGradient><linearGradient x1="482.351" y1="238.759" x2="567.69" y2="729.754" gradientUnits="userSpaceOnUse" spreadMethod="pad" id="fill61"><stop offset="0" stop-color="#D0C4C3" stop-opacity="1"/><stop offset="0.5" stop-color="#59487D" stop-opacity="1"/><stop offset="1" stop-color="#1E2272" stop-opacity="1"/></linearGradient><linearGradient x1="463.117" y1="243.006" x2="574.037" y2="730.83" gradientUnits="userSpaceOnUse" spreadMethod="pad" id="fill62"><stop offset="0" stop-color="#C7BBBB" stop-opacity="1"/><stop offset="0.5" stop-color="#564478" stop-opacity="1"/><stop offset="1" stop-color="#1D216D" stop-opacity="1"/></linearGradient><linearGradient x1="452.926" y1="245.594" x2="588.835" y2="721.447" gradientUnits="userSpaceOnUse" spreadMethod="pad" id="fill63"><stop offset="0" stop-color="#BEB3B2" stop-opacity="1"/><stop offset="0.5" stop-color="#524172" stop-opacity="1"/><stop offset="1" stop-color="#1B1F68" stop-opacity="1"/></linearGradient><linearGradient x1="443.955" y1="248.563" x2="605.095" y2="708.963" gradientUnits="userSpaceOnUse" spreadMethod="pad" id="fill64"><stop offset="0" stop-color="#B5AAAA" stop-opacity="1"/><stop offset="0.5" stop-color="#4E3E6D" stop-opacity="1"/><stop offset="1" stop-color="#1A1E63" stop-opacity="1"/></linearGradient><linearGradient x1="429.483" y1="254.1" x2="617.684" y2="701.155" gradientUnits="userSpaceOnUse" spreadMethod="pad" id="fill65"><stop offset="0" stop-color="#ACA2A1" stop-opacity="1"/><stop offset="0.5" stop-color="#4A3B67" stop-opacity="1"/><stop offset="1" stop-color="#191C5E" stop-opacity="1"/></linearGradient><linearGradient x1="410.393" y1="262.647" x2="628.082" y2="698.121" gradientUnits="userSpaceOnUse" spreadMethod="pad" id="fill66"><stop offset="0" stop-color="#A39999" stop-opacity="1"/><stop offset="0.5" stop-color="#463862" stop-opacity="1"/><stop offset="1" stop-color="#171B59" stop-opacity="1"/></linearGradient><linearGradient x1="400.122" y1="268.964" x2="643.556" y2="682.729" gradientUnits="userSpaceOnUse" spreadMethod="pad" id="fill67"><stop offset="0" stop-color="#9A9190" stop-opacity="1"/><stop offset="0.5" stop-color="#42355D" stop-opacity="1"/><stop offset="1" stop-color="#161954" stop-opacity="1"/></linearGradient><linearGradient x1="386.036" y1="278.174" x2="656.547" y2="671.623" gradientUnits="userSpaceOnUse" spreadMethod="pad" id="fill68"><stop offset="0" stop-color="#918888" stop-opacity="1"/><stop offset="0.5" stop-color="#3E3257" stop-opacity="1"/><stop offset="1" stop-color="#15184F" stop-opacity="1"/></linearGradient><linearGradient x1="374.524" y1="287.297" x2="669.592" y2="656.262" gradientUnits="userSpaceOnUse" spreadMethod="pad" id="fill69"><stop offset="0" stop-color="#88807F" stop-opacity="1"/><stop offset="0.5" stop-color="#3A2F52" stop-opacity="1"/><stop offset="1" stop-color="#13164A" stop-opacity="1"/></linearGradient><linearGradient x1="360.567" y1="299.599" x2="681.432" y2="645.132" gradientUnits="userSpaceOnUse" spreadMethod="pad" id="fill70"><stop offset="0" stop-color="#7F7777" stop-opacity="1"/><stop offset="0.5" stop-color="#362C4C" stop-opacity="1"/><stop offset="1" stop-color="#121545" stop-opacity="1"/></linearGradient><linearGradient x1="349.685" y1="311.397" x2="692.683" y2="629.908" gradientUnits="userSpaceOnUse" spreadMethod="pad" id="fill71"><stop offset="0" stop-color="#756F6E" stop-opacity="1"/><stop offset="0.5" stop-color="#332847" stop-opacity="1"/><stop offset="1" stop-color="#111341" stop-opacity="1"/></linearGradient><linearGradient x1="341.372" y1="322.313" x2="702.272" y2="610.932" gradientUnits="userSpaceOnUse" spreadMethod="pad" id="fill72"><stop offset="0" stop-color="#6C6666" stop-opacity="1"/><stop offset="0.5" stop-color="#2F2541" stop-opacity="1"/><stop offset="1" stop-color="#10123C" stop-opacity="1"/></linearGradient><linearGradient x1="331.95" y1="335.91" x2="711.179" y2="596.645" gradientUnits="userSpaceOnUse" spreadMethod="pad" id="fill73"><stop offset="0" stop-color="#635E5D" stop-opacity="1"/><stop offset="0.5" stop-color="#2B223C" stop-opacity="1"/><stop offset="1" stop-color="#0E1037" stop-opacity="1"/></linearGradient><linearGradient x1="325.105" y1="348.162" x2="718.082" y2="579.366" gradientUnits="userSpaceOnUse" spreadMethod="pad" id="fill74"><stop offset="0" stop-color="#5A5555" stop-opacity="1"/><stop offset="0.5" stop-color="#271F36" stop-opacity="1"/><stop offset="1" stop-color="#0D0F32" stop-opacity="1"/></linearGradient><linearGradient x1="318.296" y1="363.119" x2="725.831" y2="566.841" gradientUnits="userSpaceOnUse" spreadMethod="pad" id="fill75"><stop offset="0" stop-color="#514D4C" stop-opacity="1"/><stop offset="0.5" stop-color="#231C31" stop-opacity="1"/><stop offset="1" stop-color="#0C0D2D" stop-opacity="1"/></linearGradient><linearGradient x1="314.965" y1="371.81" x2="727.211" y2="545.356" gradientUnits="userSpaceOnUse" spreadMethod="pad" id="fill76"><stop offset="0" stop-color="#484444" stop-opacity="1"/><stop offset="0.5" stop-color="#1F192C" stop-opacity="1"/><stop offset="1" stop-color="#0A0C28" stop-opacity="1"/></linearGradient><linearGradient x1="311.434" y1="383.005" x2="729.77" y2="529.423" gradientUnits="userSpaceOnUse" spreadMethod="pad" id="fill77"><stop offset="0" stop-color="#3F3C3B" stop-opacity="1"/><stop offset="0.5" stop-color="#1B1626" stop-opacity="1"/><stop offset="1" stop-color="#090A23" stop-opacity="1"/></linearGradient><linearGradient x1="308.913" y1="396.87" x2="734.957" y2="518.553" gradientUnits="userSpaceOnUse" spreadMethod="pad" id="fill78"><stop offset="0" stop-color="#363333" stop-opacity="1"/><stop offset="0.5" stop-color="#171321" stop-opacity="1"/><stop offset="1" stop-color="#08091E" stop-opacity="1"/></linearGradient><linearGradient x1="307.84" y1="408.82" x2="738.195" y2="506.674" gradientUnits="userSpaceOnUse" spreadMethod="pad" id="fill79"><stop offset="0" stop-color="#2D2B2A" stop-opacity="1"/><stop offset="0.5" stop-color="#13101B" stop-opacity="1"/><stop offset="1" stop-color="#060719" stop-opacity="1"/></linearGradient><linearGradient x1="306.503" y1="414.21" x2="733.29" y2="488.39" gradientUnits="userSpaceOnUse" spreadMethod="pad" id="fill80"><stop offset="0" stop-color="#242222" stop-opacity="1"/><stop offset="0.5" stop-color="#100C16" stop-opacity="1"/><stop offset="1" stop-color="#050614" stop-opacity="1"/></linearGradient><linearGradient x1="308.021" y1="427.098" x2="738.748" y2="480.901" gradientUnits="userSpaceOnUse" spreadMethod="pad" id="fill81"><stop offset="0" stop-color="#1B1A19" stop-opacity="1"/><stop offset="0.5" stop-color="#0C0910" stop-opacity="1"/><stop offset="1" stop-color="#04040F" stop-opacity="1"/></linearGradient><linearGradient x1="308.235" y1="433.682" x2="735.967" y2="467.946" gradientUnits="userSpaceOnUse" spreadMethod="pad" id="fill82"><stop offset="0" stop-color="#121111" stop-opacity="1"/><stop offset="0.5" stop-color="#08060B" stop-opacity="1"/><stop offset="1" stop-color="#03030A" stop-opacity="1"/></linearGradient><linearGradient x1="308.23" y1="438.67" x2="731.382" y2="454.925" gradientUnits="userSpaceOnUse" spreadMethod="pad" id="fill83"><stop offset="0" stop-color="#090908" stop-opacity="1"/><stop offset="0.5" stop-color="#040305" stop-opacity="1"/><stop offset="1" stop-color="#010105" stop-opacity="1"/></linearGradient></defs><g clip-path="url(#clip0)" transform="matrix(1 0 0 1 0 1)"><g clip-path="url(#clip1)"><g clip-path="url(#clip2)"><path d="M1043.24 781.049C1043.24 1069.13 809.699 1302.67 521.618 1302.67 233.536 1302.67-1.9091e-05 1069.13-1.9091e-05 781.049-1.9091e-05 492.967 233.536 259.431 521.618 259.431 809.699 259.431 1043.24 492.967 1043.24 781.049Z" fill="url(#fill3)" fill-rule="nonzero" transform="matrix(6.12346e-17 1.00004 -1 6.12323e-17 1245 -163.624)"/><path d="M521.618 259.431C593.09 259.431 661.219 273.897 723.248 300.126 785.245 326.341 841.071 364.266 887.983 411.185 934.894 458.096 972.826 513.922 999.042 575.919 1025.27 637.949 1039.74 706.078 1039.74 777.549 1039.74 849.021 1025.27 917.15 999.042 979.18 972.826 1041.18 934.901 1097 887.983 1143.91 841.071 1190.83 785.239 1228.76 723.248 1254.97 661.219 1281.2 593.09 1295.67 521.618 1295.67 450.146 1295.67 382.017 1281.2 319.988 1254.97 257.991 1228.76 202.165 1190.83 155.253 1143.91 108.342 1097 70.4097 1041.18 44.1942 979.18 17.9657 917.15 3.4993 849.021 3.4993 777.549 3.4993 706.078 17.9657 637.949 44.1942 575.919 70.4097 513.922 108.335 458.096 155.253 411.185 202.165 364.273 257.997 326.341 319.988 300.126 382.017 273.897 450.146 259.431 521.618 259.431Z" fill="url(#fill4)" fill-rule="nonzero" transform="matrix(6.12346e-17 1.00004 -1 6.12323e-17 1245 -163.624)"/><path d="M521.618 259.431C592.562 259.431 660.222 273.773 721.886 299.852 783.453 325.885 838.888 363.543 885.513 410.161 932.131 456.78 969.789 512.221 995.823 573.788 1021.9 635.459 1036.24 703.113 1036.24 774.057 1036.24 845 1021.9 912.66 995.823 974.325 969.789 1035.89 932.131 1091.33 885.513 1137.95 838.895 1184.57 783.453 1222.23 721.886 1248.26 660.215 1274.34 592.562 1288.68 521.618 1288.68 450.674 1288.68 383.014 1274.34 321.35 1248.26 259.783 1222.23 204.348 1184.57 157.723 1137.95 111.105 1091.33 73.4463 1035.89 47.4133 974.325 21.3347 912.654 6.99209 845 6.99209 774.057 6.99209 703.113 21.3347 635.453 47.4133 573.788 73.4463 512.221 111.105 456.786 157.723 410.161 204.341 363.543 259.783 325.885 321.35 299.852 383.021 273.773 450.674 259.431 521.618 259.431Z" fill="url(#fill5)" fill-rule="nonzero" transform="matrix(6.12346e-17 1.00004 -1 6.12323e-17 1245 -163.624)"/><path d="M521.618 259.431C592.034 259.431 659.225 273.65 720.531 299.578 781.668 325.429 836.718 362.813 883.043 409.138 929.368 455.463 966.753 510.514 992.603 571.651 1018.53 632.957 1032.75 700.148 1032.75 770.564 1032.75 840.98 1018.53 908.17 992.603 969.477 966.753 1030.61 929.368 1085.66 883.043 1131.99 836.718 1178.31 781.668 1215.7 720.531 1241.55 659.225 1267.47 592.034 1281.7 521.618 1281.7 451.202 1281.7 384.011 1267.48 322.705 1241.55 261.568 1215.7 206.518 1178.31 160.193 1131.99 113.867 1085.66 76.4829 1030.61 50.6324 969.477 24.7102 908.17 10.4849 840.98 10.4849 770.564 10.4849 700.148 24.7037 632.957 50.6324 571.651 76.4829 510.514 113.867 455.463 160.193 409.138 206.518 362.813 261.568 325.429 322.705 299.578 384.011 273.656 451.202 259.431 521.618 259.431Z" fill="url(#fill6)" fill-rule="nonzero" transform="matrix(6.12346e-17 1.00004 -1 6.12323e-17 1245 -163.624)"/><path d="M521.618 259.431C591.506 259.431 658.228 273.532 719.169 299.298 779.882 324.973 834.535 362.077 880.573 408.109 926.605 454.141 963.716 508.8 989.384 569.513 1015.16 630.455 1029.25 697.176 1029.25 767.064 1029.25 836.953 1015.15 903.674 989.384 964.615 963.71 1025.33 926.605 1079.98 880.573 1126.01 834.542 1172.05 779.882 1209.16 719.169 1234.82 658.228 1260.6 591.506 1274.69 521.618 1274.69 451.73 1274.69 385.008 1260.59 324.067 1234.82 263.354 1209.15 208.694 1172.05 162.662 1126.01 116.63 1079.98 79.5196 1025.32 53.8515 964.615 28.0791 903.674 13.9842 836.953 13.9842 767.064 13.9842 697.176 28.0857 630.455 53.8515 569.513 79.5261 508.8 116.63 454.141 162.662 408.109 208.694 362.077 263.354 324.966 324.067 299.298 385.008 273.526 451.73 259.431 521.618 259.431Z" fill="url(#fill7)" fill-rule="nonzero" transform="matrix(6.12346e-17 1.00004 -1 6.12323e-17 1245 -163.624)"/><path d="M521.618 259.431C590.978 259.431 657.231 273.408 717.807 299.024 778.09 324.516 832.359 361.354 878.097 407.092 923.836 452.831 960.673 507.099 986.159 567.383 1011.77 627.965 1025.75 694.218 1025.75 763.572 1025.75 832.926 1011.77 899.184 986.159 959.761 960.667 1020.04 923.829 1074.31 878.097 1120.05 832.359 1165.79 778.09 1202.63 717.807 1228.11 657.224 1253.73 590.972 1267.71 521.618 1267.71 452.264 1267.71 386.005 1253.73 325.429 1228.11 265.146 1202.62 210.877 1165.78 165.138 1120.04 119.4 1074.31 82.5692 1020.04 57.0771 959.754 31.4612 899.171 17.4835 832.919 17.4835 763.565 17.4835 694.211 31.4612 627.952 57.0771 567.376 82.5692 507.093 119.406 452.824 165.145 407.086 210.884 361.347 265.152 324.51 325.435 299.024 386.018 273.408 452.27 259.431 521.624 259.431Z" fill="url(#fill8)" fill-rule="nonzero" transform="matrix(6.12346e-17 1.00004 -1 6.12323e-17 1245 -163.624)"/><path d="M521.618 259.431C590.444 259.431 656.227 273.285 716.452 298.751 776.305 324.06 830.189 360.624 875.628 406.069 921.073 451.515 957.63 505.392 982.946 565.245 1008.41 625.463 1022.27 691.246 1022.27 760.079 1022.27 828.912 1008.41 894.688 982.946 954.913 957.636 1014.77 921.073 1068.64 875.628 1114.09 830.182 1159.53 776.305 1196.09 716.452 1221.41 656.234 1246.87 590.451 1260.73 521.618 1260.73 452.785 1260.73 387.009 1246.87 326.784 1221.41 266.931 1196.1 213.047 1159.53 167.608 1114.09 122.163 1068.64 85.6059 1014.77 60.2897 954.913 34.8236 894.695 20.9698 828.912 20.9698 760.079 20.9698 691.246 34.8236 625.47 60.2897 565.245 85.5994 505.392 122.163 451.508 167.608 406.069 213.054 360.624 266.931 324.067 326.784 298.751 387.002 273.285 452.785 259.431 521.618 259.431Z" fill="url(#fill9)" fill-rule="nonzero" transform="matrix(6.12346e-17 1.00004 -1 6.12323e-17 1245 -163.624)"/><path d="M521.618 259.431C589.916 259.431 655.23 273.161 715.09 298.477 774.519 323.604 828.006 359.894 873.158 405.046 918.31 450.198 954.593 503.685 979.727 563.114 1005.04 622.974 1018.77 688.288 1018.77 756.586 1018.77 824.884 1005.04 890.198 979.727 950.058 954.6 1009.49 918.31 1062.97 873.158 1108.13 828.006 1153.28 774.519 1189.56 715.09 1214.7 655.23 1240 589.916 1253.74 521.618 1253.74 453.32 1253.74 388.006 1240.01 328.146 1214.7 268.717 1189.57 215.23 1153.28 170.078 1108.13 124.926 1062.97 88.6425 1009.49 63.5088 950.058 38.1991 890.198 24.4625 824.884 24.4625 756.586 24.4625 688.288 38.1926 622.974 63.5088 563.114 88.636 503.685 124.926 450.198 170.078 405.046 215.23 359.894 268.717 323.611 328.146 298.477 388.006 273.167 453.32 259.431 521.618 259.431Z" fill="url(#fill10)" fill-rule="nonzero" transform="matrix(6.12346e-17 1.00004 -1 6.12323e-17 1245 -163.624)"/><path d="M521.618 259.431C589.388 259.431 654.233 273.037 713.728 298.197 772.727 323.148 825.829 359.158 870.682 404.017 915.54 448.875 951.55 501.971 976.501 560.97 1001.66 620.465 1015.27 685.31 1015.27 753.08 1015.27 820.851 1001.66 885.695 976.501 945.19 951.55 1004.19 915.54 1057.29 870.682 1102.14 825.823 1147 772.727 1183.01 713.728 1207.96 654.233 1233.12 589.388 1246.73 521.618 1246.73 453.847 1246.73 389.003 1233.12 329.508 1207.96 270.509 1183.01 217.406 1147 172.554 1102.14 127.702 1057.29 91.6857 1004.19 66.7344 945.19 41.5746 885.695 27.9684 820.851 27.9684 753.08 27.9684 685.31 41.5746 620.465 66.7344 560.97 91.6857 501.971 127.695 448.869 172.554 404.017 217.413 359.158 270.509 323.148 329.508 298.197 389.003 273.037 453.847 259.431 521.618 259.431Z" fill="url(#fill11)" fill-rule="nonzero" transform="matrix(6.12346e-17 1.00004 -1 6.12323e-17 1245 -163.624)"/><path d="M521.618 259.431C588.861 259.431 653.236 272.92 712.372 297.923 770.942 322.692 823.653 358.434 868.218 402.993 912.778 447.553 948.52 500.264 973.289 558.84 998.292 617.969 1011.78 682.351 1011.78 749.594 1011.78 816.837 998.292 881.212 973.289 940.348 948.52 998.918 912.778 1051.63 868.218 1096.19 823.659 1140.75 770.948 1176.5 712.372 1201.26 653.243 1226.27 588.861 1239.76 521.618 1239.76 454.375 1239.76 390 1226.27 330.863 1201.26 272.294 1176.5 219.583 1140.75 175.017 1096.19 130.458 1051.64 94.7158 998.924 69.947 940.355 44.9436 881.225 31.4546 816.843 31.4546 749.6 31.4546 682.358 44.9436 617.982 69.947 558.846 94.7158 500.277 130.458 447.566 175.017 403 219.576 358.441 272.288 322.698 330.863 297.93 389.993 272.926 454.375 259.437 521.618 259.437Z" fill="url(#fill12)" fill-rule="nonzero" transform="matrix(6.12346e-17 1.00004 -1 6.12323e-17 1245 -163.624)"/><path d="M521.618 259.431C588.333 259.431 652.239 272.796 711.01 297.649 769.156 322.236 821.476 357.704 865.742 401.97 910.008 446.236 945.477 498.556 970.063 556.702 994.917 615.474 1008.28 679.38 1008.28 746.095 1008.28 812.81 994.917 876.716 970.063 935.487 945.477 993.627 910.008 1045.95 865.742 1090.22 821.476 1134.48 769.156 1169.95 711.01 1194.54 652.239 1219.39 588.333 1232.76 521.618 1232.76 454.903 1232.76 390.997 1219.39 332.225 1194.54 274.08 1169.95 221.759 1134.48 177.494 1090.22 133.228 1045.95 97.759 993.633 73.1726 935.487 48.3191 876.716 34.9539 812.81 34.9539 746.095 34.9539 679.38 48.3191 615.474 73.1726 556.702 97.759 498.556 133.228 446.236 177.494 401.97 221.759 357.704 274.08 322.236 332.225 297.649 390.997 272.796 454.903 259.431 521.618 259.431Z" fill="url(#fill13)" fill-rule="nonzero" transform="matrix(6.12346e-17 1.00004 -1 6.12323e-17 1245 -163.624)"/><path d="M521.618 259.431C587.798 259.431 651.242 272.672 709.648 297.376 767.364 321.78 819.293 356.975 863.266 400.947 907.239 444.92 942.434 496.856 966.838 554.565 991.535 612.971 1004.78 676.415 1004.78 742.595 1004.78 808.776 991.541 872.219 966.838 930.626 942.434 988.342 907.239 1040.27 863.266 1084.24 819.293 1128.22 767.358 1163.41 709.648 1187.82 651.242 1212.52 587.798 1225.76 521.618 1225.76 455.437 1225.76 391.994 1212.52 333.587 1187.82 275.872 1163.41 223.942 1128.22 179.97 1084.24 135.997 1040.27 100.802 988.335 76.3982 930.626 51.7011 872.219 38.4532 808.776 38.4532 742.595 38.4532 676.415 51.6946 612.971 76.3982 554.565 100.802 496.849 135.997 444.92 179.97 400.947 223.942 356.975 275.878 321.78 333.587 297.376 391.994 272.679 455.437 259.431 521.618 259.431Z" fill="url(#fill14)" fill-rule="nonzero" transform="matrix(6.12346e-17 1.00004 -1 6.12323e-17 1245 -163.624)"/><path d="M521.618 259.431C587.271 259.431 650.245 272.548 708.293 297.095 765.579 321.323 817.123 356.245 860.803 399.924 904.482 443.604 939.404 495.148 963.632 552.434 988.179 610.482 1001.3 673.45 1001.3 739.109 1001.3 804.768 988.179 867.736 963.632 925.784 939.404 983.07 904.482 1034.61 860.803 1078.29 817.123 1121.97 765.579 1156.89 708.293 1181.12 650.245 1205.67 587.277 1218.79 521.618 1218.79 455.959 1218.79 392.991 1205.67 334.943 1181.12 277.657 1156.89 226.112 1121.97 182.433 1078.29 138.754 1034.61 103.832 983.07 79.6043 925.784 55.057 867.736 41.9395 804.768 41.9395 739.109 41.9395 673.45 55.057 610.482 79.6043 552.434 103.832 495.148 138.754 443.604 182.433 399.924 226.112 356.245 277.657 321.323 334.943 297.095 392.991 272.548 455.959 259.431 521.618 259.431Z" fill="url(#fill15)" fill-rule="nonzero" transform="matrix(6.12346e-17 1.00004 -1 6.12323e-17 1245 -163.624)"/><path d="M521.618 259.431C586.743 259.431 649.248 272.431 706.931 296.822 763.787 320.867 814.94 355.515 858.327 398.901 901.713 442.287 936.36 493.441 960.406 550.297 984.803 607.98 997.797 670.485 997.797 735.61 997.797 800.735 984.797 863.24 960.406 920.923 936.36 977.779 901.713 1028.93 858.327 1072.32 814.94 1115.7 763.787 1150.35 706.931 1174.4 649.248 1198.8 586.743 1211.79 521.618 1211.79 456.493 1211.79 393.988 1198.79 336.305 1174.4 279.449 1150.35 228.295 1115.7 184.909 1072.32 141.523 1028.93 106.875 977.779 82.8299 920.923 58.4325 863.24 45.4388 800.735 45.4388 735.61 45.4388 670.485 58.439 607.98 82.8299 550.297 106.875 493.441 141.523 442.287 184.909 398.901 228.295 355.515 279.449 320.867 336.305 296.822 393.988 272.424 456.493 259.431 521.618 259.431Z" fill="url(#fill16)" fill-rule="nonzero" transform="matrix(6.12346e-17 1.00004 -1 6.12323e-17 1245 -163.624)"/><path d="M521.618 259.431C586.215 259.431 648.251 272.307 705.569 296.548 762.001 320.411 812.764 354.785 855.857 397.878 898.95 440.971 933.324 491.734 957.187 548.166 981.428 605.484 994.304 667.52 994.304 732.117 994.304 796.714 981.428 858.75 957.187 916.068 933.324 972.5 898.95 1023.26 855.857 1066.36 812.764 1109.45 762.001 1143.82 705.569 1167.69 648.251 1191.93 586.215 1204.8 521.618 1204.8 457.021 1204.8 394.985 1191.93 337.667 1167.69 281.235 1143.82 230.472 1109.45 187.379 1066.36 144.286 1023.26 109.912 972.5 86.049 916.068 61.808 858.75 48.9316 796.714 48.9316 732.117 48.9316 667.52 61.808 605.484 86.049 548.166 109.912 491.734 144.286 440.971 187.379 397.878 230.472 354.785 281.235 320.411 337.667 296.548 394.985 272.307 457.021 259.431 521.618 259.431Z" fill="url(#fill17)" fill-rule="nonzero" transform="matrix(6.12346e-17 1.00004 -1 6.12323e-17 1245 -163.624)"/><path d="M521.618 259.431C585.687 259.431 647.254 272.183 704.207 296.274 760.209 319.955 810.581 354.062 853.381 396.855 896.18 439.655 930.281 490.026 953.961 546.028 978.052 602.988 990.805 664.555 990.805 728.618 990.805 792.68 978.052 854.254 953.961 911.207 930.281 967.209 896.18 1017.58 853.381 1060.38 810.581 1103.18 760.209 1137.28 704.207 1160.96 647.247 1185.05 585.681 1197.8 521.618 1197.8 457.555 1197.8 395.982 1185.05 339.029 1160.96 283.027 1137.28 232.655 1103.17 189.855 1060.38 147.055 1017.58 112.955 967.209 89.2746 911.207 65.1835 854.247 52.4309 792.68 52.4309 728.618 52.4309 664.555 65.1835 602.982 89.2746 546.028 112.955 490.026 147.055 439.655 189.855 396.855 232.655 354.055 283.027 319.955 339.029 296.274 395.988 272.183 457.555 259.431 521.618 259.431Z" fill="url(#fill18)" fill-rule="nonzero" transform="matrix(6.12346e-17 1.00004 -1 6.12323e-17 1245 -163.624)"/><path d="M521.618 259.431C585.159 259.431 646.257 272.06 702.852 295.994 758.424 319.499 808.411 353.325 850.911 395.825 893.411 438.325 927.244 488.313 950.742 543.884 974.677 600.479 987.306 661.577 987.306 725.118 987.306 788.66 974.677 849.758 950.742 906.352 927.237 961.924 893.411 1011.91 850.911 1054.41 808.411 1096.91 758.424 1130.74 702.852 1154.24 646.257 1178.18 585.159 1190.81 521.618 1190.81 458.077 1190.81 396.979 1178.18 340.384 1154.24 284.812 1130.74 234.825 1096.91 192.318 1054.41 149.818 1011.91 115.992 961.924 92.4872 906.352 68.5525 849.758 55.9237 788.66 55.9237 725.118 55.9237 661.577 68.5525 600.479 92.4872 543.884 115.992 488.313 149.818 438.325 192.318 395.825 234.818 353.325 284.806 319.499 340.377 295.994 396.972 272.06 458.07 259.431 521.611 259.431Z" fill="url(#fill19)" fill-rule="nonzero" transform="matrix(6.12346e-17 1.00004 -1 6.12323e-17 1245 -163.624)"/><path d="M521.618 259.431C584.625 259.431 645.253 271.936 701.49 295.721 756.638 319.043 806.234 352.596 848.441 394.802 890.648 437.009 924.201 486.605 947.523 541.754 971.308 597.99 983.813 658.619 983.813 721.626 983.813 784.633 971.308 845.261 947.523 901.498 924.201 956.646 890.648 1006.24 848.441 1048.45 806.234 1090.66 756.638 1124.21 701.49 1147.53 645.253 1171.32 584.625 1183.82 521.618 1183.82 458.611 1183.82 397.982 1171.32 341.746 1147.53 286.598 1124.21 237.001 1090.66 194.795 1048.45 152.588 1006.24 119.035 956.646 95.7128 901.498 71.928 845.261 59.423 784.633 59.423 721.626 59.423 658.619 71.928 597.99 95.7128 541.754 119.035 486.605 152.588 437.009 194.795 394.802 237.001 352.596 286.598 319.043 341.746 295.721 397.982 271.936 458.611 259.431 521.618 259.431Z" fill="url(#fill20)" fill-rule="nonzero" transform="matrix(6.12346e-17 1.00004 -1 6.12323e-17 1245 -163.624)"/><path d="M521.618 259.431C584.097 259.431 644.256 271.818 700.128 295.447 754.846 318.587 804.052 351.866 845.965 393.786 887.878 435.699 921.158 484.905 944.304 539.623 967.932 595.494 980.32 655.654 980.32 718.133 980.32 780.612 967.932 840.771 944.304 896.643 921.164 951.361 887.885 1000.57 845.965 1042.48 804.052 1084.39 754.846 1117.67 700.128 1140.82 644.256 1164.45 584.097 1176.83 521.618 1176.83 459.139 1176.83 398.979 1164.45 343.108 1140.82 288.39 1117.68 239.184 1084.4 197.271 1042.48 155.357 1000.57 122.078 951.361 98.9319 896.643 75.3035 840.771 62.9158 780.612 62.9158 718.133 62.9158 655.654 75.3035 595.494 98.9319 539.623 122.072 484.905 155.351 435.699 197.271 393.786 239.184 351.872 288.39 318.593 343.108 295.447 398.979 271.818 459.139 259.431 521.618 259.431Z" fill="url(#fill21)" fill-rule="nonzero" transform="matrix(6.12346e-17 1.00004 -1 6.12323e-17 1245 -163.624)"/><path d="M521.618 259.431C583.569 259.431 643.259 271.695 698.773 295.173 753.061 318.13 801.882 351.142 843.502 392.763 885.122 434.383 918.127 483.197 941.091 537.492 964.57 592.998 976.834 652.695 976.834 714.646 976.834 776.598 964.57 836.288 941.091 891.801 918.134 946.089 885.122 994.91 843.502 1036.53 801.882 1078.15 753.067 1111.16 698.773 1134.12 643.266 1157.6 583.569 1169.86 521.618 1169.86 459.667 1169.86 399.976 1157.6 344.463 1134.12 290.175 1111.16 241.354 1078.15 199.734 1036.53 158.114 994.91 125.108 946.096 102.144 891.801 78.6659 836.295 66.4021 776.598 66.4021 714.646 66.4021 652.695 78.6659 593.005 102.144 537.492 125.102 483.204 158.114 434.383 199.734 392.763 241.354 351.142 290.169 318.137 344.463 295.173 399.97 271.695 459.667 259.431 521.618 259.431Z" fill="url(#fill22)" fill-rule="nonzero" transform="matrix(6.12346e-17 1.00004 -1 6.12323e-17 1245 -163.624)"/><path d="M521.618 259.431C583.041 259.431 642.262 271.571 697.411 294.893 751.275 317.674 799.698 350.406 841.026 391.733 882.353 433.06 915.084 481.49 937.866 535.348 961.188 590.496 973.328 649.717 973.328 711.141 973.328 772.564 961.188 831.785 937.866 886.933 915.084 940.792 882.353 989.221 841.026 1030.55 799.698 1071.88 751.269 1104.61 697.411 1127.39 642.262 1150.71 583.041 1162.85 521.618 1162.85 460.194 1162.85 400.973 1150.71 345.825 1127.39 291.961 1104.61 243.537 1071.88 202.21 1030.55 160.883 989.221 128.151 940.792 105.37 886.933 82.0479 831.785 69.9079 772.564 69.9079 711.141 69.9079 649.717 82.0479 590.496 105.37 535.348 128.151 481.483 160.883 433.06 202.21 391.733 243.537 350.406 291.967 317.674 345.825 294.893 400.973 271.571 460.194 259.431 521.618 259.431Z" fill="url(#fill23)" fill-rule="nonzero" transform="matrix(6.12346e-17 1.00004 -1 6.12323e-17 1245 -163.624)"/><path d="M521.618 259.431C582.514 259.431 641.265 271.447 696.049 294.619 749.483 317.218 797.522 349.676 838.556 390.71 879.59 431.744 912.048 479.783 934.647 533.217 957.819 588 969.835 646.759 969.835 707.648 969.835 768.537 957.819 827.296 934.647 882.079 912.048 935.513 879.59 983.552 838.556 1024.58 797.522 1065.61 749.483 1098.07 696.049 1120.67 641.265 1143.84 582.507 1155.86 521.618 1155.86 460.729 1155.86 401.97 1143.84 347.187 1120.67 293.753 1098.07 245.714 1065.61 204.68 1024.58 163.646 983.546 131.188 935.507 108.589 882.079 85.4169 827.296 73.4007 768.537 73.4007 707.648 73.4007 646.759 85.4169 588 108.589 533.217 131.188 479.783 163.646 431.744 204.68 390.71 245.714 349.676 293.753 317.218 347.187 294.619 401.97 271.447 460.729 259.431 521.618 259.431Z" fill="url(#fill24)" fill-rule="nonzero" transform="matrix(6.12346e-17 1.00004 -1 6.12323e-17 1245 -163.624)"/><path d="M521.618 259.431C581.979 259.431 640.268 271.323 694.693 294.346 747.698 316.762 795.346 348.953 836.086 389.687 876.827 430.427 909.011 478.075 931.427 531.08 954.443 585.505 966.342 643.787 966.342 704.155 966.342 764.523 954.45 822.806 931.427 877.231 909.011 930.235 876.82 977.883 836.086 1018.62 795.346 1059.36 747.698 1091.55 694.693 1113.96 640.268 1136.98 581.986 1148.88 521.618 1148.88 461.25 1148.88 402.967 1136.99 348.542 1113.96 295.538 1091.55 247.89 1059.36 207.15 1018.62 166.409 977.883 134.225 930.235 111.808 877.231 88.7924 822.806 76.8935 764.523 76.8935 704.155 76.8935 643.787 88.7859 585.505 111.808 531.08 134.225 478.075 166.416 430.427 207.15 389.687 247.89 348.946 295.538 316.762 348.542 294.346 402.967 271.33 461.25 259.431 521.618 259.431Z" fill="url(#fill25)" fill-rule="nonzero" transform="matrix(6.12346e-17 1.00004 -1 6.12323e-17 1245 -163.624)"/><path d="M521.618 259.431C581.451 259.431 639.271 271.206 693.331 294.065 745.906 316.299 793.169 348.217 833.61 388.657 874.057 429.105 905.968 476.362 928.202 528.936 951.068 582.996 962.837 640.816 962.837 700.649 962.837 760.483 951.061 818.303 928.202 872.363 905.968 924.937 874.051 972.201 833.61 1012.64 793.163 1053.09 745.906 1085 693.331 1107.23 639.271 1130.1 581.451 1141.87 521.618 1141.87 461.784 1141.87 403.964 1130.09 349.904 1107.23 297.324 1085 250.067 1053.08 209.626 1012.64 169.179 972.194 137.268 924.937 115.034 872.363 92.1679 818.303 80.3993 760.483 80.3993 700.649 80.3993 640.816 92.1744 582.996 115.034 528.936 137.268 476.362 169.185 429.098 209.626 388.657 250.073 348.21 297.33 316.299 349.904 294.065 403.964 271.199 461.784 259.431 521.618 259.431Z" fill="url(#fill26)" fill-rule="nonzero" transform="matrix(6.12346e-17 1.00004 -1 6.12323e-17 1245 -163.624)"/><path d="M521.618 259.431C580.924 259.431 638.274 271.082 691.969 293.792 744.12 315.85 790.986 347.487 831.14 387.641 871.288 427.788 902.931 474.661 924.989 526.811 947.699 580.513 959.35 637.857 959.35 697.163 959.35 756.469 947.699 813.82 924.989 867.515 902.931 919.665 871.294 966.531 831.14 1006.69 790.993 1046.83 744.12 1078.48 691.969 1100.53 638.268 1123.24 580.924 1134.9 521.618 1134.9 462.312 1134.9 404.961 1123.24 351.266 1100.53 299.116 1078.48 252.25 1046.84 212.096 1006.69 171.948 966.538 140.305 919.665 118.247 867.515 95.5369 813.813 83.8856 756.469 83.8856 697.163 83.8856 637.857 95.5369 580.507 118.247 526.811 140.305 474.661 171.942 427.795 212.096 387.641 252.243 347.493 299.116 315.85 351.266 293.792 404.968 271.082 462.312 259.431 521.618 259.431Z" fill="url(#fill27)" fill-rule="nonzero" transform="matrix(6.12346e-17 1.00004 -1 6.12323e-17 1245 -163.624)"/><path d="M521.618 259.431C580.396 259.431 637.277 270.958 690.614 293.518 742.335 315.394 788.816 346.757 828.67 386.618 868.525 426.472 899.895 472.953 921.77 524.674 944.33 578.011 955.857 634.892 955.857 693.67 955.857 752.448 944.33 809.33 921.77 862.666 899.895 914.387 868.531 960.869 828.67 1000.72 788.816 1040.58 742.335 1071.95 690.614 1093.82 637.277 1116.38 580.396 1127.91 521.618 1127.91 462.84 1127.91 405.958 1116.38 352.622 1093.82 300.901 1071.95 254.42 1040.58 214.565 1000.72 174.711 960.869 143.341 914.387 121.466 862.666 98.9058 809.33 87.3783 752.448 87.3783 693.67 87.3783 634.892 98.9058 578.011 121.466 524.674 143.341 472.953 174.705 426.472 214.565 386.618 254.42 346.763 300.901 315.394 352.622 293.518 405.958 270.958 462.84 259.431 521.618 259.431Z" fill="url(#fill28)" fill-rule="nonzero" transform="matrix(6.12346e-17 1.00004 -1 6.12323e-17 1245 -163.624)"/><path d="M521.618 259.431C579.868 259.431 636.28 270.834 689.252 293.244 740.543 314.937 786.633 346.034 826.201 385.595 865.762 425.156 896.858 471.246 918.551 522.543 940.954 575.515 952.365 631.927 952.365 690.177 952.365 748.428 940.961 804.84 918.551 857.812 896.858 909.102 865.762 955.193 826.201 994.754 786.64 1034.31 740.549 1065.41 689.252 1087.1 636.28 1109.51 579.868 1120.92 521.618 1120.92 463.368 1120.92 406.955 1109.51 353.984 1087.1 302.693 1065.41 256.603 1034.31 217.035 994.754 177.474 955.193 146.378 909.102 124.685 857.812 102.281 804.84 90.8711 748.428 90.8711 690.177 90.8711 631.927 102.275 575.515 124.685 522.543 146.378 471.253 177.474 425.162 217.035 385.595 256.596 346.027 302.687 314.937 353.984 293.244 406.955 270.841 463.368 259.431 521.618 259.431Z" fill="url(#fill29)" fill-rule="nonzero" transform="matrix(6.12346e-17 1.00004 -1 6.12323e-17 1245 -163.624)"/><path d="M94.3704 686.672C94.3704 628.949 105.657 573.006 127.904 520.399 149.414 469.532 180.237 423.833 219.505 384.565 258.773 345.297 304.472 314.481 355.339 292.964 407.952 270.711 463.896 259.431 521.611 259.431 579.327 259.431 635.277 270.717 687.884 292.964 738.751 314.481 784.45 345.297 823.718 384.565 862.986 423.833 893.802 469.532 915.319 520.399 937.572 573.013 948.852 628.956 948.852 686.672 948.852 744.387 937.566 800.337 915.319 852.944 893.802 903.811 862.986 949.51 823.718 988.778 784.45 1028.05 738.751 1058.86 687.884 1080.38 635.27 1102.63 579.327 1113.91 521.611 1113.91 463.896 1113.91 407.946 1102.63 355.339 1080.38 304.472 1058.87 258.773 1028.05 219.505 988.778 180.237 949.51 149.421 903.811 127.904 852.944 105.65 800.331 94.3704 744.387 94.3704 686.672Z" fill="#000000" fill-rule="nonzero" fill-opacity="1" transform="matrix(6.12346e-17 1.00004 -1 6.12323e-17 1245 -163.624)"/><path d="M1043.24 521.618C1043.24 809.699 809.699 1043.24 521.618 1043.24 233.536 1043.24-1.9091e-05 809.699-1.9091e-05 521.618-1.9091e-05 233.536 233.536-1.9091e-05 521.618-1.9091e-05 809.699-1.9091e-05 1043.24 233.536 1043.24 521.618Z" fill="url(#fill30)" fill-rule="nonzero" transform="matrix(6.12346e-17 1.00004 -1 6.12323e-17 1245 -163.624)"/><path d="M521.618 0C593.09 0 661.219 14.4664 723.248 40.6949 785.245 66.9103 841.071 104.836 887.983 151.754 934.894 198.665 972.826 254.491 999.042 316.488 1025.27 378.518 1039.74 446.647 1039.74 518.119 1039.74 589.59 1025.27 657.719 999.042 719.749 972.826 781.746 934.901 837.572 887.983 884.483 841.071 931.395 785.239 969.327 723.248 995.542 661.219 1021.77 593.09 1036.24 521.618 1036.24 450.146 1036.24 382.017 1021.77 319.988 995.542 257.991 969.327 202.165 931.401 155.253 884.483 108.342 837.572 70.4097 781.746 44.1942 719.749 17.9592 657.719 3.49279 589.597 3.49279 518.125 3.49279 446.653 17.9592 378.524 44.1877 316.495 70.4031 254.498 108.329 198.672 155.247 151.76 202.158 104.849 257.991 66.9169 319.981 40.7014 382.017 14.4664 450.146 0 521.618 0Z" fill="url(#fill31)" fill-rule="nonzero" transform="matrix(6.12346e-17 1.00004 -1 6.12323e-17 1245 -163.624)"/><path d="M521.618 0C592.562 0 660.222 14.3426 721.886 40.4212 783.453 66.4542 838.888 104.112 885.513 150.731 932.131 197.349 969.789 252.791 995.823 314.357 1021.9 376.029 1036.24 443.682 1036.24 514.626 1036.24 585.57 1021.9 653.23 995.823 714.894 969.789 776.461 932.131 831.896 885.513 878.521 838.895 925.139 783.453 962.797 721.886 988.83 660.215 1014.91 592.562 1029.25 521.618 1029.25 450.674 1029.25 383.014 1014.91 321.35 988.83 259.783 962.797 204.348 925.139 157.723 878.521 111.105 831.903 73.4463 776.461 47.4133 714.894 21.3347 653.223 6.99209 585.57 6.99209 514.626 6.99209 443.682 21.3347 376.022 47.4133 314.357 73.4463 252.791 111.105 197.356 157.723 150.731 204.341 104.112 259.783 66.4542 321.35 40.4212 383.014 14.3426 450.674 0 521.618 0Z" fill="url(#fill32)" fill-rule="nonzero" transform="matrix(6.12346e-17 1.00004 -1 6.12323e-17 1245 -163.624)"/><path d="M521.618 0C592.034 0 659.225 14.2188 720.531 40.1475 781.668 65.998 836.718 103.383 883.043 149.708 929.368 196.033 966.753 251.083 992.603 312.22 1018.53 373.526 1032.75 440.717 1032.75 511.133 1032.75 581.549 1018.53 648.74 992.603 710.046 966.753 771.183 929.368 826.233 883.043 872.558 836.718 918.883 781.668 956.268 720.531 982.119 659.225 1008.04 592.034 1022.27 521.618 1022.27 451.202 1022.27 384.011 1008.05 322.705 982.119 261.568 956.268 206.518 918.883 160.193 872.558 113.867 826.233 76.4829 771.183 50.6324 710.046 24.7102 648.74 10.4849 581.549 10.4849 511.133 10.4849 440.717 24.7037 373.526 50.6324 312.22 76.4829 251.083 113.867 196.033 160.193 149.708 206.518 103.383 261.568 65.998 322.705 40.1475 384.011 14.2188 451.202 0 521.618 0Z" fill="url(#fill33)" fill-rule="nonzero" transform="matrix(6.12346e-17 1.00004 -1 6.12323e-17 1245 -163.624)"/><path d="M521.618 0C591.506 0 658.228 14.1015 719.169 39.8673 779.882 65.5419 834.535 102.646 880.573 148.678 926.605 194.71 963.716 249.369 989.384 310.083 1015.16 371.024 1029.25 437.745 1029.25 507.634 1029.25 577.522 1015.15 644.243 989.384 705.185 963.71 765.898 926.605 820.551 880.573 866.583 834.542 912.615 779.882 949.725 719.169 975.394 658.228 1001.17 591.506 1015.26 521.618 1015.26 451.73 1015.26 385.008 1001.16 324.067 975.394 263.354 949.719 208.694 912.615 162.662 866.583 116.63 820.551 79.5196 765.891 53.8515 705.185 28.0791 644.243 13.9842 577.522 13.9842 507.634 13.9842 437.745 28.0857 371.024 53.8515 310.083 79.5261 249.369 116.63 194.71 162.662 148.678 208.694 102.646 263.354 65.5354 324.067 39.8673 385.008 14.1015 451.73 0 521.618 0Z" fill="url(#fill34)" fill-rule="nonzero" transform="matrix(6.12346e-17 1.00004 -1 6.12323e-17 1245 -163.624)"/><path d="M521.618 0C590.978 0 657.231 13.9777 717.807 39.5936 778.09 65.0858 832.359 101.923 878.097 147.662 923.836 193.4 960.673 247.669 986.159 307.952 1011.77 368.535 1025.75 434.787 1025.75 504.141 1025.75 573.495 1011.77 639.754 986.159 700.33 960.667 760.613 923.829 814.882 878.097 860.62 832.359 906.359 778.09 943.196 717.807 968.688 657.224 994.304 590.972 1008.28 521.618 1008.28 452.264 1008.28 386.005 994.304 325.429 968.688 265.146 943.196 210.877 906.359 165.138 860.62 119.4 814.882 82.5692 760.613 57.0771 700.33 31.4612 639.747 17.4835 573.495 17.4835 504.141 17.4835 434.787 31.4612 368.528 57.0771 307.952 82.5692 247.669 119.406 193.4 165.145 147.662 210.884 101.923 265.152 65.0858 325.435 39.6001 386.005 13.9777 452.257 0 521.618 0Z" fill="url(#fill35)" fill-rule="nonzero" transform="matrix(6.12346e-17 1.00004 -1 6.12323e-17 1245 -163.624)"/><path d="M521.618 0C590.444 0 656.227 13.8539 716.452 39.3199 776.305 64.6296 830.189 101.193 875.628 146.638 921.073 192.084 957.63 245.961 982.946 305.814 1008.41 366.032 1022.27 431.815 1022.27 500.648 1022.27 569.481 1008.41 635.257 982.946 695.482 957.636 755.335 921.073 809.219 875.628 854.658 830.182 900.103 776.305 936.66 716.452 961.976 656.234 987.442 590.451 1001.3 521.618 1001.3 452.785 1001.3 387.009 987.442 326.784 961.976 266.931 936.667 213.047 900.103 167.608 854.658 122.163 809.213 85.6059 755.335 60.2897 695.482 34.8236 635.264 20.9698 569.481 20.9698 500.648 20.9698 431.815 34.8236 366.039 60.2897 305.814 85.5994 245.961 122.163 192.077 167.608 146.638 213.054 101.193 266.931 64.6361 326.784 39.3199 387.002 13.8539 452.792 0 521.618 0Z" fill="url(#fill36)" fill-rule="nonzero" transform="matrix(6.12346e-17 1.00004 -1 6.12323e-17 1245 -163.624)"/><path d="M521.618 0C589.916 0 655.23 13.73 715.09 39.0462 774.519 64.1735 828.006 100.463 873.158 145.615 918.31 190.767 954.593 244.254 979.727 303.684 1005.04 363.543 1018.77 428.857 1018.77 497.155 1018.77 565.454 1005.04 630.768 979.727 690.627 954.6 750.057 918.31 803.543 873.158 848.695 828.006 893.847 774.519 930.131 715.09 955.264 655.23 980.574 589.916 994.311 521.618 994.311 453.32 994.311 388.006 980.581 328.146 955.264 268.717 930.137 215.23 893.847 170.078 848.695 124.926 803.543 88.6425 750.057 63.5088 690.627 38.1991 630.768 24.4625 565.454 24.4625 497.155 24.4625 428.857 38.1926 363.543 63.5088 303.684 88.636 244.254 124.926 190.767 170.078 145.615 215.23 100.463 268.717 64.18 328.146 39.0462 388.006 13.73 453.32 0 521.618 0Z" fill="url(#fill37)" fill-rule="nonzero" transform="matrix(6.12346e-17 1.00004 -1 6.12323e-17 1245 -163.624)"/><path d="M521.618 0C589.388 0 654.233 13.6062 713.728 38.766 772.727 63.7173 825.829 99.7269 870.682 144.586 915.54 189.445 951.55 242.54 976.501 301.54 1001.66 361.034 1015.27 425.879 1015.27 493.65 1015.27 561.42 1001.66 626.265 976.501 685.759 951.55 744.759 915.54 797.861 870.682 842.713 825.823 887.572 772.727 923.582 713.728 948.533 654.233 973.693 589.388 987.299 521.618 987.299 453.847 987.299 389.003 973.693 329.508 948.533 270.509 923.582 217.406 887.572 172.554 842.713 127.702 797.854 91.6857 744.759 66.7344 685.759 41.5746 626.265 27.9684 561.42 27.9684 493.65 27.9684 425.879 41.5746 361.034 66.7344 301.54 91.6857 242.54 127.695 189.438 172.554 144.586 217.413 99.7269 270.509 63.7173 329.508 38.766 389.003 13.6062 453.847 0 521.618 0Z" fill="url(#fill38)" fill-rule="nonzero" transform="matrix(6.12346e-17 1.00004 -1 6.12323e-17 1245 -163.624)"/><path d="M521.618 0C588.861 0 653.236 13.4889 712.372 38.4923 770.942 63.2612 823.653 99.0036 868.218 143.563 912.778 188.122 948.52 240.833 973.289 299.409 998.292 358.539 1011.78 422.921 1011.78 490.163 1011.78 557.406 998.292 621.781 973.289 680.918 948.52 739.487 912.778 792.198 868.218 836.764 823.659 881.323 770.948 917.065 712.372 941.834 653.243 966.838 588.861 980.327 521.618 980.327 454.375 980.327 390 966.838 330.863 941.834 272.294 917.065 219.583 881.323 175.017 836.764 130.458 792.205 94.7158 739.494 69.947 680.924 44.9436 621.794 31.4546 557.412 31.4546 490.17 31.4546 422.927 44.9436 358.552 69.947 299.415 94.7158 240.846 130.458 188.135 175.017 143.569 219.576 99.0101 272.288 63.2677 330.863 38.4989 390 13.4889 454.375 0 521.618 0Z" fill="url(#fill39)" fill-rule="nonzero" transform="matrix(6.12346e-17 1.00004 -1 6.12323e-17 1245 -163.624)"/><path d="M521.618 0C588.333 0 652.239 13.3651 711.01 38.2187 769.156 62.805 821.476 98.2738 865.742 142.54 910.008 186.806 945.477 239.126 970.063 297.271 994.917 356.043 1008.28 419.949 1008.28 486.664 1008.28 553.379 994.917 617.285 970.063 676.056 945.477 734.196 910.008 786.522 865.742 830.788 821.476 875.054 769.156 910.523 711.01 935.109 652.239 959.963 588.333 973.328 521.618 973.328 454.903 973.328 390.997 959.963 332.225 935.109 274.08 910.523 221.759 875.054 177.494 830.788 133.228 786.522 97.759 734.202 73.1726 676.056 48.3191 617.285 34.9539 553.379 34.9539 486.664 34.9539 419.949 48.3191 356.043 73.1726 297.271 97.759 239.126 133.228 186.806 177.494 142.54 221.759 98.2738 274.08 62.805 332.225 38.2187 390.997 13.3651 454.903 0 521.618 0Z" fill="url(#fill40)" fill-rule="nonzero" transform="matrix(6.12346e-17 1.00004 -1 6.12323e-17 1245 -163.624)"/><path d="M521.618 0C587.798 0 651.242 13.2413 709.648 37.945 767.364 62.3489 819.293 97.5439 863.266 141.517 907.239 185.489 942.434 237.425 966.838 295.134 991.535 353.54 1004.78 416.984 1004.78 483.165 1004.78 549.345 991.541 612.789 966.838 671.195 942.434 728.911 907.239 780.84 863.266 824.813 819.293 868.785 767.358 903.98 709.648 928.384 651.242 953.088 587.798 966.329 521.618 966.329 455.437 966.329 391.994 953.088 333.587 928.384 275.872 903.98 223.942 868.785 179.97 824.813 135.997 780.84 100.802 728.904 76.3982 671.195 51.7011 612.789 38.4532 549.345 38.4532 483.165 38.4532 416.984 51.6946 353.54 76.3982 295.134 100.802 237.418 135.997 185.489 179.97 141.517 223.942 97.5439 275.878 62.3489 333.587 37.945 391.994 13.2413 455.431 0 521.618 0Z" fill="url(#fill41)" fill-rule="nonzero" transform="matrix(6.12346e-17 1.00004 -1 6.12323e-17 1245 -163.624)"/><path d="M521.618 0C587.271 0 650.245 13.1175 708.293 37.6648 765.579 61.8927 817.123 96.8141 860.803 140.493 904.482 184.173 939.404 235.718 963.632 293.003 988.179 351.051 1001.3 414.019 1001.3 479.678 1001.3 545.338 988.179 608.305 963.632 666.354 939.404 723.639 904.482 775.184 860.803 818.863 817.123 862.543 765.579 897.464 708.293 921.692 650.245 946.239 587.277 959.357 521.618 959.357 455.959 959.357 392.991 946.239 334.943 921.692 277.657 897.464 226.112 862.543 182.433 818.863 138.754 775.184 103.832 723.639 79.6043 666.354 55.057 608.305 41.9395 545.338 41.9395 479.678 41.9395 414.019 55.057 351.051 79.6043 293.003 103.832 235.718 138.754 184.173 182.433 140.493 226.112 96.8141 277.657 61.8927 334.943 37.6648 392.991 13.1175 455.965 0 521.618 0Z" fill="url(#fill42)" fill-rule="nonzero" transform="matrix(6.12346e-17 1.00004 -1 6.12323e-17 1245 -163.624)"/><path d="M521.618 0C586.743 0 649.248 13.0002 706.931 37.3911 763.787 61.4366 814.94 96.0842 858.327 139.47 901.713 182.857 936.36 234.01 960.406 290.866 984.803 348.549 997.797 411.054 997.797 476.179 997.797 541.304 984.797 603.809 960.406 661.492 936.36 718.348 901.713 769.502 858.327 812.888 814.94 856.274 763.787 890.922 706.931 914.967 649.248 939.364 586.743 952.358 521.618 952.358 456.493 952.358 393.988 939.358 336.305 914.967 279.449 890.922 228.295 856.274 184.909 812.888 141.523 769.502 106.875 718.348 82.8299 661.492 58.4325 603.809 45.4388 541.304 45.4388 476.179 45.4388 411.054 58.439 348.549 82.8299 290.866 106.875 234.01 141.523 182.857 184.909 139.47 228.295 96.0842 279.449 61.4366 336.305 37.3911 393.988 13.0002 456.493 0 521.618 0Z" fill="url(#fill43)" fill-rule="nonzero" transform="matrix(6.12346e-17 1.00004 -1 6.12323e-17 1245 -163.624)"/><path d="M521.618 0C586.215 0 648.251 12.8764 705.569 37.1174 762.001 60.9804 812.764 95.3544 855.857 138.447 898.95 181.54 933.324 232.303 957.187 288.735 981.428 346.053 994.304 408.089 994.304 472.686 994.304 537.283 981.428 599.319 957.187 656.638 933.324 713.07 898.95 763.832 855.857 806.925 812.764 850.018 762.001 884.392 705.569 908.255 648.251 932.496 586.215 945.373 521.618 945.373 457.021 945.373 394.985 932.496 337.667 908.255 281.235 884.392 230.472 850.018 187.379 806.925 144.286 763.832 109.912 713.07 86.049 656.638 61.808 599.319 48.9316 537.283 48.9316 472.686 48.9316 408.089 61.808 346.053 86.049 288.735 109.912 232.303 144.286 181.54 187.379 138.447 230.472 95.3544 281.235 60.9804 337.667 37.1174 394.985 12.8764 457.021 0 521.618 0Z" fill="url(#fill44)" fill-rule="nonzero" transform="matrix(6.12346e-17 1.00004 -1 6.12323e-17 1245 -163.624)"/><path d="M521.618 0C585.687 0 647.254 12.7526 704.207 36.8437 760.209 60.5243 810.581 94.6246 853.381 137.424 896.18 180.224 930.281 230.596 953.961 286.598 978.052 343.557 990.805 405.124 990.805 469.187 990.805 533.25 978.052 594.823 953.961 651.783 930.281 707.785 896.18 758.156 853.381 800.956 810.581 843.756 760.209 877.856 704.207 901.537 647.247 925.628 585.681 938.38 521.618 938.38 457.555 938.38 395.982 925.628 339.029 901.537 283.027 877.856 232.655 843.749 189.855 800.956 147.055 758.156 112.955 707.785 89.2746 651.783 65.1835 594.823 52.4309 533.256 52.4309 469.194 52.4309 405.131 65.1835 343.557 89.2746 286.604 112.955 230.602 147.055 180.23 189.855 137.431 232.655 94.6311 283.027 60.5308 339.029 36.8502 395.982 12.7526 457.549 0 521.618 0Z" fill="url(#fill45)" fill-rule="nonzero" transform="matrix(6.12346e-17 1.00004 -1 6.12323e-17 1245 -163.624)"/><path d="M521.618 0C585.159 0 646.257 12.6288 702.852 36.5635 758.424 60.0681 808.411 93.8947 850.911 136.395 893.411 178.895 927.244 228.882 950.742 284.454 974.677 341.049 987.306 402.146 987.306 465.688 987.306 529.229 974.677 590.327 950.742 646.922 927.237 702.493 893.411 752.481 850.911 794.981 808.411 837.481 758.424 871.314 702.852 894.812 646.257 918.747 585.159 931.375 521.618 931.375 458.077 931.375 396.979 918.747 340.384 894.812 284.812 871.307 234.825 837.481 192.318 794.981 149.818 752.481 115.992 702.493 92.4872 646.922 68.5525 590.327 55.9237 529.229 55.9237 465.688 55.9237 402.146 68.5525 341.049 92.4872 284.454 115.992 228.882 149.818 178.895 192.318 136.395 234.818 93.8947 284.806 60.0616 340.377 36.5635 396.979 12.6288 458.077 0 521.618 0Z" fill="url(#fill46)" fill-rule="nonzero" transform="matrix(6.12346e-17 1.00004 -1 6.12323e-17 1245 -163.624)"/><path d="M521.618 0C584.625 0 645.253 12.505 701.49 36.2898 756.638 59.612 806.234 93.1649 848.441 135.372 890.648 177.578 924.201 227.175 947.523 282.323 971.308 338.559 983.813 399.188 983.813 462.195 983.813 525.202 971.308 585.83 947.523 642.067 924.201 697.215 890.648 746.805 848.441 789.018 806.234 831.225 756.638 864.778 701.49 888.1 645.253 911.885 584.625 924.39 521.618 924.39 458.611 924.39 397.982 911.885 341.746 888.1 286.598 864.778 237.001 831.225 194.795 789.018 152.588 746.812 119.035 697.215 95.7128 642.067 71.928 585.83 59.423 525.202 59.423 462.195 59.423 399.188 71.928 338.559 95.7128 282.323 119.035 227.175 152.588 177.578 194.795 135.372 237.001 93.1649 286.598 59.612 341.746 36.2898 397.976 12.505 458.611 0 521.618 0Z" fill="url(#fill47)" fill-rule="nonzero" transform="matrix(6.12346e-17 1.00004 -1 6.12323e-17 1245 -163.624)"/><path d="M521.618 0C584.097 0 644.256 12.3877 700.128 36.0161 754.846 59.1558 804.052 92.4351 845.965 134.355 887.878 176.268 921.158 225.474 944.304 280.192 967.932 336.064 980.32 396.223 980.32 458.702 980.32 521.181 967.932 581.341 944.304 637.212 921.164 691.93 887.885 741.136 845.965 783.049 804.052 824.963 754.846 858.242 700.128 881.388 644.256 905.016 584.097 917.404 521.618 917.404 459.139 917.404 398.979 905.016 343.108 881.388 288.39 858.248 239.184 824.969 197.271 783.049 155.357 741.136 122.078 691.93 98.9319 637.212 75.3035 581.341 62.9158 521.181 62.9158 458.702 62.9158 396.223 75.3035 336.064 98.9319 280.192 122.072 225.474 155.351 176.268 197.271 134.355 239.184 92.4416 288.39 59.1624 343.108 36.0161 398.979 12.3877 459.139 0 521.618 0Z" fill="url(#fill48)" fill-rule="nonzero" transform="matrix(6.12346e-17 1.00004 -1 6.12323e-17 1245 -163.624)"/><path d="M521.618 0C583.569 0 643.259 12.2639 698.773 35.7424 753.061 58.6997 801.882 91.7117 843.502 133.332 885.122 174.952 918.127 223.767 941.091 278.061 964.57 333.568 976.834 393.264 976.834 455.216 976.834 517.167 964.57 576.857 941.091 632.371 918.134 686.659 885.122 735.479 843.502 777.1 801.882 818.72 753.067 851.725 698.773 874.689 643.266 898.168 583.569 910.432 521.618 910.432 459.667 910.432 399.976 898.168 344.463 874.689 290.175 851.732 241.354 818.72 199.734 777.1 158.114 735.479 125.108 686.665 102.144 632.371 78.6659 576.864 66.4021 517.167 66.4021 455.216 66.4021 393.264 78.6659 333.574 102.144 278.061 125.102 223.773 158.114 174.952 199.734 133.332 241.354 91.7117 290.169 58.7062 344.463 35.7424 399.976 12.2639 459.667 0 521.618 0Z" fill="url(#fill49)" fill-rule="nonzero" transform="matrix(6.12346e-17 1.00004 -1 6.12323e-17 1245 -163.624)"/><path d="M521.618 0C583.041 0 642.262 12.14 697.411 35.4622 751.275 58.2435 799.698 90.9754 841.026 132.302 882.353 173.629 915.084 222.059 937.866 275.917 961.188 331.065 973.328 390.286 973.328 451.71 973.328 513.134 961.188 572.355 937.866 627.503 915.084 681.361 882.353 729.791 841.026 771.118 799.698 812.445 751.269 845.176 697.411 867.958 642.262 891.28 583.041 903.42 521.618 903.42 460.194 903.42 400.973 891.28 345.825 867.958 291.961 845.176 243.537 812.445 202.21 771.118 160.883 729.791 128.151 681.361 105.37 627.503 82.0479 572.355 69.9079 513.134 69.9079 451.71 69.9079 390.286 82.0479 331.065 105.37 275.917 128.151 222.053 160.883 173.629 202.21 132.302 243.537 90.9754 291.967 58.2435 345.825 35.4622 400.973 12.14 460.194 0 521.618 0Z" fill="url(#fill50)" fill-rule="nonzero" transform="matrix(6.12346e-17 1.00004 -1 6.12323e-17 1245 -163.624)"/><path d="M521.618 0C582.514 0 641.265 12.0162 696.049 35.1885 749.483 57.7874 797.522 90.2456 838.556 131.279 879.59 172.313 912.048 220.352 934.647 273.786 957.819 328.57 969.835 387.328 969.835 448.217 969.835 509.106 957.819 567.865 934.647 622.648 912.048 676.083 879.59 724.121 838.556 765.149 797.522 806.182 749.483 838.641 696.049 861.239 641.265 884.412 582.507 896.428 521.618 896.428 460.729 896.428 401.97 884.412 347.187 861.239 293.753 838.641 245.714 806.182 204.68 765.149 163.646 724.115 131.188 676.076 108.589 622.648 85.4169 567.865 73.4007 509.106 73.4007 448.217 73.4007 387.328 85.4169 328.57 108.589 273.786 131.188 220.352 163.646 172.313 204.68 131.279 245.714 90.2456 293.753 57.7874 347.187 35.1885 401.97 12.0162 460.722 0 521.618 0Z" fill="url(#fill51)" fill-rule="nonzero" transform="matrix(6.12346e-17 1.00004 -1 6.12323e-17 1245 -163.624)"/><path d="M521.618 0C581.979 0 640.268 11.8924 694.693 34.9148 747.698 57.3312 795.346 89.5222 836.086 130.256 876.827 170.997 909.011 218.645 931.427 271.649 954.443 326.074 966.342 384.357 966.342 444.724 966.342 505.092 954.45 563.375 931.427 617.8 909.011 670.804 876.82 718.452 836.086 759.193 795.346 799.933 747.698 832.118 694.693 854.534 640.268 877.55 581.986 889.449 521.618 889.449 461.25 889.449 402.967 877.556 348.542 854.534 295.538 832.118 247.89 799.927 207.15 759.193 166.409 718.459 134.225 670.804 111.808 617.8 88.7924 563.375 76.8935 505.092 76.8935 444.724 76.8935 384.357 88.7859 326.074 111.808 271.649 134.225 218.645 166.416 170.997 207.15 130.256 247.89 89.5157 295.538 57.3312 348.542 34.9148 402.967 11.8924 461.25 0 521.618 0Z" fill="url(#fill52)" fill-rule="nonzero" transform="matrix(6.12346e-17 1.00004 -1 6.12323e-17 1245 -163.624)"/><path d="M521.618 0C581.451 0 639.271 11.7751 693.331 34.6346 745.906 56.8686 793.169 88.7859 833.61 129.227 874.057 169.674 905.968 216.931 928.202 269.505 951.068 323.565 962.837 381.385 962.837 441.219 962.837 501.052 951.061 558.872 928.202 612.932 905.968 665.506 874.051 712.77 833.61 753.211 793.163 793.658 745.906 825.569 693.331 847.803 639.271 870.669 581.451 882.437 521.618 882.437 461.784 882.437 403.964 870.662 349.904 847.803 297.324 825.569 250.067 793.651 209.626 753.211 169.179 712.763 137.268 665.506 115.034 612.932 92.1679 558.872 80.3993 501.052 80.3993 441.219 80.3993 381.385 92.1744 323.565 115.034 269.505 137.268 216.924 169.185 169.667 209.626 129.227 250.073 88.7794 297.33 56.8686 349.904 34.6346 403.964 11.7751 461.784 0 521.618 0Z" fill="url(#fill53)" fill-rule="nonzero" transform="matrix(6.12346e-17 1.00004 -1 6.12323e-17 1245 -163.624)"/><path d="M521.618 0C580.924 0 638.274 11.6513 691.969 34.361 744.12 56.4189 790.986 88.0561 831.14 128.21 871.288 168.358 902.931 215.23 924.989 267.381 947.699 321.076 959.35 378.427 959.35 437.732 959.35 497.038 947.699 554.389 924.989 608.084 902.931 660.235 871.294 707.101 831.14 747.255 790.993 787.402 744.12 819.046 691.969 841.104 638.268 863.813 580.924 875.465 521.618 875.465 462.312 875.465 404.961 863.813 351.266 841.104 299.116 819.046 252.25 787.409 212.096 747.255 171.948 707.107 140.305 660.235 118.247 608.084 95.5369 554.382 83.8856 497.038 83.8856 437.732 83.8856 378.427 95.5369 321.076 118.247 267.381 140.305 215.23 171.942 168.364 212.096 128.21 252.243 88.0626 299.116 56.4189 351.266 34.361 404.961 11.6513 462.312 0 521.618 0Z" fill="url(#fill54)" fill-rule="nonzero" transform="matrix(6.12346e-17 1.00004 -1 6.12323e-17 1245 -163.624)"/><path d="M521.618 0C580.396 0 637.277 11.5275 690.614 34.0873 742.335 55.9628 788.816 87.3262 828.67 127.187 868.525 167.041 899.895 213.523 921.77 265.243 944.33 318.58 955.857 375.462 955.857 434.24 955.857 493.017 944.33 549.899 921.77 603.236 899.895 654.956 868.531 701.438 828.67 741.292 788.816 781.146 742.335 812.516 690.614 834.392 637.277 856.952 580.396 868.479 521.618 868.479 462.84 868.479 405.958 856.952 352.622 834.392 300.901 812.516 254.42 781.153 214.565 741.292 174.711 701.438 143.341 654.956 121.466 603.236 98.9058 549.899 87.3783 493.017 87.3783 434.24 87.3783 375.462 98.9058 318.58 121.466 265.243 143.341 213.523 174.705 167.041 214.565 127.187 254.42 87.3327 300.901 55.9628 352.622 34.0873 405.958 11.5275 462.84 0 521.618 0Z" fill="url(#fill55)" fill-rule="nonzero" transform="matrix(6.12346e-17 1.00004 -1 6.12323e-17 1245 -163.624)"/><path d="M521.618 0C579.868 0 636.28 11.4037 689.252 33.8136 740.543 55.5067 786.633 86.6029 826.201 126.164 865.762 165.725 896.858 211.815 918.551 263.112 940.954 316.084 952.365 372.497 952.365 430.747 952.365 488.997 940.961 545.409 918.551 598.381 896.858 649.672 865.762 695.762 826.201 735.323 786.64 774.884 740.549 805.98 689.252 827.673 636.28 850.077 579.868 861.487 521.618 861.487 463.368 861.487 406.955 850.083 353.984 827.673 302.693 805.98 256.603 774.884 217.035 735.323 177.474 695.762 146.378 649.672 124.685 598.381 102.281 545.409 90.8711 488.997 90.8711 430.747 90.8711 372.497 102.275 316.084 124.685 263.112 146.378 211.822 177.474 165.731 217.035 126.164 256.596 86.6029 302.687 55.5067 353.984 33.8136 406.955 11.4037 463.368 0 521.618 0Z" fill="url(#fill56)" fill-rule="nonzero" transform="matrix(6.12346e-17 1.00004 -1 6.12323e-17 1245 -163.624)"/><path d="M94.3704 427.247C94.3704 369.525 105.657 313.582 127.904 260.975 149.414 210.108 180.237 164.409 219.505 125.141 258.773 85.8731 304.472 55.057 355.339 33.5399 407.952 11.2864 463.896 0 521.618 0 579.34 0 635.283 11.2864 687.89 33.5334 738.757 55.0505 784.457 85.8665 823.724 125.134 862.992 164.402 893.808 210.102 915.325 260.969 937.579 313.582 948.859 369.525 948.859 427.241 948.859 484.957 937.572 540.906 915.325 593.513 893.808 644.38 862.992 690.08 823.724 729.348 784.457 768.615 738.757 799.431 687.89 820.948 635.277 843.202 579.334 854.482 521.618 854.482 463.902 854.482 407.952 843.195 355.346 820.948 304.479 799.431 258.779 768.615 219.511 729.348 180.243 690.08 149.427 644.38 127.91 593.513 105.657 540.9 94.377 484.957 94.377 427.241Z" fill="#000000" fill-rule="nonzero" fill-opacity="1" transform="matrix(6.12346e-17 1.00004 -1 6.12323e-17 1245 -163.624)"/><path d="M779.009 493.356C779.009 635.509 663.771 750.747 521.618 750.747 379.465 750.747 264.227 635.509 264.227 493.356 264.227 351.203 379.465 235.965 521.618 235.965 663.771 235.965 779.009 351.203 779.009 493.356Z" fill="url(#fill57)" fill-rule="nonzero" transform="matrix(6.12346e-17 1.00004 -1 6.12323e-17 1245 -163.624)"/><path d="M521.618 235.972C556.885 235.972 590.503 243.107 621.11 256.055 651.692 268.99 679.236 287.699 702.383 310.839 725.535 333.991 744.257 361.536 757.199 392.131 770.147 422.745 777.282 456.363 777.282 491.636 777.282 526.909 770.147 560.521 757.199 591.128 744.264 621.71 725.555 649.255 702.415 672.401 679.263 695.554 651.718 714.275 621.123 727.217 590.509 740.165 556.891 747.3 521.618 747.3 486.345 747.3 452.733 740.165 422.126 727.217 391.544 714.282 363.999 695.573 340.853 672.433 317.7 649.281 298.979 621.736 286.037 591.141 273.089 560.527 265.954 526.909 265.954 491.636 265.954 456.363 273.089 422.751 286.037 392.144 298.972 361.562 317.681 334.017 340.821 310.871 363.973 287.718 391.518 268.997 422.113 256.055 452.727 243.107 486.345 235.972 521.618 235.972Z" fill="url(#fill58)" fill-rule="nonzero" transform="matrix(6.12346e-17 1.00004 -1 6.12323e-17 1245 -163.624)"/><path d="M521.618 235.972C556.624 235.972 590.007 243.049 620.439 255.918 650.812 268.762 678.161 287.334 701.164 310.33 724.174 333.333 742.758 360.696 755.609 391.075 768.479 421.507 775.562 454.897 775.562 489.909 775.562 524.922 768.485 558.299 755.615 588.73 742.771 619.103 724.2 646.452 701.203 669.455 678.2 692.465 650.838 711.049 620.459 723.9 590.027 736.77 556.637 743.853 521.624 743.853 486.612 743.853 453.235 736.776 422.803 723.906 392.43 711.062 365.081 692.491 342.078 669.494 319.069 646.492 300.484 619.129 287.634 588.75 274.764 558.318 267.68 524.928 267.68 489.916 267.68 454.903 274.757 421.526 287.627 391.094 300.471 360.722 319.043 333.372 342.039 310.369 365.042 287.36 392.404 268.775 422.784 255.925 453.215 243.055 486.605 235.972 521.618 235.972Z" fill="url(#fill59)" fill-rule="nonzero" transform="matrix(6.12346e-17 1.00004 -1 6.12323e-17 1245 -163.624)"/><path d="M521.618 235.972C556.363 235.972 589.519 242.99 619.768 255.782 649.932 268.534 677.086 286.976 699.946 309.829 722.812 332.688 741.26 359.855 754.019 390.026 766.81 420.281 773.835 453.437 773.835 488.189 773.835 522.941 766.817 556.09 754.025 586.339 741.273 616.503 722.831 643.657 699.978 666.51 677.119 689.376 649.952 707.824 619.781 720.583 589.525 733.381 556.37 740.399 521.618 740.399 486.866 740.399 453.717 733.381 423.468 720.59 393.304 707.837 366.15 689.395 343.29 666.543 320.424 643.683 301.976 616.516 289.217 586.345 276.419 556.09 269.401 522.934 269.401 488.182 269.401 453.43 276.419 420.281 289.211 390.032 301.963 359.868 320.405 332.714 343.258 309.855 366.117 286.989 393.284 268.541 423.455 255.782 453.711 242.99 486.866 235.965 521.618 235.965Z" fill="url(#fill60)" fill-rule="nonzero" transform="matrix(6.12346e-17 1.00004 -1 6.12323e-17 1245 -163.624)"/><path d="M521.618 235.972C556.103 235.972 589.023 242.931 619.097 255.645 649.046 268.313 676.011 286.617 698.72 309.32 721.437 332.036 739.754 359.008 752.422 388.97 765.142 419.043 772.102 451.971 772.102 486.462 772.102 520.953 765.142 553.868 752.429 583.941 739.761 613.89 721.456 640.855 698.753 663.565 676.037 686.281 649.066 704.598 619.103 717.266 589.03 729.986 556.103 736.946 521.611 736.946 487.12 736.946 454.206 729.986 424.133 717.273 394.183 704.605 367.218 686.3 344.509 663.597 321.793 640.881 303.475 613.91 290.807 583.947 278.087 553.874 271.128 520.947 271.128 486.455 271.128 451.964 278.087 419.05 290.801 388.977 303.469 359.027 321.773 332.062 344.476 309.353 367.192 286.637 394.164 268.319 424.126 255.651 454.199 242.931 487.127 235.972 521.618 235.972Z" fill="url(#fill61)" fill-rule="nonzero" transform="matrix(6.12346e-17 1.00004 -1 6.12323e-17 1245 -163.624)"/><path d="M521.618 235.972C555.842 235.972 588.535 242.866 618.425 255.508 648.166 268.085 674.936 286.252 697.502 308.818 720.075 331.391 738.255 358.167 750.839 387.914 763.48 417.812 770.381 450.504 770.381 484.735 770.381 518.966 763.487 551.652 750.845 581.543 738.268 611.284 720.101 638.053 697.535 660.619 674.962 683.192 648.186 701.373 618.438 713.956 588.541 726.598 555.849 733.498 521.618 733.498 487.387 733.498 454.701 726.604 424.81 713.962 395.07 701.386 368.3 683.218 345.734 660.652 323.161 638.079 304.98 611.303 292.397 581.556 279.755 551.658 272.854 518.966 272.854 484.735 272.854 450.504 279.749 417.818 292.391 387.928 304.967 358.187 323.135 331.417 345.701 308.851 368.274 286.278 395.05 268.098 424.797 255.514 454.695 242.873 487.387 235.972 521.618 235.972Z" fill="url(#fill62)" fill-rule="nonzero" transform="matrix(6.12346e-17 1.00004 -1 6.12323e-17 1245 -163.624)"/><path d="M521.618 235.972C555.581 235.972 588.039 242.807 617.754 255.371 647.28 267.856 673.867 285.894 696.283 308.31 718.713 330.733 736.757 357.32 749.249 386.859 761.819 416.574 768.654 449.038 768.654 483.008 768.654 516.978 761.819 549.43 749.255 579.145 736.77 608.67 718.732 635.257 696.316 657.674 673.893 680.103 647.306 698.147 617.767 710.639 588.053 723.209 555.588 730.045 521.618 730.045 487.648 730.045 455.196 723.209 425.482 710.646 395.956 698.16 369.369 680.123 346.952 657.706 324.523 635.283 306.479 608.696 293.987 579.158 281.417 549.443 274.581 516.978 274.581 483.008 274.581 449.038 281.417 416.587 293.981 386.872 306.466 357.346 324.503 330.759 346.92 308.343 369.343 285.913 395.93 267.869 425.468 255.378 455.183 242.807 487.648 235.972 521.618 235.972Z" fill="url(#fill63)" fill-rule="nonzero" transform="matrix(6.12346e-17 1.00004 -1 6.12323e-17 1245 -163.624)"/><path d="M521.618 235.972C555.321 235.972 587.551 242.749 617.083 255.241 646.4 267.641 672.792 285.542 695.065 307.815 717.351 330.095 735.258 356.492 747.659 385.816 760.151 415.355 766.928 447.585 766.928 481.294 766.928 515.004 760.151 547.227 747.659 576.76 735.258 606.077 717.357 632.468 695.084 654.741 672.805 677.027 646.407 694.934 617.083 707.335 587.544 719.827 555.314 726.604 521.605 726.604 487.896 726.604 455.672 719.827 426.14 707.335 396.822 694.934 370.431 677.034 348.158 654.761 325.878 632.481 307.965 606.083 295.564 576.76 283.072 547.221 276.295 514.991 276.295 481.281 276.295 447.572 283.072 415.349 295.564 385.816 307.965 356.499 325.865 330.108 348.138 307.835 370.418 285.548 396.816 267.641 426.14 255.241 455.678 242.749 487.909 235.972 521.618 235.972Z" fill="url(#fill64)" fill-rule="nonzero" transform="matrix(6.12346e-17 1.00004 -1 6.12323e-17 1245 -163.624)"/><path d="M521.618 235.972C555.06 235.972 587.056 242.69 616.412 255.104 645.521 267.413 671.717 285.177 693.846 307.307 715.982 329.443 733.759 355.645 746.069 384.761 758.489 414.123 765.201 446.119 765.201 479.568 765.201 513.016 758.482 545.005 746.069 574.362 733.759 603.47 715.995 629.666 693.866 651.796 671.73 673.932 645.527 691.709 616.412 704.018 587.049 716.432 555.054 723.15 521.605 723.15 488.156 723.15 456.167 716.432 426.811 704.018 397.702 691.709 371.506 673.945 349.377 651.815 327.24 629.679 309.464 603.477 297.154 574.362 284.734 545.005 278.022 513.003 278.022 479.555 278.022 446.106 284.74 414.117 297.154 384.761 309.464 355.652 327.227 329.456 349.357 307.326 371.493 285.19 397.696 267.413 426.811 255.104 456.167 242.69 488.169 235.972 521.618 235.972Z" fill="url(#fill65)" fill-rule="nonzero" transform="matrix(6.12346e-17 1.00004 -1 6.12323e-17 1245 -163.624)"/><path d="M521.618 235.972C554.799 235.972 586.567 242.625 615.741 254.967 644.634 267.185 670.641 284.819 692.628 306.798 714.62 328.785 732.26 354.798 744.485 383.705 756.827 412.885 763.48 444.653 763.48 477.841 763.48 511.029 756.827 542.79 744.485 571.964 732.267 600.857 714.634 626.864 692.654 648.85 670.667 670.843 644.654 688.483 615.747 700.708 586.567 713.05 554.799 719.703 521.611 719.703 488.423 719.703 456.662 713.05 427.489 700.708 398.595 688.49 372.588 670.856 350.602 648.877 328.609 626.89 310.969 600.877 298.744 571.97 286.402 542.79 279.749 511.022 279.749 477.834 279.749 444.646 286.402 412.885 298.744 383.711 310.962 354.818 328.596 328.811 350.576 306.824 372.562 284.832 398.575 267.192 427.482 254.967 456.662 242.625 488.43 235.972 521.618 235.972Z" fill="url(#fill66)" fill-rule="nonzero" transform="matrix(6.12346e-17 1.00004 -1 6.12323e-17 1245 -163.624)"/><path d="M521.618 235.972C554.539 235.972 586.072 242.566 615.07 254.83 643.755 266.964 669.566 284.46 691.409 306.297 713.259 328.14 730.762 353.958 742.895 382.649 755.159 411.654 761.754 443.187 761.754 476.114 761.754 509.041 755.159 540.568 742.895 569.565 730.762 598.251 713.265 624.062 691.429 645.905 669.586 667.755 643.768 685.258 615.076 697.391 586.072 709.655 554.539 716.25 521.611 716.25 488.684 716.25 457.158 709.655 428.16 697.391 399.475 685.258 373.663 667.761 351.82 645.925 329.971 624.082 312.468 598.264 300.334 569.572 288.07 540.568 281.476 509.035 281.476 476.107 281.476 443.18 288.07 411.654 300.334 382.656 312.468 353.971 329.964 328.159 351.801 306.316 373.644 284.467 399.462 266.964 428.153 254.83 457.158 242.566 488.691 235.972 521.618 235.972Z" fill="url(#fill67)" fill-rule="nonzero" transform="matrix(6.12346e-17 1.00004 -1 6.12323e-17 1245 -163.624)"/><path d="M521.618 235.972C554.278 235.972 585.583 242.508 614.398 254.693 642.875 266.736 668.491 284.095 690.191 305.788 711.89 327.488 729.263 353.117 741.305 381.594 753.497 410.416 760.033 441.72 760.033 474.381 760.033 507.041 753.497 538.345 741.312 567.161 729.269 595.638 711.91 621.254 690.217 642.953 668.517 664.653 642.888 682.025 614.411 694.068 585.589 706.26 554.285 712.796 521.618 712.796 488.951 712.796 457.653 706.26 428.837 694.074 400.361 682.032 374.738 664.672 353.045 642.979 331.346 621.28 313.973 595.651 301.931 567.174 289.738 538.352 283.203 507.047 283.203 474.381 283.203 441.714 289.738 410.416 301.924 381.6 313.966 353.123 331.326 327.508 353.019 305.808 374.719 284.108 400.348 266.736 428.824 254.693 457.646 242.501 488.951 235.965 521.618 235.965Z" fill="url(#fill68)" fill-rule="nonzero" transform="matrix(6.12346e-17 1.00004 -1 6.12323e-17 1245 -163.624)"/><path d="M521.618 235.972C554.017 235.972 585.088 242.442 613.727 254.556 641.989 266.508 667.422 283.737 688.972 305.287 710.528 326.843 727.764 352.276 739.715 380.544 751.829 409.191 758.306 440.267 758.306 472.66 758.306 505.053 751.836 536.13 739.722 564.769 727.771 593.031 710.541 618.465 688.991 640.014 667.435 661.57 642.002 678.806 613.734 690.757 585.088 702.871 554.011 709.349 521.618 709.349 489.225 709.349 458.148 702.878 429.509 690.764 401.247 678.813 375.814 661.584 354.264 640.034 332.708 618.478 315.472 593.044 303.521 564.776 291.407 536.13 284.929 505.053 284.929 472.66 284.929 440.267 291.4 409.191 303.514 380.551 315.465 352.289 332.695 326.856 354.244 305.306 375.801 283.75 401.234 266.514 429.502 254.563 458.148 242.449 489.225 235.972 521.618 235.972Z" fill="url(#fill69)" fill-rule="nonzero" transform="matrix(6.12346e-17 1.00004 -1 6.12323e-17 1245 -163.624)"/><path d="M521.618 235.972C553.757 235.972 584.592 242.384 613.056 254.42 641.109 266.286 666.347 283.378 687.753 304.778 709.166 326.185 726.265 351.429 738.132 379.489 750.167 407.952 756.586 438.801 756.586 470.933 756.586 503.066 750.174 533.908 738.138 562.371 726.272 590.424 709.179 615.662 687.779 637.069 666.373 658.482 641.129 675.581 613.069 687.447 584.605 699.483 553.757 705.902 521.624 705.902 489.492 705.902 458.65 699.489 430.186 687.454 402.133 675.587 376.895 658.495 355.489 637.095 334.076 615.689 316.977 590.444 305.111 562.384 293.075 533.921 286.656 503.072 286.656 470.94 286.656 438.808 293.068 407.965 305.104 379.502 316.97 351.449 334.063 326.211 355.463 304.804 376.869 283.392 402.114 266.292 430.173 254.426 458.637 242.39 489.486 235.972 521.618 235.972Z" fill="url(#fill70)" fill-rule="nonzero" transform="matrix(6.12346e-17 1.00004 -1 6.12323e-17 1245 -163.624)"/><path d="M521.618 235.972C553.49 235.972 584.104 242.325 612.385 254.289 640.229 266.064 665.272 283.02 686.535 304.283 707.798 325.546 724.766 350.595 736.542 378.446 748.506 406.734 754.859 437.348 754.859 469.22 754.859 501.091 748.506 531.705 736.542 559.986 724.766 587.824 707.811 612.873 686.548 634.136 665.285 655.399 640.236 672.368 612.385 684.143 584.097 696.107 553.483 702.461 521.611 702.461 489.74 702.461 459.126 696.107 430.844 684.143 403.006 672.368 377.957 655.412 356.694 634.149 335.431 612.887 318.463 587.838 306.688 559.993 294.724 531.705 288.37 501.091 288.37 469.22 288.37 437.348 294.724 406.734 306.688 378.453 318.463 350.608 335.418 325.566 356.681 304.303 377.944 283.04 402.993 266.071 430.844 254.296 459.132 242.332 489.746 235.978 521.618 235.978Z" fill="url(#fill71)" fill-rule="nonzero" transform="matrix(6.12346e-17 1.00004 -1 6.12323e-17 1245 -163.624)"/><path d="M521.618 235.972C553.229 235.972 583.608 242.267 611.714 254.152 639.343 265.836 664.197 282.662 685.316 303.775 706.436 324.894 723.268 349.748 734.952 377.384 746.838 405.489 753.132 435.875 753.132 467.486 753.132 499.097 746.838 529.477 734.952 557.588 723.268 585.218 706.442 610.071 685.329 631.191 664.21 652.311 639.356 669.143 611.72 680.826 583.615 692.712 553.229 699.007 521.618 699.007 490.007 699.007 459.627 692.712 431.516 680.826 403.886 669.143 379.033 652.317 357.913 631.204 336.793 610.084 319.962 585.231 308.278 557.595 296.392 529.49 290.097 499.104 290.097 467.493 290.097 435.882 296.392 405.502 308.278 377.391 319.962 349.761 336.787 324.907 357.9 303.788 379.02 282.668 403.873 265.836 431.509 254.152 459.614 242.267 490 235.972 521.611 235.972Z" fill="url(#fill72)" fill-rule="nonzero" transform="matrix(6.12346e-17 1.00004 -1 6.12323e-17 1245 -163.624)"/><path d="M521.618 235.972C552.968 235.972 583.12 242.201 611.049 254.016 638.47 265.615 663.128 282.303 684.104 303.273 705.081 324.243 721.776 348.914 733.368 376.335 745.182 404.264 751.412 434.415 751.412 465.766 751.412 497.116 745.182 527.268 733.368 555.197 721.769 582.618 705.081 607.276 684.111 628.252 663.134 649.228 638.47 665.923 611.049 677.516 583.12 689.33 552.968 695.56 521.618 695.56 490.267 695.56 460.116 689.33 432.187 677.516 404.766 665.917 380.108 649.228 359.132 628.259 338.155 607.289 321.46 582.618 309.868 555.197 298.053 527.268 291.824 497.116 291.824 465.766 291.824 434.415 298.053 404.264 309.868 376.335 321.467 348.914 338.155 324.256 359.125 303.28 380.095 282.303 404.766 265.608 432.187 254.016 460.116 242.201 490.267 235.972 521.618 235.972Z" fill="url(#fill73)" fill-rule="nonzero" transform="matrix(6.12346e-17 1.00004 -1 6.12323e-17 1245 -163.624)"/><path d="M521.618 235.972C552.708 235.972 582.624 242.143 610.378 253.879 637.584 265.387 662.059 281.938 682.886 302.765 703.712 323.591 720.277 348.067 731.785 375.279 743.521 403.026 749.692 432.949 749.692 464.039 749.692 495.129 743.521 525.045 731.785 552.799 720.277 580.005 703.725 604.48 682.899 625.3 662.072 646.127 637.597 662.691 610.384 674.199 582.637 685.935 552.714 692.106 521.624 692.106 490.535 692.106 460.618 685.935 432.865 674.199 405.659 662.691 381.183 646.14 360.357 625.313 339.53 604.487 322.966 580.011 311.458 552.799 299.722 525.052 293.551 495.129 293.551 464.039 293.551 432.949 299.722 403.033 311.458 375.279 322.966 348.073 339.517 323.598 360.344 302.771 381.17 281.938 405.646 265.38 432.858 253.872 460.605 242.136 490.528 235.965 521.618 235.965Z" fill="url(#fill74)" fill-rule="nonzero" transform="matrix(6.12346e-17 1.00004 -1 6.12323e-17 1245 -163.624)"/><path d="M521.618 235.972C552.447 235.972 582.136 242.084 609.707 253.742 636.704 265.159 660.984 281.58 681.661 302.256 702.344 322.94 718.765 347.22 730.188 374.224 741.846 401.794 747.958 431.483 747.958 462.312 747.958 493.141 741.846 522.83 730.188 550.401 718.771 577.398 702.35 601.678 681.674 622.355 660.991 643.038 636.71 659.466 609.707 670.882 582.136 682.54 552.447 688.653 521.618 688.653 490.789 688.653 461.1 682.54 433.529 670.882 406.532 659.466 382.252 643.044 361.575 622.368 340.892 601.685 324.471 577.405 313.048 550.401 301.39 522.83 295.277 493.141 295.277 462.312 295.277 431.483 301.39 401.794 313.048 374.224 324.464 347.226 340.886 322.946 361.562 302.27 382.245 281.586 406.525 265.159 433.529 253.742 461.1 242.084 490.789 235.972 521.618 235.972Z" fill="url(#fill75)" fill-rule="nonzero" transform="matrix(6.12346e-17 1.00004 -1 6.12323e-17 1245 -163.624)"/><path d="M521.618 235.972C552.186 235.972 581.64 242.025 609.035 253.605 635.824 264.931 659.909 281.222 680.442 301.755 700.982 322.294 717.266 346.379 728.598 373.168 740.184 400.563 746.238 430.017 746.238 460.585 746.238 491.154 740.184 520.608 728.605 548.003 717.279 574.792 700.988 598.876 680.455 619.409 659.915 639.949 635.831 656.234 609.042 667.566 581.647 679.152 552.193 685.206 521.624 685.206 491.056 685.206 461.602 679.152 434.207 667.572 407.418 656.247 383.333 639.956 362.8 619.422 342.261 598.883 325.976 574.798 314.644 548.009 303.058 520.614 297.004 491.16 297.004 460.592 297.004 430.023 303.058 400.569 314.638 373.174 325.963 346.385 342.254 322.301 362.787 301.768 383.327 281.228 407.412 264.944 434.207 253.612 461.602 242.025 491.056 235.972 521.624 235.972Z" fill="url(#fill76)" fill-rule="nonzero" transform="matrix(6.12346e-17 1.00004 -1 6.12323e-17 1245 -163.624)"/><path d="M521.618 235.972C551.926 235.972 581.152 241.96 608.364 253.468 634.938 264.709 658.834 280.857 679.223 301.246 699.62 321.636 715.767 345.538 727.015 372.112 738.523 399.325 744.518 428.551 744.518 458.858 744.518 489.166 738.529 518.392 727.021 545.605 715.78 572.179 699.633 596.074 679.243 616.464 658.853 636.86 634.951 653.008 608.377 664.255 581.165 675.763 551.939 681.758 521.631 681.758 491.323 681.758 462.097 675.77 434.885 664.262 408.311 653.021 384.415 636.873 364.025 616.484 343.629 596.094 327.481 572.192 316.234 545.618 304.726 518.405 298.731 489.179 298.731 458.872 298.731 428.564 304.72 399.338 316.228 372.125 327.468 345.551 343.616 321.656 364.006 301.266 384.396 280.87 408.298 264.722 434.872 253.475 462.084 241.967 491.31 235.972 521.618 235.972Z" fill="url(#fill77)" fill-rule="nonzero" transform="matrix(6.12346e-17 1.00004 -1 6.12323e-17 1245 -163.624)"/><path d="M521.618 235.972C551.665 235.972 580.656 241.902 607.693 253.338 634.058 264.487 657.758 280.505 678.005 300.751 698.251 320.998 714.269 344.704 725.425 371.07 736.861 398.106 742.791 427.098 742.791 457.145 742.791 487.192 736.861 516.183 725.425 543.22 714.275 569.585 698.258 593.285 678.011 613.532 657.765 633.778 634.058 649.795 607.693 660.951 580.656 672.388 551.665 678.318 521.618 678.318 491.571 678.318 462.579 672.388 435.543 660.951 409.177 649.802 385.477 633.785 365.231 613.538 344.984 593.292 328.967 569.585 317.811 543.22 306.375 516.183 300.445 487.192 300.445 457.145 300.445 427.098 306.375 398.106 317.811 371.07 328.961 344.704 344.978 321.004 365.224 300.758 385.471 280.511 409.177 264.494 435.543 253.338 462.579 241.902 491.571 235.972 521.618 235.972Z" fill="url(#fill78)" fill-rule="nonzero" transform="matrix(6.12346e-17 1.00004 -1 6.12323e-17 1245 -163.624)"/><path d="M521.618 235.972C551.404 235.972 580.168 241.843 607.022 253.201 633.179 264.259 656.683 280.146 676.786 300.243 696.889 320.346 712.77 343.857 723.835 370.014 735.193 396.868 741.064 425.631 741.064 455.418 741.064 485.204 735.193 513.968 723.835 540.822 712.776 566.972 696.889 590.483 676.793 610.586 656.69 630.689 633.179 646.57 607.022 657.635 580.168 668.993 551.404 674.864 521.618 674.864 491.831 674.864 463.068 668.993 436.214 657.635 410.057 646.576 386.553 630.689 366.449 610.593 346.346 590.49 330.466 566.979 319.401 540.822 308.043 513.968 302.172 485.204 302.172 455.418 302.172 425.631 308.043 396.868 319.401 370.014 330.459 343.857 346.346 320.353 366.443 300.249 386.546 280.146 410.057 264.266 436.214 253.201 463.068 241.843 491.831 235.972 521.618 235.972Z" fill="url(#fill79)" fill-rule="nonzero" transform="matrix(6.12346e-17 1.00004 -1 6.12323e-17 1245 -163.624)"/><path d="M521.618 235.972C551.144 235.972 579.672 241.778 606.351 253.064 632.292 264.038 655.615 279.781 675.568 299.741 695.527 319.701 711.271 343.017 722.245 368.965 733.525 395.643 739.337 424.172 739.337 453.697 739.337 483.223 733.531 511.752 722.245 538.43 711.271 564.372 695.527 587.694 675.568 607.647 655.608 627.607 632.292 643.351 606.344 654.324 579.666 665.604 551.137 671.417 521.611 671.417 492.086 671.417 463.557 665.611 436.879 654.324 410.937 643.351 387.615 627.607 367.662 607.647 347.702 587.688 331.958 564.372 320.985 538.424 309.705 511.746 303.892 483.217 303.892 453.691 303.892 424.165 309.698 395.636 320.985 368.958 331.958 343.017 347.702 319.694 367.662 299.741 387.621 279.781 410.937 264.038 436.885 253.064 463.563 241.784 492.092 235.972 521.618 235.972Z" fill="url(#fill80)" fill-rule="nonzero" transform="matrix(6.12346e-17 1.00004 -1 6.12323e-17 1245 -163.624)"/><path d="M521.618 235.972C550.883 235.972 579.184 241.719 605.679 252.927 631.413 263.81 654.539 279.423 674.349 299.233 694.159 319.043 709.772 342.169 720.661 367.903 731.869 394.398 737.617 422.699 737.617 451.964 737.617 481.229 731.869 509.53 720.661 536.026 709.779 561.759 694.166 584.886 674.356 604.695 654.546 624.505 631.419 640.119 605.686 651.007 579.19 662.216 550.89 667.963 521.624 667.963 492.359 667.963 464.065 662.216 437.563 651.007 411.83 640.125 388.703 624.512 368.893 604.702 349.083 584.892 333.47 561.765 322.581 536.032 311.373 509.536 305.625 481.236 305.625 451.971 305.625 422.706 311.373 394.405 322.581 367.909 333.464 342.176 349.077 319.049 368.887 299.239 388.696 279.43 411.823 263.816 437.556 252.927 464.052 241.719 492.353 235.972 521.618 235.972Z" fill="url(#fill81)" fill-rule="nonzero" transform="matrix(6.12346e-17 1.00004 -1 6.12323e-17 1245 -163.624)"/><path d="M521.618 235.972C550.622 235.972 578.688 241.661 605.008 252.791 630.526 263.582 653.464 279.065 673.131 298.725 692.797 318.391 708.274 341.329 719.071 366.847 730.201 393.167 735.89 421.233 735.89 450.237 735.89 479.242 730.201 507.308 719.071 533.628 708.28 559.146 692.797 582.083 673.137 601.75 653.471 621.417 630.533 636.893 605.015 647.691 578.695 658.821 550.629 664.509 521.624 664.509 492.62 664.509 464.554 658.821 438.234 647.691 412.716 636.899 389.778 621.417 370.112 601.757 350.445 582.09 334.969 559.152 324.171 533.634 313.041 507.314 307.352 479.248 307.352 450.244 307.352 421.239 313.041 393.173 324.171 366.853 334.962 341.335 350.445 318.398 370.105 298.731 389.772 279.065 412.709 263.588 438.228 252.791 464.547 241.661 492.613 235.972 521.618 235.972Z" fill="url(#fill82)" fill-rule="nonzero" transform="matrix(6.12346e-17 1.00004 -1 6.12323e-17 1245 -163.624)"/><path d="M521.618 235.972C550.362 235.972 578.193 241.602 604.337 252.654 629.647 263.36 652.389 278.7 671.912 298.223 691.435 317.746 706.775 340.488 717.481 365.798 728.539 391.935 734.163 419.773 734.163 448.517 734.163 477.261 728.533 505.092 717.481 531.236 706.775 556.546 691.435 579.288 671.912 598.811 652.389 618.334 629.647 633.674 604.337 644.38 578.2 655.439 550.362 661.062 521.618 661.062 492.874 661.062 465.043 655.432 438.899 644.38 413.589 633.674 390.847 618.334 371.324 598.811 351.801 579.288 336.461 556.546 325.755 531.236 314.696 505.099 309.073 477.261 309.073 448.517 309.073 419.773 314.703 391.942 325.755 365.798 336.461 340.488 351.801 317.746 371.324 298.223 390.847 278.7 413.589 263.36 438.899 252.654 465.036 241.595 492.874 235.972 521.618 235.972Z" fill="url(#fill83)" fill-rule="nonzero" transform="matrix(6.12346e-17 1.00004 -1 6.12323e-17 1245 -163.624)"/><path d="M310.793 446.79C310.793 418.307 316.358 390.704 327.338 364.742 337.953 339.641 353.163 317.094 372.536 297.715 391.909 278.341 414.462 263.132 439.563 252.517 465.525 241.537 493.128 235.972 521.611 235.972 550.095 235.972 577.698 241.537 603.659 252.517 628.76 263.132 651.307 278.341 670.687 297.715 690.06 317.088 705.269 339.641 715.885 364.742 726.865 390.704 732.43 418.307 732.43 446.79 732.43 475.273 726.865 502.877 715.885 528.838 705.269 553.939 690.06 576.486 670.687 595.866 651.307 615.239 628.76 630.448 603.659 641.063 577.698 652.044 550.095 657.609 521.611 657.609 493.128 657.609 465.525 652.044 439.563 641.063 414.462 630.448 391.916 615.239 372.536 595.866 353.163 576.492 337.953 553.939 327.338 528.838 316.358 502.877 310.793 475.273 310.793 446.79Z" fill="#000000" fill-rule="nonzero" fill-opacity="1" transform="matrix(6.12346e-17 1.00004 -1 6.12323e-17 1245 -163.624)"/></g></g></g></svg>