<svg width="660" height="955" xmlns="http://www.w3.org/2000/svg" xmlns:xlink="http://www.w3.org/1999/xlink" xml:space="preserve" overflow="hidden"><defs><clipPath id="clip0"><rect x="1348" y="-109" width="660" height="955"/></clipPath><clipPath id="clip1"><rect x="1348" y="-109" width="660" height="955"/></clipPath><linearGradient x1="0" y1="132.003" x2="263.998" y2="132.003" gradientUnits="userSpaceOnUse" spreadMethod="pad" id="fill2"><stop offset="0" stop-color="#9F77E9" stop-opacity="1"/><stop offset="0.39" stop-color="#2B28AF" stop-opacity="1"/><stop offset="0.47" stop-color="#24238D" stop-opacity="1"/><stop offset="0.59" stop-color="#1D1D63" stop-opacity="1"/><stop offset="0.71" stop-color="#161842" stop-opacity="1"/><stop offset="0.81" stop-color="#12152A" stop-opacity="1"/><stop offset="0.91" stop-color="#0F131B" stop-opacity="1"/><stop offset="1" stop-color="#0F1317" stop-opacity="1"/></linearGradient><linearGradient x1="132.003" y1="132.003" x2="396.002" y2="132.003" gradientUnits="userSpaceOnUse" spreadMethod="pad" id="fill3"><stop offset="0" stop-color="#9F77E9" stop-opacity="1"/><stop offset="0.39" stop-color="#2B28AF" stop-opacity="1"/><stop offset="0.47" stop-color="#24238D" stop-opacity="1"/><stop offset="0.59" stop-color="#1D1D63" stop-opacity="1"/><stop offset="0.71" stop-color="#161842" stop-opacity="1"/><stop offset="0.81" stop-color="#12152A" stop-opacity="1"/><stop offset="0.91" stop-color="#0F131B" stop-opacity="1"/><stop offset="1" stop-color="#0F1317" stop-opacity="1"/></linearGradient><linearGradient x1="263.998" y1="132.003" x2="527.997" y2="132.003" gradientUnits="userSpaceOnUse" spreadMethod="pad" id="fill4"><stop offset="0" stop-color="#9F77E9" stop-opacity="1"/><stop offset="0.39" stop-color="#2B28AF" stop-opacity="1"/><stop offset="0.47" stop-color="#24238D" stop-opacity="1"/><stop offset="0.59" stop-color="#1D1D63" stop-opacity="1"/><stop offset="0.71" stop-color="#161842" stop-opacity="1"/><stop offset="0.81" stop-color="#12152A" stop-opacity="1"/><stop offset="0.91" stop-color="#0F131B" stop-opacity="1"/><stop offset="1" stop-color="#0F1317" stop-opacity="1"/></linearGradient><linearGradient x1="396.002" y1="132.003" x2="660" y2="132.003" gradientUnits="userSpaceOnUse" spreadMethod="pad" id="fill5"><stop offset="0" stop-color="#9F77E9" stop-opacity="1"/><stop offset="0.39" stop-color="#2B28AF" stop-opacity="1"/><stop offset="0.47" stop-color="#24238D" stop-opacity="1"/><stop offset="0.59" stop-color="#1D1D63" stop-opacity="1"/><stop offset="0.71" stop-color="#161842" stop-opacity="1"/><stop offset="0.81" stop-color="#12152A" stop-opacity="1"/><stop offset="0.91" stop-color="#0F131B" stop-opacity="1"/><stop offset="1" stop-color="#0F1317" stop-opacity="1"/></linearGradient><linearGradient x1="660" y1="363.005" x2="396.002" y2="363.005" gradientUnits="userSpaceOnUse" spreadMethod="pad" id="fill6"><stop offset="0" stop-color="#9F77E9" stop-opacity="1"/><stop offset="0.39" stop-color="#2B28AF" stop-opacity="1"/><stop offset="0.47" stop-color="#24238D" stop-opacity="1"/><stop offset="0.59" stop-color="#1D1D63" stop-opacity="1"/><stop offset="0.71" stop-color="#161842" stop-opacity="1"/><stop offset="0.81" stop-color="#12152A" stop-opacity="1"/><stop offset="0.91" stop-color="#0F131B" stop-opacity="1"/><stop offset="1" stop-color="#0F1317" stop-opacity="1"/></linearGradient><linearGradient x1="527.997" y1="363.005" x2="263.998" y2="363.005" gradientUnits="userSpaceOnUse" spreadMethod="pad" id="fill7"><stop offset="0" stop-color="#9F77E9" stop-opacity="1"/><stop offset="0.39" stop-color="#2B28AF" stop-opacity="1"/><stop offset="0.47" stop-color="#24238D" stop-opacity="1"/><stop offset="0.59" stop-color="#1D1D63" stop-opacity="1"/><stop offset="0.71" stop-color="#161842" stop-opacity="1"/><stop offset="0.81" stop-color="#12152A" stop-opacity="1"/><stop offset="0.91" stop-color="#0F131B" stop-opacity="1"/><stop offset="1" stop-color="#0F1317" stop-opacity="1"/></linearGradient><linearGradient x1="396.002" y1="363.005" x2="131.995" y2="363.005" gradientUnits="userSpaceOnUse" spreadMethod="pad" id="fill8"><stop offset="0" stop-color="#9F77E9" stop-opacity="1"/><stop offset="0.39" stop-color="#2B28AF" stop-opacity="1"/><stop offset="0.47" stop-color="#24238D" stop-opacity="1"/><stop offset="0.59" stop-color="#1D1D63" stop-opacity="1"/><stop offset="0.71" stop-color="#161842" stop-opacity="1"/><stop offset="0.81" stop-color="#12152A" stop-opacity="1"/><stop offset="0.91" stop-color="#0F131B" stop-opacity="1"/><stop offset="1" stop-color="#0F1317" stop-opacity="1"/></linearGradient><linearGradient x1="263.998" y1="363.005" x2="0" y2="363.005" gradientUnits="userSpaceOnUse" spreadMethod="pad" id="fill9"><stop offset="0" stop-color="#9F77E9" stop-opacity="1"/><stop offset="0.39" stop-color="#2B28AF" stop-opacity="1"/><stop offset="0.47" stop-color="#24238D" stop-opacity="1"/><stop offset="0.59" stop-color="#1D1D63" stop-opacity="1"/><stop offset="0.71" stop-color="#161842" stop-opacity="1"/><stop offset="0.81" stop-color="#12152A" stop-opacity="1"/><stop offset="0.91" stop-color="#0F131B" stop-opacity="1"/><stop offset="1" stop-color="#0F1317" stop-opacity="1"/></linearGradient><linearGradient x1="0" y1="592.716" x2="263.998" y2="592.716" gradientUnits="userSpaceOnUse" spreadMethod="pad" id="fill10"><stop offset="0" stop-color="#9F77E9" stop-opacity="1"/><stop offset="0.39" stop-color="#2B28AF" stop-opacity="1"/><stop offset="0.47" stop-color="#24238D" stop-opacity="1"/><stop offset="0.59" stop-color="#1D1D63" stop-opacity="1"/><stop offset="0.71" stop-color="#161842" stop-opacity="1"/><stop offset="0.81" stop-color="#12152A" stop-opacity="1"/><stop offset="0.91" stop-color="#0F131B" stop-opacity="1"/><stop offset="1" stop-color="#0F1317" stop-opacity="1"/></linearGradient><linearGradient x1="132.003" y1="592.716" x2="396.002" y2="592.716" gradientUnits="userSpaceOnUse" spreadMethod="pad" id="fill11"><stop offset="0" stop-color="#9F77E9" stop-opacity="1"/><stop offset="0.39" stop-color="#2B28AF" stop-opacity="1"/><stop offset="0.47" stop-color="#24238D" stop-opacity="1"/><stop offset="0.59" stop-color="#1D1D63" stop-opacity="1"/><stop offset="0.71" stop-color="#161842" stop-opacity="1"/><stop offset="0.81" stop-color="#12152A" stop-opacity="1"/><stop offset="0.91" stop-color="#0F131B" stop-opacity="1"/><stop offset="1" stop-color="#0F1317" stop-opacity="1"/></linearGradient><linearGradient x1="263.998" y1="592.716" x2="527.997" y2="592.716" gradientUnits="userSpaceOnUse" spreadMethod="pad" id="fill12"><stop offset="0" stop-color="#9F77E9" stop-opacity="1"/><stop offset="0.39" stop-color="#2B28AF" stop-opacity="1"/><stop offset="0.47" stop-color="#24238D" stop-opacity="1"/><stop offset="0.59" stop-color="#1D1D63" stop-opacity="1"/><stop offset="0.71" stop-color="#161842" stop-opacity="1"/><stop offset="0.81" stop-color="#12152A" stop-opacity="1"/><stop offset="0.91" stop-color="#0F131B" stop-opacity="1"/><stop offset="1" stop-color="#0F1317" stop-opacity="1"/></linearGradient><linearGradient x1="1744" y1="484.04" x2="2008" y2="484.04" gradientUnits="userSpaceOnUse" spreadMethod="pad" id="fill13"><stop offset="0" stop-color="#9F77E9" stop-opacity="1"/><stop offset="0.39" stop-color="#2B28AF" stop-opacity="1"/><stop offset="0.47" stop-color="#24238D" stop-opacity="1"/><stop offset="0.59" stop-color="#1D1D63" stop-opacity="1"/><stop offset="0.71" stop-color="#161842" stop-opacity="1"/><stop offset="0.81" stop-color="#12152A" stop-opacity="1"/><stop offset="0.91" stop-color="#0F131B" stop-opacity="1"/><stop offset="1" stop-color="#0F1317" stop-opacity="1"/></linearGradient><linearGradient x1="2008" y1="713.839" x2="1744" y2="713.839" gradientUnits="userSpaceOnUse" spreadMethod="pad" id="fill14"><stop offset="0" stop-color="#9F77E9" stop-opacity="1"/><stop offset="0.39" stop-color="#2B28AF" stop-opacity="1"/><stop offset="0.47" stop-color="#24238D" stop-opacity="1"/><stop offset="0.59" stop-color="#1D1D63" stop-opacity="1"/><stop offset="0.71" stop-color="#161842" stop-opacity="1"/><stop offset="0.81" stop-color="#12152A" stop-opacity="1"/><stop offset="0.91" stop-color="#0F131B" stop-opacity="1"/><stop offset="1" stop-color="#0F1317" stop-opacity="1"/></linearGradient><linearGradient x1="1876" y1="713.84" x2="1612" y2="713.84" gradientUnits="userSpaceOnUse" spreadMethod="pad" id="fill15"><stop offset="0" stop-color="#9F77E9" stop-opacity="1"/><stop offset="0.39" stop-color="#2B28AF" stop-opacity="1"/><stop offset="0.47" stop-color="#24238D" stop-opacity="1"/><stop offset="0.59" stop-color="#1D1D63" stop-opacity="1"/><stop offset="0.71" stop-color="#161842" stop-opacity="1"/><stop offset="0.81" stop-color="#12152A" stop-opacity="1"/><stop offset="0.91" stop-color="#0F131B" stop-opacity="1"/><stop offset="1" stop-color="#0F1317" stop-opacity="1"/></linearGradient><linearGradient x1="1744" y1="713.835" x2="1480" y2="713.835" gradientUnits="userSpaceOnUse" spreadMethod="pad" id="fill16"><stop offset="0" stop-color="#9F77E9" stop-opacity="1"/><stop offset="0.39" stop-color="#2B28AF" stop-opacity="1"/><stop offset="0.47" stop-color="#24238D" stop-opacity="1"/><stop offset="0.59" stop-color="#1D1D63" stop-opacity="1"/><stop offset="0.71" stop-color="#161842" stop-opacity="1"/><stop offset="0.81" stop-color="#12152A" stop-opacity="1"/><stop offset="0.91" stop-color="#0F131B" stop-opacity="1"/><stop offset="1" stop-color="#0F1317" stop-opacity="1"/></linearGradient><linearGradient x1="1612" y1="713.831" x2="1348" y2="713.831" gradientUnits="userSpaceOnUse" spreadMethod="pad" id="fill17"><stop offset="0" stop-color="#9F77E9" stop-opacity="1"/><stop offset="0.39" stop-color="#2B28AF" stop-opacity="1"/><stop offset="0.47" stop-color="#24238D" stop-opacity="1"/><stop offset="0.59" stop-color="#1D1D63" stop-opacity="1"/><stop offset="0.71" stop-color="#161842" stop-opacity="1"/><stop offset="0.81" stop-color="#12152A" stop-opacity="1"/><stop offset="0.91" stop-color="#0F131B" stop-opacity="1"/><stop offset="1" stop-color="#0F1317" stop-opacity="1"/></linearGradient></defs><g clip-path="url(#clip0)" transform="translate(-1348 109)"><g clip-path="url(#clip1)"><path d="M264.007 132.003C264.007 204.907 204.907 264.007 132.003 264.007 59.0999 264.007 1.48668e-06 204.907 1.48668e-06 132.003 1.48668e-06 59.0999 59.0999 1.48668e-06 132.003 1.48668e-06 204.907 1.48668e-06 264.007 59.0999 264.007 132.003Z" fill="url(#fill2)" fill-rule="nonzero" transform="matrix(1 0 0 1.00033 1348 -108.876)"/><path d="M396.002 132.003C396.002 204.907 336.902 264.007 263.998 264.007 191.095 264.007 131.995 204.907 131.995 132.003 131.995 59.0999 191.095 1.48668e-06 263.998 1.48668e-06 336.902 1.48668e-06 396.002 59.0999 396.002 132.003Z" fill="url(#fill3)" fill-rule="nonzero" transform="matrix(1 0 0 1.00033 1348 -108.876)"/><path d="M528.005 132.003C528.005 204.907 468.905 264.007 396.002 264.007 323.098 264.007 263.998 204.907 263.998 132.003 263.998 59.0999 323.098 1.48668e-06 396.002 1.48668e-06 468.905 1.48668e-06 528.005 59.0999 528.005 132.003Z" fill="url(#fill4)" fill-rule="nonzero" transform="matrix(1 0 0 1.00033 1348 -108.876)"/><path d="M660 132.003C660 204.907 600.9 264.007 527.997 264.007 455.093 264.007 395.993 204.907 395.993 132.003 395.993 59.0999 455.093 1.48668e-06 527.997 1.48668e-06 600.9 1.48668e-06 660 59.0999 660 132.003Z" fill="url(#fill5)" fill-rule="nonzero" transform="matrix(1 0 0 1.00033 1348 -108.876)"/><path d="M660 363.005C660 435.908 600.9 495.008 527.997 495.008 455.093 495.008 395.993 435.908 395.993 363.005 395.993 290.101 455.093 231.002 527.997 231.002 600.9 231.002 660 290.102 660 363.005Z" fill="url(#fill6)" fill-rule="nonzero" transform="matrix(1 0 0 1.00033 1348 -108.876)"/><path d="M528.005 363.005C528.005 435.908 468.905 495.008 396.002 495.008 323.098 495.008 263.998 435.908 263.998 363.005 263.998 290.101 323.098 231.002 396.002 231.002 468.905 231.002 528.005 290.102 528.005 363.005Z" fill="url(#fill7)" fill-rule="nonzero" transform="matrix(1 0 0 1.00033 1348 -108.876)"/><path d="M396.002 363.005C396.002 435.908 336.902 495.008 263.998 495.008 191.095 495.008 131.995 435.908 131.995 363.005 131.995 290.101 191.095 231.002 263.998 231.002 336.902 231.002 396.002 290.102 396.002 363.005Z" fill="url(#fill8)" fill-rule="nonzero" transform="matrix(1 0 0 1.00033 1348 -108.876)"/><path d="M264.007 363.005C264.007 435.908 204.907 495.008 132.003 495.008 59.0999 495.008 1.48668e-06 435.908 1.48668e-06 363.005 1.48668e-06 290.101 59.0999 231.002 132.003 231.002 204.907 231.002 264.007 290.102 264.007 363.005Z" fill="url(#fill9)" fill-rule="nonzero" transform="matrix(1 0 0 1.00033 1348 -108.876)"/><path d="M0 592.724C0 665.627 59.1002 724.727 132.003 724.727 204.906 724.727 264.007 665.627 264.007 592.724 264.007 519.821 204.906 460.72 132.003 460.72 59.1002 460.72 0 519.821 0 592.724Z" fill="url(#fill10)" fill-rule="nonzero" transform="matrix(1 0 0 1.00033 1348 -108.876)"/><path d="M396.002 592.724C396.002 665.627 336.902 724.727 263.998 724.727 191.095 724.727 131.995 665.627 131.995 592.724 131.995 519.82 191.095 460.72 263.998 460.72 336.902 460.72 396.002 519.82 396.002 592.724Z" fill="url(#fill11)" fill-rule="nonzero" transform="matrix(1 0 0 1.00033 1348 -108.876)"/><path d="M263.998 592.724C263.998 665.627 323.099 724.727 396.002 724.727 468.905 724.727 528.005 665.627 528.005 592.724 528.005 519.821 468.905 460.72 396.002 460.72 323.099 460.72 263.998 519.821 263.998 592.724Z" fill="url(#fill12)" fill-rule="nonzero" transform="matrix(1 0 0 1.00033 1348 -108.876)"/><path d="M1969.34 390.672C2020.89 442.24 2020.89 525.847 1969.34 577.414 1917.79 628.982 1834.21 628.982 1782.66 577.414 1731.11 525.847 1731.11 442.24 1782.66 390.672 1834.21 339.105 1917.79 339.105 1969.34 390.672Z" fill="url(#fill13)" fill-rule="nonzero"/><path d="M1969.34 620.468C2020.89 672.035 2020.89 755.643 1969.34 807.21 1917.79 858.778 1834.21 858.778 1782.66 807.21 1731.11 755.643 1731.11 672.035 1782.66 620.468 1834.21 568.9 1917.79 568.9 1969.34 620.468Z" fill="url(#fill14)" fill-rule="nonzero"/><path d="M1837.34 620.463C1888.89 672.031 1888.89 755.638 1837.34 807.206 1785.79 858.773 1702.21 858.773 1650.66 807.206 1599.11 755.638 1599.11 672.031 1650.66 620.463 1702.21 568.896 1785.79 568.896 1837.34 620.463Z" fill="url(#fill15)" fill-rule="nonzero"/><path d="M1705.34 620.465C1756.89 672.032 1756.89 755.639 1705.34 807.207 1653.79 858.774 1570.21 858.774 1518.66 807.207 1467.11 755.639 1467.11 672.032 1518.66 620.464 1570.21 568.897 1653.79 568.897 1705.34 620.465Z" fill="url(#fill16)" fill-rule="nonzero"/><path d="M1573.35 620.46C1624.9 672.027 1624.9 755.635 1573.35 807.202 1521.8 858.77 1438.22 858.77 1386.67 807.202 1335.12 755.635 1335.12 672.027 1386.67 620.46 1438.22 568.893 1521.8 568.893 1573.35 620.46Z" fill="url(#fill17)" fill-rule="nonzero"/></g></g></svg>