<svg width="91" height="120" viewBox="0 0 91 120" fill="none" xmlns="http://www.w3.org/2000/svg">
<g clip-path="url(#clip0_17_278)">
<path d="M32.7355 105.074C25.9021 101.803 20.0599 96.3247 16.3965 89.0315" stroke="white" stroke-width="4" stroke-linecap="round" stroke-linejoin="round"/>
<path d="M71.9885 46.8958C75.1012 49.7355 77.7541 53.1785 79.7558 57.1627C88.5574 74.6606 81.5084 95.9799 64.0105 104.782" stroke="white" stroke-width="4" stroke-linecap="round" stroke-linejoin="round"/>
<path d="M54.39 119.004H41.858L38.2234 102.143H58.0247L54.39 119.004Z" stroke="white" stroke-width="4" stroke-linecap="round" stroke-linejoin="round"/>
<path d="M6.35939 119.042H89.8887" stroke="white" stroke-width="4" stroke-linecap="round" stroke-linejoin="round"/>
<path d="M71.9837 43.8215C71.9837 50.5113 66.5581 55.9369 59.8683 55.9369C53.1785 55.9369 47.7529 50.5113 47.7529 43.8215C47.7529 37.1317 53.1785 31.7061 59.8683 31.7061C66.5581 31.7061 71.9837 37.1317 71.9837 43.8215Z" stroke="white" stroke-width="4" stroke-linecap="round" stroke-linejoin="round"/>
<path d="M0.957733 87.5278H33.904" stroke="white" stroke-width="4" stroke-linecap="round" stroke-linejoin="round"/>
<path d="M49.9701 51.9287L37.1363 74.5409C36.3223 75.9728 34.5026 76.4756 33.066 75.6615L19.9641 68.2246C18.5323 67.4106 18.0294 65.5909 18.8435 64.1542L49.405 10.3101C50.2191 8.87829 52.0388 8.37548 53.4754 9.18956L66.5773 16.6264C68.0091 17.4405 68.5119 19.2602 67.6978 20.6968L61.4486 31.706" stroke="white" stroke-width="4" stroke-linecap="round" stroke-linejoin="round"/>
<path d="M52.7092 8.80167L56.6024 1.94425C57.134 1.01046 58.3168 0.684824 59.2506 1.21637L70.4657 7.58534C71.3995 8.11688 71.7251 9.29969 71.1984 10.2335L67.626 16.5306" stroke="white" stroke-width="4" stroke-linecap="round" stroke-linejoin="round"/>
<path d="M32.1465 76.102L31.5144 77.2178C30.4561 79.0854 28.0857 79.7366 26.2181 78.6783L20.8308 75.6184C18.9632 74.5601 18.312 72.1897 19.3703 70.3221L20.0024 69.2063" stroke="white" stroke-width="4" stroke-linecap="round" stroke-linejoin="round"/>
</g>
<defs>
<clipPath id="clip0_17_278">
<rect width="90.8464" height="120" fill="white"/>
</clipPath>
</defs>
</svg>
