<svg width="98" height="120" viewBox="0 0 98 120" fill="none" xmlns="http://www.w3.org/2000/svg">
<g clip-path="url(#clip0_17_329)">
<path d="M36.7425 38.8917C33.0223 29.48 30.8535 19.2581 30.8535 10.9877H40.4627" stroke="white" stroke-width="4" stroke-linecap="round" stroke-linejoin="round"/>
<path d="M86.4293 10.9828H96.0385C96.0385 19.1445 93.924 29.2083 90.2927 38.5064" stroke="white" stroke-width="4" stroke-linecap="round" stroke-linejoin="round"/>
<path d="M8.32827 76.7505C11.7757 76.1909 14.1168 72.9425 13.5572 69.4951C12.9976 66.0476 9.74922 63.7066 6.30178 64.2662C2.85434 64.8258 0.513276 68.0741 1.07288 71.5216C1.63247 74.969 4.88082 77.3101 8.32827 76.7505Z" stroke="white" stroke-width="4" stroke-linecap="round" stroke-linejoin="round"/>
<path d="M14.199 72.0869C40.2997 73.7667 23.4625 119.027 45.2452 119.012C52.814 119.012 57.2753 112.782 59.874 105.015" stroke="white" stroke-width="4" stroke-linecap="round" stroke-linejoin="round"/>
<path d="M93.1286 45.7738C86.5923 59.9135 77.9217 68.9991 68.7472 71.5484C68.8361 71.8893 68.8904 72.2549 68.9102 72.6155C68.93 73.2479 69.5426 88.0398 66.1633 101.083C65.5309 103.523 63.3274 105.149 60.9263 105.149C60.4767 105.149 60.0222 105.075 59.5529 104.966C56.6627 104.205 54.9286 101.266 55.6696 98.3556C58.6488 86.8689 58.0905 73.2331 58.0707 73.1047C58.051 72.581 58.1053 72.077 58.2338 71.6077C49.079 69.1868 40.5863 60.373 33.961 46.1789C32.6963 43.4715 33.8523 40.2552 36.5795 38.9707C39.2869 37.7059 42.5032 38.8818 43.7679 41.5892C49.5138 53.8515 57.0431 61.4549 63.4361 61.4549C69.8291 61.4549 77.5264 53.7082 83.2871 41.2285C84.5321 38.5211 87.7681 37.3255 90.4755 38.5903C93.1829 39.8353 94.3785 43.0515 93.1286 45.7787V45.7738Z" stroke="white" stroke-width="4" stroke-linecap="round" stroke-linejoin="round"/>
</g>
<defs>
<clipPath id="clip0_17_329">
<rect width="97.0266" height="120" fill="white"/>
</clipPath>
</defs>
</svg>
