<svg width="286" height="98" viewBox="0 0 286 98" fill="none" xmlns="http://www.w3.org/2000/svg">
<path d="M33.7361 73.75C30.2674 73.75 27.2752 72.9844 24.7596 71.4531C22.2596 69.9062 20.3299 67.75 18.9705 64.9844C17.6268 62.2031 16.9549 58.9687 16.9549 55.2813C16.9549 51.5937 17.6268 48.3437 18.9705 45.5312C20.3299 42.7031 22.2205 40.5 24.6424 38.9219C27.0799 37.3281 29.9236 36.5313 33.1736 36.5313C35.0486 36.5313 36.9002 36.8437 38.7283 37.4687C40.5564 38.0937 42.2205 39.1094 43.7205 40.5156C45.2205 41.9062 46.4158 43.75 47.3064 46.0469C48.1971 48.3437 48.6424 51.1719 48.6424 54.5312V56.875H20.8924V52.0937H43.0174C43.0174 50.0625 42.6111 48.25 41.7986 46.6562C41.0018 45.0625 39.8611 43.8047 38.3768 42.8828C36.908 41.9609 35.1736 41.5 33.1736 41.5C30.9705 41.5 29.0643 42.0469 27.4549 43.1406C25.8611 44.2187 24.6346 45.625 23.7752 47.3594C22.9158 49.0937 22.4861 50.9531 22.4861 52.9375V56.125C22.4861 58.8438 22.9549 61.1484 23.8924 63.0391C24.8455 64.9141 26.1658 66.3437 27.8533 67.3281C29.5408 68.2969 31.5018 68.7813 33.7361 68.7813C35.1893 68.7813 36.5018 68.5781 37.6736 68.1719C38.8611 67.75 39.8846 67.125 40.7439 66.2969C41.6033 65.4531 42.2674 64.4062 42.7361 63.1562L48.0799 64.6563C47.5174 66.4688 46.5721 68.0625 45.2439 69.4375C43.9158 70.7969 42.2752 71.8594 40.3221 72.625C38.3689 73.375 36.1736 73.75 33.7361 73.75ZM59.5877 51.3438V73H54.0564V37H59.4002V42.625H59.8689C60.7127 40.7969 61.9939 39.3281 63.7127 38.2188C65.4314 37.0938 67.6502 36.5313 70.3689 36.5313C72.8064 36.5313 74.9393 37.0312 76.7674 38.0312C78.5955 39.0156 80.0174 40.5156 81.033 42.5312C82.0486 44.5312 82.5564 47.0625 82.5564 50.125V73H77.0252V50.5C77.0252 47.6719 76.2908 45.4687 74.8221 43.8906C73.3533 42.2969 71.3377 41.5 68.7752 41.5C67.0096 41.5 65.4314 41.8828 64.0408 42.6484C62.6658 43.4141 61.5799 44.5312 60.783 46C59.9861 47.4687 59.5877 49.25 59.5877 51.3438ZM103.258 73.75C100.258 73.75 97.6092 72.9922 95.3123 71.4766C93.0154 69.9453 91.2186 67.7891 89.9217 65.0078C88.6248 62.2109 87.9764 58.9062 87.9764 55.0938C87.9764 51.3125 88.6248 48.0312 89.9217 45.25C91.2186 42.4687 93.0232 40.3203 95.3357 38.8047C97.6482 37.2891 100.32 36.5313 103.351 36.5313C105.695 36.5313 107.547 36.9219 108.906 37.7031C110.281 38.4688 111.328 39.3437 112.047 40.3281C112.781 41.2969 113.351 42.0937 113.758 42.7187H114.226V25H119.758V73H114.414V67.4687H113.758C113.351 68.125 112.773 68.9531 112.023 69.9531C111.273 70.9375 110.203 71.8203 108.812 72.6016C107.422 73.3672 105.57 73.75 103.258 73.75ZM104.008 68.7813C106.226 68.7813 108.101 68.2031 109.633 67.0469C111.164 65.875 112.328 64.2578 113.125 62.1953C113.922 60.1172 114.32 57.7187 114.32 55C114.32 52.3125 113.929 49.9609 113.148 47.9453C112.367 45.9141 111.211 44.3359 109.679 43.2109C108.148 42.0703 106.258 41.5 104.008 41.5C101.664 41.5 99.7107 42.1016 98.1482 43.3047C96.6014 44.4922 95.4373 46.1094 94.6561 48.1562C93.8904 50.1875 93.5076 52.4687 93.5076 55C93.5076 57.5625 93.8982 59.8906 94.6795 61.9844C95.4764 64.0625 96.6482 65.7187 98.1951 66.9531C99.7576 68.1719 101.695 68.7813 104.008 68.7813ZM127.656 86.5V37H133V42.7187H133.656C134.062 42.0937 134.625 41.2969 135.344 40.3281C136.078 39.3437 137.125 38.4688 138.484 37.7031C139.859 36.9219 141.719 36.5313 144.062 36.5313C147.094 36.5313 149.765 37.2891 152.078 38.8047C154.39 40.3203 156.195 42.4687 157.492 45.25C158.789 48.0312 159.437 51.3125 159.437 55.0938C159.437 58.9062 158.789 62.2109 157.492 65.0078C156.195 67.7891 154.398 69.9453 152.101 71.4766C149.804 72.9922 147.156 73.75 144.156 73.75C141.844 73.75 139.992 73.3672 138.601 72.6016C137.211 71.8203 136.14 70.9375 135.39 69.9531C134.64 68.9531 134.062 68.125 133.656 67.4687H133.187V86.5H127.656ZM133.094 55C133.094 57.7187 133.492 60.1172 134.289 62.1953C135.086 64.2578 136.25 65.875 137.781 67.0469C139.312 68.2031 141.187 68.7813 143.406 68.7813C145.719 68.7813 147.648 68.1719 149.195 66.9531C150.758 65.7187 151.929 64.0625 152.711 61.9844C153.508 59.8906 153.906 57.5625 153.906 55C153.906 52.4687 153.515 50.1875 152.734 48.1562C151.969 46.1094 150.804 44.4922 149.242 43.3047C147.695 42.1016 145.75 41.5 143.406 41.5C141.156 41.5 139.265 42.0703 137.734 43.2109C136.203 44.3359 135.047 45.9141 134.265 47.9453C133.484 49.9609 133.094 52.3125 133.094 55ZM179.5 73.75C176.25 73.75 173.398 72.9766 170.945 71.4297C168.508 69.8828 166.601 67.7187 165.226 64.9375C163.867 62.1562 163.187 58.9062 163.187 55.1875C163.187 51.4375 163.867 48.1641 165.226 45.3672C166.601 42.5703 168.508 40.3984 170.945 38.8516C173.398 37.3047 176.25 36.5313 179.5 36.5313C182.75 36.5313 185.594 37.3047 188.031 38.8516C190.484 40.3984 192.39 42.5703 193.75 45.3672C195.125 48.1641 195.812 51.4375 195.812 55.1875C195.812 58.9062 195.125 62.1562 193.75 64.9375C192.39 67.7187 190.484 69.8828 188.031 71.4297C185.594 72.9766 182.75 73.75 179.5 73.75ZM179.5 68.7813C181.969 68.7813 184 68.1484 185.594 66.8828C187.187 65.6172 188.367 63.9531 189.133 61.8906C189.898 59.8281 190.281 57.5937 190.281 55.1875C190.281 52.7812 189.898 50.5391 189.133 48.4609C188.367 46.3828 187.187 44.7031 185.594 43.4219C184 42.1406 181.969 41.5 179.5 41.5C177.031 41.5 175 42.1406 173.406 43.4219C171.812 44.7031 170.633 46.3828 169.867 48.4609C169.101 50.5391 168.719 52.7812 168.719 55.1875C168.719 57.5937 169.101 59.8281 169.867 61.8906C170.633 63.9531 171.812 65.6172 173.406 66.8828C175 68.1484 177.031 68.7813 179.5 68.7813ZM201.256 73V37H206.787V73H201.256ZM204.068 31C202.99 31 202.06 30.6328 201.279 29.8984C200.513 29.1641 200.131 28.2813 200.131 27.25C200.131 26.2188 200.513 25.3359 201.279 24.6016C202.06 23.8672 202.99 23.5 204.068 23.5C205.146 23.5 206.068 23.8672 206.834 24.6016C207.615 25.3359 208.006 26.2188 208.006 27.25C208.006 28.2813 207.615 29.1641 206.834 29.8984C206.068 30.6328 205.146 31 204.068 31ZM219.449 51.3438V73H213.918V37H219.262V42.625H219.73C220.574 40.7969 221.855 39.3281 223.574 38.2188C225.293 37.0938 227.512 36.5313 230.23 36.5313C232.668 36.5313 234.801 37.0312 236.629 38.0312C238.457 39.0156 239.879 40.5156 240.894 42.5312C241.91 44.5312 242.418 47.0625 242.418 50.125V73H236.887V50.5C236.887 47.6719 236.152 45.4687 234.683 43.8906C233.215 42.2969 231.199 41.5 228.637 41.5C226.871 41.5 225.293 41.8828 223.902 42.6484C222.527 43.4141 221.441 44.5312 220.644 46C219.847 47.4687 219.449 49.25 219.449 51.3438ZM265.181 37V41.6875H246.525V37H265.181ZM251.963 28.375H257.494V62.6875C257.494 64.25 257.721 65.4219 258.174 66.2031C258.642 66.9687 259.236 67.4844 259.955 67.75C260.689 68 261.463 68.125 262.275 68.125C262.885 68.125 263.385 68.0937 263.775 68.0312C264.166 67.9531 264.478 67.8906 264.713 67.8438L265.838 72.8125C265.463 72.9531 264.939 73.0938 264.267 73.2344C263.596 73.3906 262.744 73.4688 261.713 73.4688C260.15 73.4688 258.619 73.1328 257.119 72.4609C255.635 71.7891 254.4 70.7656 253.416 69.3906C252.447 68.0156 251.963 66.2812 251.963 64.1875V28.375Z" fill="white"/>
<circle cx="279.783" cy="65.14" r="6" fill="#6226EF"/>
</svg>
