<svg width="52" height="52" viewBox="0 0 52 52" fill="none" xmlns="http://www.w3.org/2000/svg">
<rect width="52" height="52" fill="black"/>
<path d="M38.4487 28.292V38.1307H33.1012V28.9507C33.1012 26.644 32.3275 25.0707 30.3925 25.0707C28.915 25.0707 28.035 26.132 27.6488 27.1573C27.5075 27.524 27.4713 28.0347 27.4713 28.548V38.1307H22.1212C22.1212 38.1307 22.1937 22.584 22.1212 20.972H27.4713V23.404L27.4363 23.46H27.4713V23.404C28.1813 22.2373 29.45 20.5693 32.2912 20.5693C35.81 20.5693 38.4487 23.0227 38.4487 28.292ZM16.5263 12.7013C14.6975 12.7013 13.5 13.9813 13.5 15.6653C13.5 17.312 14.6625 18.6307 16.4563 18.6307H16.4912C18.3575 18.6307 19.5163 17.312 19.5163 15.6653C19.4838 13.9813 18.3575 12.7013 16.5263 12.7013ZM13.8175 38.1307H19.165V20.972H13.8175V38.1307Z" fill="white"/>
</svg>
