<svg width="52" height="52" viewBox="0 0 52 52" fill="none" xmlns="http://www.w3.org/2000/svg">
<rect width="52" height="52" fill="black"/>
<path d="M15.8294 19.6853C15.8461 19.523 15.8244 19.359 15.7661 19.2066C15.7077 19.0541 15.6143 18.9176 15.4934 18.808L13.0027 15.7853V15.3333H20.7334L26.7094 28.54L31.9627 15.3333H39.3334V15.7853L37.204 17.84C37.1136 17.9095 37.0438 18.0023 37.0022 18.1085C36.9606 18.2147 36.9488 18.3302 36.968 18.4427V33.5547C36.9488 33.6671 36.9606 33.7826 37.0022 33.8888C37.0438 33.995 37.1136 34.0879 37.204 34.1573L39.284 36.2133V36.6667H28.8254V36.2147L30.98 34.108C31.192 33.8947 31.192 33.832 31.192 33.5067V21.2907L25.2027 36.616H24.3947L17.4214 21.2907V31.5627C17.364 31.9933 17.5067 32.4293 17.808 32.7413L20.6094 36.1653V36.616H12.6667V36.1653L15.4667 32.7413C15.6148 32.5867 15.7248 32.3996 15.7878 32.195C15.8507 31.9903 15.865 31.7738 15.8294 31.5627V19.6853Z" fill="white"/>
</svg>
