<svg width="52" height="52" viewBox="0 0 52 52" fill="none" xmlns="http://www.w3.org/2000/svg">
<rect width="52" height="52" fill="black"/>
<g clip-path="url(#clip0_2212_1724)">
<path fill-rule="evenodd" clip-rule="evenodd" d="M36.3373 16.0179C36.4526 15.8901 36.5408 15.7417 36.5969 15.5809C36.653 15.4202 36.6758 15.2503 36.6641 15.081C36.6524 14.9117 36.6064 14.7463 36.5287 14.5942C36.451 14.4421 36.3432 14.3064 36.2113 14.1947C36.0795 14.083 35.9262 13.9975 35.7603 13.9432C35.5944 13.8889 35.419 13.8668 35.2442 13.8781C35.0695 13.8895 34.8987 13.934 34.7418 14.0093C34.5848 14.0845 34.4446 14.189 34.3293 14.3168L27.516 21.8601L21.7333 14.3917C21.6091 14.2312 21.4481 14.101 21.263 14.0114C21.0778 13.9217 20.8737 13.875 20.6667 13.875H15.3333C15.0857 13.875 14.843 13.9418 14.6324 14.0679C14.4217 14.194 14.2515 14.3745 14.1408 14.589C14.03 14.8036 13.9832 15.0438 14.0054 15.2827C14.0276 15.5216 14.1181 15.7498 14.2667 15.9417L22.8493 27.0268L15.6627 34.9834C15.5474 35.1111 15.4592 35.2596 15.4031 35.4204C15.347 35.5811 15.3242 35.751 15.3359 35.9203C15.3476 36.0896 15.3936 36.255 15.4713 36.4071C15.549 36.5591 15.6568 36.6949 15.7887 36.8066C15.9205 36.9183 16.0738 37.0038 16.2397 37.0581C16.4056 37.1124 16.581 37.1345 16.7558 37.1232C16.9305 37.1118 17.1013 37.0673 17.2582 36.992C17.4152 36.9167 17.5554 36.8123 17.6707 36.6845L24.484 29.1399L30.2667 36.6083C30.3909 36.7688 30.5519 36.899 30.737 36.9886C30.9222 37.0783 31.1263 37.125 31.3333 37.125H36.6667C36.9143 37.125 37.157 37.0582 37.3676 36.9321C37.5783 36.806 37.7485 36.6255 37.8592 36.411C37.97 36.1964 38.0169 35.9562 37.9946 35.7173C37.9724 35.4784 37.8819 35.2502 37.7333 35.0583L29.1507 23.9733L36.3373 16.0179ZM32 34.5417L18 16.4583H20L34 34.5417H32Z" fill="white"/>
</g>
<defs>
<clipPath id="clip0_2212_1724">
<rect width="32" height="31" fill="white" transform="translate(10 10)"/>
</clipPath>
</defs>
</svg>
