<svg width="447" height="446" viewBox="0 0 447 446" fill="none" xmlns="http://www.w3.org/2000/svg">
<path d="M417.003 33.3281C416.844 32.5577 416.467 31.8486 415.918 31.2839C415.37 30.7192 414.671 30.3224 413.904 30.1399C362.769 17.6658 244.62 62.1178 180.608 125.96C169.191 137.26 158.783 149.53 149.501 162.633C129.762 160.891 110.022 162.346 93.1987 169.663C45.7311 190.508 31.9108 244.899 28.0606 268.297C27.8423 269.578 27.9246 270.891 28.3013 272.135C28.6779 273.378 29.3386 274.518 30.2313 275.463C31.124 276.409 32.2245 277.135 33.446 277.584C34.6676 278.034 35.977 278.194 37.2713 278.053L113.497 269.665C113.551 275.399 113.898 281.126 114.536 286.825C114.92 290.783 116.68 294.481 119.512 297.278L149.03 326.66C151.836 329.482 155.542 331.238 159.507 331.625C165.186 332.259 170.895 332.605 176.61 332.662L168.246 408.621C168.106 409.912 168.268 411.218 168.719 412.436C169.17 413.654 169.898 414.751 170.845 415.641C171.793 416.532 172.934 417.191 174.179 417.568C175.425 417.944 176.741 418.028 178.024 417.812C201.43 414.066 256.039 400.276 276.809 352.915C284.143 336.129 285.644 316.529 283.951 296.93C297.115 287.668 309.445 277.281 320.802 265.884C385.015 202.137 429.313 86.883 417.003 33.3281ZM256.738 189.838C250.874 183.991 246.88 176.541 245.261 168.429C243.642 160.318 244.47 151.909 247.641 144.267C250.812 136.625 256.184 130.094 263.076 125.498C269.968 120.902 278.071 118.449 286.36 118.449C294.65 118.449 302.753 120.902 309.645 125.498C316.537 130.094 321.908 136.625 325.079 144.267C328.25 151.909 329.078 160.318 327.459 168.429C325.84 176.541 321.846 183.991 315.983 189.838C312.095 193.722 307.477 196.804 302.394 198.907C297.311 201.01 291.863 202.092 286.36 202.092C280.858 202.092 275.409 201.01 270.326 198.907C265.243 196.804 260.626 193.722 256.738 189.838Z" fill="#4C1D95"/>
<path d="M147.021 347.941C142.237 352.723 134.563 354.587 125.326 356.182C104.574 359.709 86.2483 341.817 89.9762 320.885C91.3993 312.949 95.6074 301.825 98.2265 299.212C98.799 298.652 99.18 297.926 99.3155 297.137C99.451 296.349 99.3341 295.538 98.9813 294.819C98.6285 294.101 98.0578 293.512 97.3503 293.135C96.6428 292.759 95.8344 292.614 95.0399 292.722C83.435 294.139 72.6387 299.389 64.3697 307.636C43.8444 328.132 41.9062 404.188 41.9062 404.188C41.9062 404.188 118.176 402.254 138.701 381.757C146.991 373.513 152.259 362.724 153.656 351.129C153.979 347.488 149.535 345.319 147.021 347.941Z" fill="#4C1D95"/>
</svg>
